<?xml version="1.0" standalone="no"?>
<!DOCTYPE svg PUBLIC "-//W3C//DTD SVG 20010904//EN"
 "http://www.w3.org/TR/2001/REC-SVG-20010904/DTD/svg10.dtd">
<svg version="1.0" xmlns="http://www.w3.org/2000/svg"
 width="1392.000000pt" height="1392.000000pt" viewBox="0 0 1392.000000 1392.000000"
 preserveAspectRatio="xMidYMid meet">
<metadata>
Created by potrace 1.11, written by Peter Selinger 2001-2013
</metadata>
<g transform="translate(0.000000,1392.000000) scale(0.100000,-0.100000)"
fill="#000000" stroke="none">
<path d="M6810 9864 c-104 -22 -166 -48 -265 -112 -170 -109 -300 -296 -339
-487 -14 -69 -16 -83 -16 -135 -1 -125 12 -199 51 -302 86 -222 264 -393 493
-470 83 -28 103 -31 221 -32 108 0 142 3 205 23 78 24 203 82 227 107 8 8 18
14 23 14 19 0 151 141 192 205 95 148 129 265 124 434 -3 107 -6 128 -31 212
-54 187 -206 371 -384 467 -58 31 -162 70 -208 78 -76 13 -229 12 -293 -2z"/>
<path d="M10230 9793 c-14 -3 -53 -18 -88 -34 -35 -16 -67 -29 -72 -29 -5 0
-10 -3 -12 -7 -1 -5 -29 -25 -61 -46 -31 -20 -69 -47 -84 -60 -119 -101 -268
-252 -355 -359 -18 -23 -45 -56 -59 -73 -56 -66 -179 -238 -273 -380 -54 -82
-107 -162 -117 -177 -11 -15 -19 -30 -19 -34 0 -4 -6 -15 -14 -23 -7 -9 -37
-60 -65 -115 -28 -54 -62 -112 -74 -130 -28 -40 -45 -67 -54 -86 -4 -8 -9 -17
-12 -20 -13 -11 -71 -101 -71 -109 0 -5 -3 -11 -7 -13 -5 -1 -21 -23 -38 -48
-31 -47 -134 -185 -183 -247 -9 -12 -28 -36 -42 -54 -14 -17 -40 -47 -57 -66
-18 -19 -33 -37 -33 -39 0 -5 -99 -112 -185 -198 -90 -90 -153 -148 -235 -215
-36 -29 -74 -60 -85 -69 -11 -9 -36 -27 -55 -41 -19 -13 -38 -29 -42 -35 -4
-6 -8 -7 -8 -3 0 4 -15 -3 -32 -17 -61 -45 -292 -171 -333 -181 -5 -1 -23 -8
-40 -14 -196 -82 -487 -115 -665 -76 -14 4 -36 8 -50 11 -224 44 -510 190
-751 381 -181 144 -391 354 -549 548 -36 44 -75 91 -87 105 -13 14 -23 28 -23
32 0 3 -6 13 -13 20 -7 7 -42 54 -77 103 -36 50 -68 92 -72 93 -5 2 -8 9 -8
16 0 7 -8 21 -18 32 -19 20 -162 241 -162 250 0 3 -8 17 -19 32 -85 124 -141
212 -141 221 0 6 -4 11 -9 11 -5 0 -12 8 -15 18 -13 34 -37 72 -47 72 -5 0 -9
6 -9 13 0 7 -9 23 -20 35 -11 12 -20 25 -20 30 0 8 -58 92 -71 102 -3 3 -12
16 -19 29 -7 14 -17 30 -22 35 -8 11 -67 88 -118 156 -198 265 -454 507 -632
596 -37 19 -76 35 -85 37 -10 1 -23 6 -28 9 -22 13 -52 -28 -60 -80 -2 -15 -6
-43 -9 -62 -12 -85 -3 -284 19 -380 9 -41 17 -84 20 -105 7 -46 77 -299 95
-340 5 -11 20 -54 33 -95 30 -87 91 -246 118 -307 10 -23 19 -44 19 -47 0 -8
82 -188 153 -336 102 -212 187 -410 187 -435 0 -8 4 -15 10 -15 5 0 9 -3 8 -7
0 -5 1 -15 5 -23 36 -96 109 -311 128 -380 7 -25 14 -49 15 -55 14 -49 37
-133 39 -145 5 -23 46 -213 49 -230 2 -8 7 -37 10 -65 4 -27 9 -62 12 -78 18
-111 25 -470 11 -586 -10 -76 -29 -181 -42 -221 -3 -10 -7 -27 -9 -37 -15 -71
-88 -232 -153 -335 -58 -93 -65 -101 -178 -213 -103 -103 -232 -196 -353 -257
-37 -18 -69 -36 -72 -39 -12 -15 -270 -113 -352 -135 -5 -1 -10 -3 -13 -4 -6
-3 -6 -3 -55 -14 -19 -5 -41 -13 -47 -18 -7 -6 -13 -8 -13 -5 0 3 -15 1 -32
-4 -18 -5 -44 -11 -58 -14 -51 -10 -72 -14 -88 -19 -9 -3 -35 -8 -57 -11 -22
-2 -49 -7 -60 -9 -25 -5 -156 -24 -215 -31 -242 -29 -559 -35 -1000 -20 -386
13 -841 9 -950 -9 -14 -3 -50 -7 -80 -10 -30 -4 -68 -9 -85 -12 -16 -3 -43 -7
-60 -9 -16 -2 -55 -9 -85 -15 -30 -6 -65 -13 -77 -16 -12 -2 -35 -9 -50 -15
-16 -6 -30 -11 -33 -11 -62 -7 -246 -92 -305 -140 l-39 -33 49 -8 c28 -4 70
-9 95 -12 50 -4 137 -13 190 -19 19 -3 60 -7 90 -10 70 -7 143 -15 200 -22 25
-3 66 -7 91 -9 25 -2 63 -6 85 -9 38 -5 113 -13 201 -22 82 -8 128 -13 163
-18 19 -2 64 -7 100 -11 68 -7 109 -11 175 -19 22 -3 69 -8 105 -11 36 -4 83
-9 105 -11 22 -3 58 -7 80 -9 91 -9 142 -15 170 -19 17 -3 66 -8 110 -12 44
-3 91 -8 105 -9 33 -4 212 -24 275 -30 28 -3 73 -8 100 -11 85 -9 137 -14 220
-19 44 -3 105 -7 135 -10 30 -3 96 -8 145 -12 121 -10 833 -10 915 0 36 4 94
9 130 12 36 3 79 8 95 11 17 3 50 7 75 9 25 2 84 11 133 20 48 8 102 18 120
20 17 3 84 19 147 36 63 16 122 31 130 33 8 1 22 5 30 8 47 19 110 36 110 30
0 -4 4 -2 8 3 4 6 25 16 47 24 42 14 262 119 280 133 6 4 37 28 70 52 216 158
315 345 350 659 7 62 7 275 1 342 -2 22 -7 72 -11 110 -3 39 -9 79 -12 90 -3
11 -7 31 -9 45 -3 27 -7 47 -22 125 -17 82 -23 109 -28 127 -3 10 -7 30 -10
45 -3 16 -9 42 -14 58 -6 17 -24 77 -41 135 -46 159 -117 364 -150 437 -10 24
-19 49 -19 56 0 7 -6 21 -14 32 -7 11 -14 23 -15 28 0 4 -8 23 -16 43 -8 20
-15 38 -15 39 0 1 -10 24 -22 51 -12 27 -23 51 -23 54 -2 7 -90 192 -116 242
-11 22 -17 38 -12 35 4 -3 19 -28 33 -56 14 -28 28 -51 33 -51 4 0 7 -4 7 -9
0 -9 70 -127 92 -156 5 -5 40 -59 79 -120 40 -60 74 -112 78 -115 3 -3 19 -25
36 -50 123 -186 335 -439 530 -635 141 -141 152 -151 269 -244 113 -89 324
-222 376 -236 3 -1 14 -5 25 -10 74 -30 94 -37 149 -51 83 -22 223 -32 281
-20 11 2 40 7 65 12 25 4 47 8 50 9 30 6 108 37 210 83 130 59 356 223 503
365 21 20 40 37 42 37 3 0 28 26 172 176 17 18 80 91 138 161 115 138 116 138
160 198 17 22 34 44 38 50 21 27 100 140 156 222 34 51 65 94 70 97 4 3 -5
-21 -19 -52 -15 -31 -39 -88 -54 -127 -15 -38 -31 -79 -36 -90 -30 -68 -160
-469 -160 -495 0 -9 -3 -20 -7 -24 -4 -3 -8 -12 -9 -19 -1 -7 -16 -75 -34
-152 -17 -76 -33 -152 -35 -168 -2 -16 -6 -40 -9 -55 -3 -15 -8 -45 -10 -67
-3 -22 -8 -65 -12 -95 -10 -70 -10 -389 -1 -455 22 -156 92 -353 152 -425 19
-23 160 -164 176 -175 96 -71 223 -139 362 -194 77 -31 260 -88 307 -97 14 -3
31 -7 39 -10 8 -2 30 -7 50 -10 20 -3 50 -9 66 -14 17 -5 64 -14 105 -20 41
-6 86 -14 100 -16 40 -8 71 -12 140 -19 36 -3 81 -8 100 -10 149 -16 272 -20
595 -19 204 0 415 4 470 9 55 5 117 9 137 9 21 1 38 3 38 6 0 3 28 5 63 6 55
0 113 5 237 19 56 6 152 16 195 20 22 2 60 7 85 9 25 3 74 8 110 11 36 3 76 8
90 10 14 2 57 7 95 10 39 3 84 8 100 10 17 2 62 6 100 9 39 4 86 9 105 11 37
5 140 15 200 20 19 2 55 5 80 9 25 3 70 8 100 10 62 6 169 17 215 22 17 1 59
6 95 9 36 3 81 8 100 10 19 3 64 7 100 10 36 3 79 7 95 9 17 3 63 8 104 11 41
4 82 8 90 10 9 1 54 6 101 10 47 4 96 9 110 10 14 2 54 6 90 10 126 12 130 16
72 66 -58 49 -172 108 -242 124 -8 2 -34 10 -57 19 -24 8 -43 13 -43 11 0 -3
-12 0 -27 6 -16 6 -35 12 -43 14 -56 10 -98 18 -120 21 -14 2 -38 6 -55 9
-235 37 -605 47 -1110 30 -382 -13 -634 -10 -890 9 -53 4 -136 15 -210 26 -33
5 -82 12 -110 16 -27 3 -57 8 -65 9 -15 4 -137 31 -200 45 -65 15 -155 40
-190 54 -19 8 -39 14 -43 14 -9 0 -37 10 -147 54 -365 146 -642 379 -792 668
-47 90 -104 244 -109 292 0 4 -5 22 -10 40 -10 35 -17 73 -24 129 -2 19 -7 48
-10 64 -9 40 -10 329 -2 430 3 44 13 130 22 190 18 123 18 122 40 220 8 39 18
82 20 97 3 15 9 38 15 52 5 15 7 26 4 26 -2 0 0 8 5 19 6 10 13 33 16 51 7 40
145 453 154 460 3 3 7 12 9 20 6 25 101 249 152 355 112 235 142 301 144 313
1 7 8 18 14 24 7 7 12 18 12 25 0 7 4 21 9 31 61 124 204 522 236 658 33 139
54 237 61 284 18 136 22 280 10 350 -16 94 -17 108 -7 115 15 9 14 35 -1 34
-7 -1 -24 -4 -38 -6z"/>
<path d="M11458 7456 c-1 -2 -25 -6 -53 -9 -99 -11 -223 -60 -321 -127 -71
-49 -204 -185 -204 -209 0 -5 -4 -11 -9 -13 -13 -5 -77 -146 -97 -213 -20 -65
-26 -276 -10 -350 10 -48 45 -146 57 -160 5 -5 9 -15 9 -22 0 -8 5 -19 10 -26
6 -7 27 -37 48 -69 145 -219 371 -337 638 -333 117 2 212 24 309 71 117 58
127 65 215 153 150 151 224 337 222 553 -4 369 -254 674 -607 743 -34 7 -201
15 -207 11z"/>
<path d="M2347 7444 c-1 -1 -18 -4 -37 -7 -74 -10 -138 -31 -225 -72 -106 -50
-118 -59 -210 -150 -82 -82 -100 -104 -122 -151 -9 -19 -20 -34 -25 -34 -4 0
-8 -8 -8 -18 0 -10 -5 -23 -12 -30 -7 -7 -8 -12 -4 -12 5 0 4 -6 -2 -12 -11
-14 -31 -80 -41 -138 -8 -48 -6 -236 3 -284 50 -255 235 -474 473 -558 32 -11
67 -22 78 -24 11 -2 34 -7 50 -10 55 -12 199 -11 265 2 287 56 499 232 598
495 31 83 35 113 38 246 1 93 -3 137 -17 190 -19 70 -58 174 -68 183 -3 3 -12
17 -20 32 -8 15 -22 37 -33 47 -10 11 -18 24 -18 28 0 12 -137 143 -149 143
-6 0 -11 4 -11 8 0 21 -179 95 -271 113 -54 10 -224 20 -232 13z"/>
</g>
</svg>
