<svg width="36" height="36" viewBox="0 0 36 36" fill="none" xmlns="http://www.w3.org/2000/svg">
<path d="M32.9946 32.9998V32.9986H33.0021V21.996C33.0021 16.6135 31.8433 12.4673 25.5508 12.4673C22.5258 12.4673 20.4958 14.1273 19.667 15.701H19.5795V12.9698H13.6133V32.9986H19.8258V23.081C19.8258 20.4698 20.3208 17.9448 23.5546 17.9448C26.7408 17.9448 26.7883 20.9248 26.7883 23.2485V32.9998H32.9946Z" fill="#FF851F"/>
<path d="M3.49609 12.9716H9.7161V33.0003H3.49609V12.9716Z" fill="#FF851F"/>
<path d="M6.6025 2.99976C4.61375 2.99976 3 4.61351 3 6.60226C3 8.59101 4.61375 10.2385 6.6025 10.2385C8.59125 10.2385 10.205 8.59101 10.205 6.60226C10.2037 4.61351 8.59 2.99976 6.6025 2.99976V2.99976Z" fill="#FF851F"/>
</svg>
