<svg width="36" height="36" viewBox="0 0 36 36" fill="none" xmlns="http://www.w3.org/2000/svg">
<g id="phone-fill" clip-path="url(#clip0_1823_1332)">
<g >
<path d="M31.5 24.63V29.934C31.5002 30.3138 31.3563 30.6795 31.0974 30.9573C30.8385 31.2351 30.4838 31.4044 30.105 31.431C29.4495 31.476 28.914 31.5 28.5 31.5C15.2445 31.5 4.5 20.7555 4.5 7.5C4.5 7.086 4.5225 6.5505 4.569 5.895C4.59558 5.51617 4.76487 5.16152 5.04271 4.90261C5.32054 4.64371 5.68623 4.49983 6.066 4.5H11.37C11.5561 4.49981 11.7355 4.56879 11.8736 4.69353C12.0116 4.81827 12.0984 4.98987 12.117 5.175C12.1515 5.52 12.183 5.7945 12.213 6.003C12.5111 8.08338 13.122 10.1067 14.025 12.0045C14.1675 12.3045 14.0745 12.663 13.8045 12.855L10.5675 15.168C12.5467 19.7797 16.2218 23.4548 20.8335 25.434L23.1435 22.203C23.2379 22.071 23.3757 21.9763 23.5327 21.9355C23.6898 21.8946 23.8562 21.9102 24.003 21.9795C25.9005 22.8808 27.9234 23.4902 30.003 23.787C30.2115 23.817 30.486 23.85 30.828 23.883C31.0129 23.902 31.1841 23.9889 31.3085 24.1269C31.433 24.2649 31.5017 24.4442 31.5015 24.63H31.5Z" fill="white"/>
</g>
</g>
<defs>
<clipPath id="clip0_1823_1332">
<rect width="36" height="36" fill="white"/>
</clipPath>
</defs>
</svg>
