<svg width="227" height="89" viewBox="0 0 227 89" fill="none" xmlns="http://www.w3.org/2000/svg">
<g id="FHS_Logo_4C 2" clip-path="url(#clip0_1823_1242)">
<g id="g8">
<g id="g10">
<g id="g12">
<g id="Clip path group">
<mask id="mask0_1823_1242" style="mask-type:luminance" maskUnits="userSpaceOnUse" x="123" y="0" width="44" height="46">
<g id="clipPath18">
<path id="path16" d="M153.274 40.3648C152.962 40.3812 152.674 40.4001 152.394 40.4198C144.045 40.9017 136.265 39.2169 133.107 34.5204C129.95 29.8239 131.34 22.0082 134.947 14.4739C135.071 14.2224 135.198 13.9631 135.331 13.6816C140.198 3.37253 138.291 0.680599 138.291 0.680599L131.369 13.6326V13.633L128.565 18.9032L128.375 19.2591C128.347 19.3101 128.323 19.3562 128.298 19.4055C124.139 27.2341 121.733 36.2156 124.485 40.309C127.238 44.4025 136.502 45.6193 145.333 44.7394C145.388 44.7344 145.44 44.7297 145.497 44.7237L145.899 44.6826L151.819 44.0449H151.819L166.445 42.5512C166.445 42.5512 164.672 39.7692 153.274 40.3648Z" fill="white"/>
</g>
</mask>
<g mask="url(#mask0_1823_1242)">
<g id="g14">
<path id="path26" d="M153.274 40.3648C152.962 40.3812 152.674 40.4001 152.394 40.4198C144.045 40.9017 136.265 39.2169 133.107 34.5204C129.95 29.8239 131.34 22.0082 134.947 14.4739C135.071 14.2224 135.198 13.9631 135.331 13.6816C140.198 3.37253 138.291 0.680599 138.291 0.680599L131.369 13.6326V13.633L128.565 18.9032L128.375 19.2591C128.347 19.3101 128.323 19.3562 128.298 19.4055C124.139 27.2341 121.733 36.2156 124.485 40.309C127.238 44.4025 136.502 45.6193 145.333 44.7394C145.388 44.7344 145.44 44.7297 145.497 44.7237L145.899 44.6826L151.819 44.0449H151.819L166.445 42.5512C166.445 42.5512 164.672 39.7692 153.274 40.3648Z" fill="white"/>
</g>
</g>
</g>
</g>
<g id="g28">
<g id="Clip path group_2">
<mask id="mask1_1823_1242" style="mask-type:luminance" maskUnits="userSpaceOnUse" x="142" y="18" width="12" height="13">
<g id="clipPath34">
<path id="path32" d="M151.25 29.4607C148.547 31.2727 144.884 30.5525 143.069 27.8523C141.253 25.1522 141.972 21.4942 144.675 19.6822C147.377 17.8702 151.041 18.5901 152.856 21.2906C154.672 23.9907 153.953 27.6487 151.25 29.4607Z" fill="white"/>
</g>
</mask>
<g mask="url(#mask1_1823_1242)">
<g id="g30">
<path id="path42" d="M151.25 29.4607C148.547 31.2727 144.884 30.5525 143.069 27.8523C141.253 25.1522 141.972 21.4942 144.675 19.6822C147.377 17.8702 151.041 18.5901 152.856 21.2906C154.672 23.9907 153.953 27.6487 151.25 29.4607Z" fill="white"/>
</g>
</g>
</g>
</g>
<g id="g44">
<g id="Clip path group_3">
<mask id="mask2_1823_1242" style="mask-type:luminance" maskUnits="userSpaceOnUse" x="59" y="0" width="44" height="46">
<g id="clipPath50">
<path id="path48" d="M72.8002 40.3648C73.1115 40.3812 73.4003 40.4001 73.6808 40.4198C82.0298 40.9017 89.8085 39.2169 92.9664 34.5204C96.1246 29.8239 94.7338 22.0082 91.127 14.4739C91.0028 14.2224 90.8758 13.9631 90.7427 13.6816C85.876 3.37253 87.7834 0.680599 87.7834 0.680599L94.7049 13.6326V13.633L97.5092 18.9032L97.6996 19.2591C97.7268 19.3101 97.7504 19.3562 97.7765 19.4055C101.935 27.2341 104.341 36.2156 101.589 40.309C98.8363 44.4025 89.5724 45.6193 80.7414 44.7394C80.6859 44.7344 80.6341 44.7297 80.5765 44.7237L80.1747 44.6826L74.2554 44.0449H74.255L59.6289 42.5512C59.6289 42.5512 61.4021 39.7692 72.8002 40.3648Z" fill="white"/>
</g>
</mask>
<g mask="url(#mask2_1823_1242)">
<g id="g46">
<path id="path58" d="M72.8002 40.3648C73.1115 40.3812 73.4003 40.4001 73.6808 40.4198C82.0298 40.9017 89.8085 39.2169 92.9664 34.5204C96.1246 29.8239 94.7338 22.0082 91.127 14.4739C91.0028 14.2224 90.8758 13.9631 90.7427 13.6816C85.876 3.37253 87.7834 0.680599 87.7834 0.680599L94.7049 13.6326V13.633L97.5092 18.9032L97.6996 19.2591C97.7268 19.3101 97.7504 19.3562 97.7765 19.4055C101.935 27.2341 104.341 36.2156 101.589 40.309C98.8363 44.4025 89.5724 45.6193 80.7414 44.7394C80.6859 44.7344 80.6341 44.7297 80.5765 44.7237L80.1747 44.6826L74.2554 44.0449H74.255L59.6289 42.5512C59.6289 42.5512 61.4021 39.7692 72.8002 40.3648Z" fill="white"/>
</g>
</g>
</g>
</g>
<g id="g60">
<g id="Clip path group_4">
<mask id="mask3_1823_1242" style="mask-type:luminance" maskUnits="userSpaceOnUse" x="72" y="18" width="12" height="13">
<g id="clipPath66">
<path id="path64" d="M74.8284 29.4608C77.4821 31.24 81.1054 30.4933 82.9209 27.7932C84.7366 25.0927 84.0575 21.4615 81.4035 19.6823C78.7497 17.9032 75.1264 18.6499 73.3106 21.35C71.4948 24.0502 72.1743 27.6817 74.8284 29.4608Z" fill="white"/>
</g>
</mask>
<g mask="url(#mask3_1823_1242)">
<g id="g62">
<path id="path74" d="M74.8284 29.4608C77.4821 31.24 81.1054 30.4933 82.9209 27.7932C84.7366 25.0927 84.0575 21.4615 81.4035 19.6823C78.7497 17.9032 75.1264 18.6499 73.3106 21.35C71.4948 24.0502 72.1743 27.6817 74.8284 29.4608Z" fill="white"/>
</g>
</g>
</g>
</g>
<g id="g76">
<g id="Clip path group_5">
<mask id="mask4_1823_1242" style="mask-type:luminance" maskUnits="userSpaceOnUse" x="87" y="0" width="52" height="35">
<g id="clipPath82">
<path id="path80" d="M129.133 10.3804C128.974 10.6476 128.828 10.8977 128.688 11.1406C124.435 18.3305 118.705 23.8365 113.039 23.8365C107.374 23.8365 101.644 18.3305 97.3904 11.1406C97.2505 10.8977 97.1052 10.6476 96.9457 10.3804C91.0868 0.599415 87.7852 0.680153 87.7852 0.680153L94.6962 13.6379H94.6966L97.4909 18.9135L97.6806 19.27C97.7078 19.3208 97.7328 19.3661 97.7593 19.4151C101.95 27.2265 108.102 34.2148 113.039 34.2148C117.977 34.2148 124.128 27.2265 128.32 19.4151C128.346 19.3661 128.371 19.3208 128.398 19.27L128.588 18.9135L131.382 13.6379L138.294 0.680153C138.294 0.680153 134.992 0.599415 129.133 10.3804Z" fill="white"/>
</g>
</mask>
<g mask="url(#mask4_1823_1242)">
<g id="g78">
<path id="path90" d="M129.133 10.3804C128.974 10.6476 128.828 10.8977 128.688 11.1406C124.435 18.3305 118.705 23.8365 113.039 23.8365C107.374 23.8365 101.644 18.3305 97.3904 11.1406C97.2505 10.8977 97.1052 10.6476 96.9457 10.3804C91.0868 0.599415 87.7852 0.680153 87.7852 0.680153L94.6962 13.6379H94.6966L97.4909 18.9135L97.6806 19.27C97.7078 19.3208 97.7328 19.3661 97.7593 19.4151C101.95 27.2265 108.102 34.2148 113.039 34.2148C117.977 34.2148 124.128 27.2265 128.32 19.4151C128.346 19.3661 128.371 19.3208 128.398 19.27L128.588 18.9135L131.382 13.6379L138.294 0.680153C138.294 0.680153 134.992 0.599415 129.133 10.3804Z" fill="white"/>
</g>
</g>
</g>
</g>
<g id="g92">
<g id="Clip path group_6">
<mask id="mask5_1823_1242" style="mask-type:luminance" maskUnits="userSpaceOnUse" x="0" y="0" width="227" height="89">
<g id="clipPath98">
<path id="path96" d="M0 89H226.982V0.00714874H0V89Z" fill="white"/>
</g>
</mask>
<g mask="url(#mask5_1823_1242)">
<g id="g94">
<g id="Clip path group_7">
<mask id="mask6_1823_1242" style="mask-type:luminance" maskUnits="userSpaceOnUse" x="107" y="0" width="12" height="12">
<g id="clipPath104">
<path id="path102" d="M118.936 5.98305C118.936 9.28661 116.296 11.965 113.038 11.965C109.781 11.965 107.141 9.28661 107.141 5.98305C107.141 2.67949 109.781 0.00148678 113.038 0.00148678C116.296 0.00148678 118.936 2.67949 118.936 5.98305Z" fill="white"/>
</g>
</mask>
<g mask="url(#mask6_1823_1242)">
<g id="g100">
<path id="path112" d="M112.484 11.9758V11.9401H112.234V11.9044H111.983V11.8687H111.768V11.8329H111.661V11.7972H111.518V11.7615H111.375V11.7257H111.232V11.69H111.16V11.6543H111.053V11.6186H110.946V11.5828H110.874V11.5471H110.767V11.5114H110.695V11.4757H110.624V11.4399H110.516V11.4042H110.445V11.3685H110.373V11.3328H110.302V11.297H110.23V11.2613H110.158V11.2256H110.123V11.1899H110.051V11.1541H110.015V11.1184H109.944V11.0827H109.872V11.047H109.836V11.0112H109.765V10.9755H109.729V10.9398H109.657V10.9041H109.622V10.8683H109.586V10.8326H109.514V10.7969H109.479V10.7612H109.443V10.7254H109.371V10.6897H109.335V10.654H109.3V10.6183H109.228V10.5825H109.192V10.5468H109.157V10.5111H109.121V10.4753H109.085V10.4396H109.049V10.4039H109.013V10.3682H108.978V10.3324H108.942V10.2967H108.906V10.261H108.87V10.2253H108.835V10.1895H108.799V10.1538H108.763V10.1181H108.727V10.0824H108.691V10.0466H108.656V10.0109H108.62V9.97519H108.584V9.90374H108.548V9.86801H108.513V9.83228H108.477V9.79656H108.441V9.76083H108.405V9.68938H108.369V9.65366H108.334V9.61793H108.298V9.54648H108.262V9.51075H108.226V9.47503H108.191V9.40358H108.155V9.36785H108.119V9.2964H108.083V9.26067H108.047V9.18922H108.012V9.11777H107.976V9.08204H107.94V9.01059H107.904V8.93914H107.869V8.90342H107.833V8.83196H107.797V8.76051H107.761V8.65334H107.725V8.58188H107.69V8.51043H107.654V8.43898H107.618V8.36753H107.582V8.29608H107.547V8.1889H107.511V8.08172H107.475V7.97455H107.439V7.90309H107.403V7.79592H107.368V7.65301H107.332V7.51011H107.296V7.36721H107.26V7.2243H107.225V7.00995H107.189V6.75987H107.153V6.40261H107.117V5.54519H107.153V5.18794H107.189V4.97358H107.225V4.75923H107.26V4.61632H107.296V4.47342H107.332V4.33052H107.368V4.18762H107.403V4.08044H107.439V3.97326H107.475V3.86608H107.511V3.79463H107.547V3.68746H107.582V3.58028H107.618V3.50883H107.654V3.43738H107.69V3.36592H107.725V3.29447H107.761V3.22302H107.797V3.15157H107.833V3.08012H107.869V3.00867H107.904V2.97294H107.94V2.90149H107.976V2.83004H108.012V2.79431H108.047V2.72286H108.083V2.65141H108.119V2.61568H108.155V2.54423H108.191V2.5085H108.226V2.47278H108.262V2.40133H108.298V2.3656H108.334V2.32988H108.369V2.25842H108.405V2.2227H108.441V2.15125H108.477V2.11552H108.513V2.0798H108.548V2.04407H108.584V2.00834H108.62V1.97262H108.656V1.93689H108.691V1.90117H108.727V1.86544H108.763V1.79399H108.799V1.75826H108.835V1.72254H108.87V1.68681H108.906V1.65109H108.942V1.61536H109.013V1.57964H109.049V1.54391H109.085V1.50818H109.121V1.47246H109.157V1.43673H109.192V1.40101H109.228V1.36528H109.264V1.32956H109.3V1.29383H109.371V1.2581H109.407V1.22238H109.443V1.18665H109.514V1.15093H109.55V1.1152H109.586V1.07948H109.657V1.04375H109.693V1.00802H109.729V0.972298H109.801V0.936572H109.872V0.900846H109.908V0.865121H109.98V0.829395H110.051V0.793669H110.087V0.757943H110.158V0.722218H110.194V0.686492H110.266V0.650766H110.337V0.615041H110.445V0.579314H110.516V0.543589H110.588V0.507863H110.659V0.472137H110.731V0.436412H110.802V0.400686H110.91V0.36496H111.017V0.329234H111.089V0.293509H111.196V0.257783H111.303V0.222057H111.446V0.186332H111.59V0.150605H111.733V0.11488H111.876V0.079154H112.126V0.0434284H112.341V0.00770283H113.736V0.0434284H113.951V0.079154H114.201V0.11488H114.345V0.150605H114.488V0.186332H114.631V0.222057H114.738V0.257783H114.881V0.293509H114.953V0.329234H115.06V0.36496H115.167V0.400686H115.239V0.436412H115.346V0.472137H115.418V0.507863H115.489V0.543589H115.561V0.579314H115.633V0.615041H115.704V0.650766H115.776V0.686492H115.847V0.722218H115.919V0.757943H115.99V0.793669H116.026V0.829395H116.098V0.865121H116.134V0.900846H116.205V0.936572H116.277V0.972298H116.312V1.00802H116.384V1.04375H116.42V1.07948H116.456V1.1152H116.527V1.15093H116.563V1.18665H116.599V1.22238H116.67V1.2581H116.706V1.29383H116.742V1.32956H116.813V1.36528H116.849V1.40101H116.885V1.43673H116.921V1.47246H116.956V1.50818H116.992V1.54391H117.028V1.57964H117.064V1.61536H117.1V1.65109H117.135V1.68681H117.171V1.72254H117.243V1.79399H117.278V1.82972H117.314V1.86544H117.35V1.90117H117.386V1.93689H117.422V1.97262H117.457V2.00834H117.493V2.04407H117.529V2.11552H117.565V2.15125H117.6V2.18697H117.636V2.2227H117.672V2.29415H117.708V2.32988H117.744V2.3656H117.779V2.43705H117.815V2.47278H117.851V2.5085H117.887V2.57996H117.922V2.61568H117.958V2.68713H117.994V2.72286H118.03V2.79431H118.066V2.86576H118.101V2.90149H118.137V2.97294H118.173V3.04439H118.209V3.08012H118.244V3.15157H118.28V3.25875H118.316V3.3302H118.352V3.40165H118.388V3.4731H118.423V3.54455H118.459V3.616H118.495V3.72318H118.531V3.79463H118.566V3.90181H118.602V4.00899H118.638V4.11616H118.674V4.22334H118.71V4.36624H118.745V4.50915H118.781V4.65205H118.817V4.79495H118.853V5.04503H118.888V5.25939H118.924V5.72382H118.96V6.25971H118.924V6.68842H118.888V6.9385H118.853V7.18858H118.817V7.33148H118.781V7.47439H118.745V7.61729H118.71V7.76019H118.674V7.86737H118.638V7.97455H118.602V8.046H118.566V8.15317H118.531V8.26035H118.495V8.3318H118.459V8.43898H118.423V8.51043H118.388V8.58188H118.352V8.65334H118.316V8.72479H118.28V8.79624H118.244V8.86769H118.209V8.93914H118.173V8.97487H118.137V9.04632H118.101V9.11777H118.066V9.1535H118.03V9.22495H117.994V9.2964H117.958V9.33212H117.922V9.40358H117.887V9.4393H117.851V9.51075H117.815V9.54648H117.779V9.5822H117.744V9.65366H117.708V9.68938H117.672V9.72511H117.636V9.79656H117.6V9.83228H117.565V9.86801H117.529V9.90374H117.493V9.93946H117.457V9.97519H117.422V10.0109H117.386V10.0824H117.35V10.1181H117.314V10.1538H117.278V10.1895H117.243V10.2253H117.207V10.261H117.171V10.2967H117.135V10.3324H117.1V10.3682H117.064V10.4039H117.028V10.4396H116.992V10.4753H116.921V10.5111H116.885V10.5468H116.849V10.5825H116.813V10.6183H116.778V10.654H116.742V10.6897H116.67V10.7254H116.634V10.7612H116.599V10.7969H116.527V10.8326H116.491V10.8683H116.456V10.9041H116.384V10.9398H116.348V10.9755H116.312V11.0112H116.241V11.047H116.169V11.0827H116.134V11.1184H116.062V11.1541H115.99V11.1899H115.955V11.2256H115.883V11.2613H115.811V11.297H115.74V11.3328H115.668V11.3685H115.597V11.4042H115.525V11.4399H115.454V11.4757H115.382V11.5114H115.311V11.5471H115.203V11.5828H115.096V11.6186H115.024V11.6543H114.917V11.69H114.81V11.7257H114.702V11.7615H114.559V11.7972H114.416V11.8329H114.273V11.8687H114.094V11.9044H113.844V11.9401H113.557V11.9758" fill="white"/>
</g>
</g>
</g>
</g>
</g>
</g>
</g>
<path id="path114" d="M29.4961 79.1436H30.8424L34.35 87.208L37.8575 79.1436H39.1359V88.7556H38.2386V80.2843H38.2114L34.5405 88.7556H34.146L30.4206 80.2843H30.3938V88.7556H29.4961V79.1436Z" fill="white"/>
<path id="path116" d="M46.6424 85.0901C46.6424 84.8096 46.5859 84.5466 46.4725 84.3027C46.3591 84.058 46.2052 83.8436 46.0102 83.6578C45.8152 83.4724 45.5841 83.3253 45.3168 83.2166C45.0492 83.108 44.7662 83.0537 44.4671 83.0537C44.0231 83.0537 43.6535 83.1444 43.359 83.3253C43.0642 83.506 42.8309 83.7142 42.6588 83.9496C42.4867 84.1851 42.364 84.4134 42.2917 84.6353C42.2191 84.8572 42.183 85.0083 42.183 85.0901H46.6424ZM47.2679 87.5744C46.9505 88.0542 46.5587 88.3983 46.0918 88.6061C45.6249 88.8141 45.1107 88.9185 44.5487 88.9185C44.0681 88.9185 43.6331 88.8367 43.2434 88.6741C42.8535 88.5111 42.5182 88.2829 42.2373 87.9882C41.9565 87.6944 41.7411 87.3458 41.5915 86.9432C41.442 86.5406 41.3672 86.0947 41.3672 85.6056C41.3672 85.1354 41.4441 84.701 41.5987 84.3027C41.7522 83.9047 41.9701 83.5582 42.2509 83.2642C42.5318 82.9697 42.8628 82.7393 43.2434 82.5717C43.6241 82.4042 44.0456 82.3206 44.5079 82.3206C44.988 82.3206 45.412 82.4042 45.7791 82.5717C46.1466 82.7393 46.4542 82.9608 46.7036 83.2367C46.9527 83.5131 47.1408 83.8275 47.2679 84.1805C47.3949 84.5331 47.4586 84.8906 47.4586 85.2529V85.8232H42.183C42.183 85.9949 42.2169 86.2143 42.2853 86.4816C42.3529 86.7488 42.4774 87.0089 42.6588 87.2622C42.8399 87.5155 43.0824 87.7327 43.3862 87.9135C43.6896 88.095 44.0817 88.1854 44.5623 88.1854C44.9791 88.1854 45.3827 88.086 45.7723 87.8867C46.1619 87.6873 46.461 87.4162 46.6696 87.0722L47.2679 87.5744Z" fill="white"/>
<path id="path118" d="M55.1271 85.6191C55.1271 85.2666 55.0595 84.9336 54.9231 84.6213C54.7872 84.3091 54.6011 84.038 54.3657 83.8072C54.1299 83.5763 53.8537 83.3931 53.5364 83.2573C53.219 83.1215 52.8748 83.0537 52.5031 83.0537C52.1227 83.0537 51.7778 83.1215 51.4698 83.2573C51.1617 83.3931 50.8987 83.5763 50.6812 83.8072C50.4637 84.038 50.2984 84.3091 50.1853 84.6213C50.0715 84.9336 50.015 85.2666 50.015 85.6191C50.015 85.9725 50.0715 86.3048 50.1853 86.6169C50.2984 86.9293 50.4637 87.2011 50.6812 87.4319C50.8987 87.6626 51.1617 87.846 51.4698 87.9818C51.7778 88.1174 52.1227 88.1854 52.5031 88.1854C52.8748 88.1854 53.219 88.1174 53.5364 87.9818C53.8537 87.846 54.1299 87.6626 54.3657 87.4319C54.6011 87.2011 54.7872 86.9293 54.9231 86.6169C55.0595 86.3048 55.1271 85.9725 55.1271 85.6191ZM55.0459 87.6559H55.0183C54.8913 87.8731 54.7332 88.0606 54.5425 88.2193C54.3521 88.3775 54.146 88.509 53.9238 88.6127C53.7017 88.7169 53.4684 88.7937 53.2236 88.8438C52.9789 88.8931 52.7385 88.9185 52.5031 88.9185C52.0225 88.9185 51.5785 88.8367 51.171 88.6741C50.7628 88.5111 50.4136 88.2829 50.1241 87.9882C49.8336 87.6944 49.6071 87.3458 49.444 86.9432C49.2808 86.5406 49.1992 86.0993 49.1992 85.6191C49.1992 85.14 49.2808 84.6985 49.444 84.2955C49.6071 83.8929 49.8336 83.5445 50.1241 83.2505C50.4136 82.9562 50.7628 82.7278 51.171 82.565C51.5785 82.402 52.0225 82.3206 52.5031 82.3206C52.7385 82.3206 52.9789 82.3452 53.2236 82.3953C53.4684 82.4453 53.7017 82.5221 53.9238 82.6261C54.146 82.7304 54.3521 82.8615 54.5425 83.0198C54.7332 83.1781 54.8913 83.3659 55.0183 83.5832H55.0459V78.4923H55.8613V88.7556H55.0459V87.6559Z" fill="white"/>
<path id="path120" d="M58.282 82.4835H59.0976V88.7556H58.282V82.4835ZM58.0781 79.9992C58.0781 79.8274 58.1368 79.6822 58.2548 79.5647C58.3725 79.4472 58.5178 79.3882 58.6898 79.3882C58.8619 79.3882 59.0067 79.4472 59.1248 79.5647C59.2425 79.6822 59.3015 79.8274 59.3015 79.9992C59.3015 80.171 59.2425 80.3161 59.1248 80.4336C59.0067 80.5511 58.8619 80.6101 58.6898 80.6101C58.5178 80.6101 58.3725 80.5511 58.2548 80.4336C58.1368 80.3161 58.0781 80.171 58.0781 79.9992Z" fill="white"/>
<path id="path122" d="M66.9436 87.8323C66.6349 88.2035 66.2864 88.4769 65.8964 88.6537C65.5068 88.8303 65.0849 88.9185 64.6323 88.9185C64.1514 88.9185 63.7078 88.8367 63.2995 88.6741C62.8917 88.5111 62.5428 88.2829 62.2527 87.9882C61.9625 87.6944 61.736 87.3458 61.5729 86.9432C61.4097 86.5406 61.3281 86.0993 61.3281 85.6191C61.3281 85.14 61.4097 84.6985 61.5729 84.2955C61.736 83.8929 61.9625 83.5445 62.2527 83.2505C62.5428 82.9562 62.8917 82.7278 63.2995 82.565C63.7078 82.402 64.1514 82.3206 64.6323 82.3206C65.0946 82.3206 65.5225 82.4157 65.9168 82.6057C66.3111 82.7958 66.6624 83.0626 66.9705 83.4066L66.3182 83.8954C66.0821 83.6329 65.8238 83.427 65.5432 83.2777C65.2617 83.1284 64.9586 83.0537 64.6323 83.0537C64.2513 83.0537 63.9067 83.1215 63.5987 83.2573C63.2906 83.3931 63.0276 83.5763 62.8101 83.8072C62.5926 84.038 62.4273 84.3091 62.3138 84.6213C62.2004 84.9336 62.1442 85.2666 62.1442 85.6191C62.1442 85.9725 62.2004 86.3048 62.3138 86.6169C62.4273 86.9293 62.5926 87.2011 62.8101 87.4319C63.0276 87.6626 63.2906 87.846 63.5987 87.9818C63.9067 88.1174 64.2513 88.1854 64.6323 88.1854C64.9765 88.1854 65.2914 88.106 65.5769 87.9477C65.8624 87.7895 66.1096 87.579 66.3182 87.3161L66.9436 87.8323Z" fill="white"/>
<path id="path124" d="M71.742 85.6056C71.3974 85.6056 71.0643 85.6285 70.7427 85.6738C70.4207 85.7192 70.1309 85.7959 69.8725 85.9042C69.6139 86.0132 69.4078 86.1579 69.2539 86.3391C69.0997 86.5202 69.0228 86.7463 69.0228 87.0175C69.0228 87.2079 69.0657 87.3772 69.1516 87.5265C69.2382 87.6759 69.3491 87.7984 69.4851 87.8934C69.621 87.9882 69.7727 88.0606 69.9405 88.1107C70.108 88.1607 70.2779 88.1854 70.4504 88.1854C70.8855 88.1854 71.2432 88.1222 71.5245 87.9953C71.805 87.8685 72.0293 87.7031 72.1975 87.4998C72.3649 87.2961 72.4805 87.065 72.5442 86.8074C72.6075 86.5495 72.6393 86.289 72.6393 86.0268V85.6056H71.742ZM73.3735 86.1218C73.3735 86.4294 73.3757 86.7053 73.3803 86.9499C73.385 87.1943 73.3914 87.4205 73.4004 87.6284C73.4097 87.8366 73.4211 88.0313 73.4347 88.2125C73.4483 88.3936 73.4687 88.5745 73.4959 88.7556H72.7345C72.6801 88.4476 72.6529 88.1085 72.6529 87.7373H72.6254C72.39 88.1446 72.0976 88.4433 71.7488 88.6333C71.4 88.8234 70.9577 88.9185 70.4232 88.9185C70.1509 88.9185 69.8836 88.8845 69.621 88.8166C69.358 88.7488 69.1223 88.6402 68.9137 88.4909C68.7051 88.3414 68.5355 88.149 68.4042 87.9135C68.2725 87.6784 68.207 87.3933 68.207 87.0586C68.207 86.5787 68.3294 86.199 68.5741 85.9178C68.8189 85.6377 69.1201 85.427 69.4783 85.2868C69.8364 85.1464 70.2167 85.0557 70.6203 85.0154C71.0236 84.9747 71.3792 84.9543 71.6876 84.9543H72.6393V84.5742C72.6393 84.0312 72.4715 83.6421 72.1363 83.4066C71.801 83.1712 71.3792 83.0537 70.8719 83.0537C70.1466 83.0537 69.5076 83.2891 68.9548 83.7593L68.479 83.203C68.7781 82.9133 69.1498 82.6939 69.5938 82.5446C70.0378 82.3953 70.4636 82.3206 70.8719 82.3206C71.6332 82.3206 72.2404 82.4993 72.6937 82.8568C73.1467 83.2145 73.3735 83.7914 73.3735 84.5878V86.1218Z" fill="white"/>
<path id="path126" d="M75.9531 78.4923H76.7687V88.7556H75.9531V78.4923Z" fill="white"/>
<path id="path128" d="M84.2919 87.9406H86.3449C86.8705 87.9406 87.2944 87.8778 87.6161 87.751C87.9378 87.6245 88.185 87.4654 88.3571 87.2758C88.5295 87.0857 88.6447 86.8842 88.7038 86.6717C88.7628 86.4591 88.7921 86.2665 88.7921 86.0947C88.7921 85.7417 88.7245 85.4387 88.5886 85.1851C88.4523 84.9319 88.2759 84.7257 88.058 84.5675C87.8404 84.4092 87.5936 84.2934 87.317 84.2208C87.0408 84.1487 86.7617 84.1127 86.4808 84.1127H84.2919V87.9406ZM84.2919 83.2977H86.1545C86.6168 83.2977 86.9932 83.2416 87.283 83.1284C87.5732 83.0151 87.8 82.8772 87.9632 82.7143C88.1263 82.5515 88.2347 82.377 88.2895 82.1917C88.3435 82.0062 88.3707 81.8365 88.3707 81.6826C88.3707 81.3474 88.3141 81.0695 88.2011 80.8477C88.0873 80.6258 87.936 80.4497 87.7453 80.3182C87.5549 80.1867 87.3327 80.0942 87.0791 80.0395C86.8254 79.9856 86.5578 79.9584 86.2772 79.9584H84.2919V83.2977ZM83.3945 79.1436H86.1681C86.5309 79.1436 86.8977 79.1731 87.2694 79.2322C87.6411 79.2911 87.9742 79.4129 88.2687 79.5986C88.5632 79.7841 88.8036 80.042 88.9896 80.3725C89.175 80.703 89.268 81.1392 89.268 81.6826C89.268 82.1713 89.1231 82.5964 88.8329 82.9587C88.5428 83.3206 88.1127 83.5607 87.5413 83.6782V83.7053C87.8587 83.7325 88.1485 83.8072 88.4118 83.9293C88.6744 84.0515 88.9013 84.2144 89.0913 84.4182C89.2816 84.6213 89.4287 84.8639 89.5331 85.144C89.6373 85.4249 89.6895 85.7327 89.6895 86.0673C89.6895 86.6195 89.5829 87.0699 89.37 87.4183C89.1571 87.7666 88.8898 88.0407 88.5678 88.2393C88.2462 88.4387 87.897 88.5745 87.5209 88.6469C87.1449 88.7195 86.7935 88.7556 86.4672 88.7556H83.3945V79.1436Z" fill="white"/>
<path id="path130" d="M97.3176 86.9904C97.3176 87.1082 97.3223 87.2508 97.3312 87.4183C97.3405 87.5856 97.347 87.7556 97.352 87.9271C97.3563 88.0993 97.3631 88.26 97.3724 88.4094C97.3809 88.5587 97.386 88.6741 97.386 88.7556H96.5698C96.5609 88.5204 96.5541 88.294 96.5498 88.0764C96.5448 87.8595 96.5337 87.7191 96.5155 87.6559H96.475C96.3119 87.9999 96.04 88.2965 95.6593 88.5451C95.2786 88.7937 94.8342 88.9185 94.3269 88.9185C93.8374 88.9185 93.4363 88.8413 93.1236 88.6874C92.8109 88.534 92.5662 88.3325 92.3894 88.0835C92.2127 87.8348 92.0925 87.5473 92.0291 87.2215C91.9654 86.8956 91.9336 86.5608 91.9336 86.2166V82.4835H92.7497V86.1761C92.7497 86.4294 92.7719 86.676 92.8173 86.9157C92.8628 87.1558 92.9422 87.3708 93.0553 87.5609C93.1687 87.751 93.3275 87.9024 93.5311 88.0153C93.7354 88.1289 94.0006 88.1854 94.3269 88.1854C94.626 88.1854 94.909 88.1336 95.1766 88.0292C95.4439 87.9253 95.6746 87.7666 95.8696 87.5538C96.0646 87.3415 96.2189 87.0747 96.3319 86.7527C96.4453 86.4319 96.5022 86.054 96.5022 85.6191V82.4835H97.3176V86.9904Z" fill="white"/>
<path id="path132" d="M99.8417 87.1532C100.014 87.4883 100.267 87.7441 100.603 87.9206C100.938 88.097 101.291 88.1854 101.663 88.1854C101.836 88.1854 102.008 88.1582 102.18 88.1039C102.352 88.0496 102.507 87.9724 102.642 87.8731C102.778 87.7738 102.889 87.6537 102.975 87.5133C103.062 87.3733 103.105 87.2121 103.105 87.0314C103.105 86.7417 103.012 86.5248 102.826 86.3794C102.64 86.2351 102.411 86.1218 102.139 86.0403C101.867 85.9589 101.568 85.8886 101.242 85.8296C100.916 85.771 100.617 85.6803 100.345 85.5584C100.073 85.4363 99.8438 85.2666 99.6581 85.0493C99.4721 84.8318 99.3794 84.5245 99.3794 84.1262C99.3794 83.8182 99.4424 83.5514 99.5698 83.3253C99.6964 83.0991 99.8617 82.9108 100.066 82.7615C100.27 82.6122 100.499 82.5018 100.753 82.4292C101.006 82.357 101.265 82.3206 101.528 82.3206C102.044 82.3206 102.49 82.4157 102.867 82.6057C103.243 82.7958 103.535 83.0945 103.744 83.5017L103.01 83.9361C102.855 83.6464 102.663 83.427 102.432 83.2777C102.2 83.1284 101.899 83.0537 101.528 83.0537C101.382 83.0537 101.23 83.0762 101.072 83.1215C100.913 83.1669 100.771 83.2303 100.644 83.3113C100.516 83.3931 100.41 83.4971 100.324 83.6235C100.238 83.7506 100.195 83.8954 100.195 84.058C100.195 84.3387 100.288 84.5466 100.474 84.6824C100.66 84.8185 100.888 84.925 101.16 85.0019C101.432 85.0791 101.732 85.1439 102.058 85.1986C102.384 85.2529 102.683 85.3413 102.955 85.4634C103.227 85.5856 103.456 85.762 103.642 85.9924C103.827 86.2237 103.92 86.5516 103.92 86.9771C103.92 87.3026 103.859 87.5856 103.737 87.8256C103.615 88.0654 103.447 88.2667 103.234 88.4297C103.021 88.5926 102.778 88.7144 102.507 88.7962C102.235 88.8777 101.949 88.9185 101.65 88.9185C101.106 88.9185 100.61 88.8141 100.161 88.6061C99.7122 88.3983 99.3658 88.0764 99.1211 87.6424L99.8417 87.1532Z" fill="white"/>
<path id="path134" d="M106.028 82.4835H106.844V88.7556H106.028V82.4835ZM105.824 79.9992C105.824 79.8274 105.883 79.6822 106.001 79.5647C106.119 79.4472 106.264 79.3882 106.436 79.3882C106.608 79.3882 106.753 79.4472 106.871 79.5647C106.989 79.6822 107.048 79.8274 107.048 79.9992C107.048 80.171 106.989 80.3161 106.871 80.4336C106.753 80.5511 106.608 80.6101 106.436 80.6101C106.264 80.6101 106.119 80.5511 106.001 80.4336C105.883 80.3161 105.824 80.171 105.824 79.9992Z" fill="white"/>
<path id="path136" d="M109.432 84.2485C109.432 84.1305 109.427 83.9883 109.418 83.8204C109.409 83.6535 109.402 83.4836 109.397 83.3113C109.393 83.1398 109.386 82.9791 109.377 82.8298C109.368 82.6804 109.363 82.565 109.363 82.4835H110.179C110.188 82.7189 110.195 82.9451 110.199 83.1623C110.204 83.3796 110.215 83.5195 110.234 83.5832H110.274C110.437 83.2392 110.709 82.9429 111.09 82.694C111.471 82.4453 111.915 82.3207 112.422 82.3207C112.912 82.3207 113.31 82.3974 113.619 82.5515C113.927 82.7054 114.17 82.9069 114.346 83.1556C114.523 83.4046 114.645 83.6918 114.713 84.0176C114.782 84.3433 114.816 84.6786 114.816 85.0223V88.7556H114V85.0629C114 84.8096 113.977 84.5627 113.932 84.3231C113.886 84.0834 113.807 83.8683 113.694 83.6782C113.58 83.4881 113.422 83.3366 113.218 83.223C113.014 83.1101 112.749 83.0537 112.422 83.0537C112.123 83.0537 111.84 83.1059 111.573 83.2095C111.305 83.3139 111.074 83.4724 110.88 83.6846C110.685 83.8976 110.53 84.1647 110.417 84.486C110.304 84.8071 110.247 85.1851 110.247 85.6191V88.7556H109.432V84.2485Z" fill="white"/>
<path id="path138" d="M122.182 85.0901C122.182 84.8096 122.125 84.5466 122.012 84.3027C121.898 84.058 121.744 83.8436 121.549 83.6578C121.354 83.4724 121.123 83.3253 120.856 83.2166C120.588 83.108 120.305 83.0537 120.006 83.0537C119.562 83.0537 119.193 83.1444 118.898 83.3253C118.603 83.506 118.37 83.7142 118.198 83.9496C118.026 84.1851 117.903 84.4134 117.831 84.6353C117.758 84.8572 117.722 85.0083 117.722 85.0901H122.182ZM122.807 87.5744C122.49 88.0542 122.098 88.3983 121.631 88.6061C121.164 88.8141 120.65 88.9185 120.088 88.9185C119.607 88.9185 119.172 88.8367 118.782 88.6741C118.393 88.5111 118.057 88.2829 117.776 87.9882C117.496 87.6944 117.28 87.3458 117.131 86.9432C116.981 86.5406 116.906 86.0947 116.906 85.6056C116.906 85.1354 116.983 84.701 117.138 84.3027C117.291 83.9047 117.509 83.5582 117.79 83.2642C118.071 82.9697 118.402 82.7393 118.782 82.5717C119.163 82.4042 119.585 82.3206 120.047 82.3206C120.527 82.3206 120.951 82.4042 121.318 82.5717C121.686 82.7393 121.993 82.9608 122.243 83.2367C122.492 83.5131 122.68 83.8275 122.807 84.1805C122.934 84.5331 122.998 84.8906 122.998 85.2529V85.8232H117.722C117.722 85.9949 117.756 86.2143 117.824 86.4816C117.892 86.7488 118.016 87.0089 118.198 87.2622C118.379 87.5155 118.621 87.7327 118.925 87.9135C119.229 88.095 119.621 88.1854 120.101 88.1854C120.518 88.1854 120.922 88.086 121.311 87.8867C121.701 87.6873 122 87.4162 122.209 87.0722L122.807 87.5744Z" fill="white"/>
<path id="path140" d="M125.103 87.1532C125.276 87.4883 125.53 87.7441 125.865 87.9206C126.2 88.097 126.554 88.1854 126.925 88.1854C127.097 88.1854 127.27 88.1582 127.442 88.1039C127.614 88.0496 127.768 87.9724 127.904 87.8731C128.04 87.7738 128.151 87.6537 128.237 87.5133C128.324 87.3733 128.366 87.2121 128.366 87.0314C128.366 86.7417 128.274 86.5248 128.088 86.3794C127.902 86.2351 127.673 86.1218 127.401 86.0403C127.129 85.9589 126.83 85.8886 126.504 85.8296C126.177 85.771 125.878 85.6803 125.606 85.5584C125.335 85.4363 125.106 85.2666 124.92 85.0493C124.734 84.8318 124.641 84.5245 124.641 84.1262C124.641 83.8182 124.704 83.5514 124.831 83.3253C124.958 83.0991 125.124 82.9108 125.328 82.7615C125.532 82.6122 125.761 82.5018 126.014 82.4292C126.268 82.357 126.527 82.3206 126.789 82.3206C127.306 82.3206 127.752 82.4157 128.129 82.6057C128.505 82.7958 128.797 83.0945 129.005 83.5017L128.272 83.9361C128.117 83.6464 127.925 83.427 127.693 83.2777C127.462 83.1284 127.161 83.0537 126.789 83.0537C126.644 83.0537 126.492 83.0762 126.334 83.1215C126.175 83.1669 126.033 83.2303 125.906 83.3113C125.779 83.3931 125.672 83.4971 125.586 83.6235C125.5 83.7506 125.457 83.8954 125.457 84.058C125.457 84.3387 125.55 84.5466 125.736 84.6824C125.921 84.8185 126.15 84.925 126.423 85.0019C126.694 85.0791 126.993 85.1439 127.32 85.1986C127.646 85.2529 127.945 85.3413 128.217 85.4634C128.489 85.5856 128.718 85.762 128.903 85.9924C129.089 86.2237 129.183 86.5516 129.183 86.9771C129.183 87.3026 129.121 87.5856 128.999 87.8256C128.876 88.0654 128.708 88.2667 128.496 88.4297C128.283 88.5926 128.04 88.7144 127.768 88.7962C127.497 88.8777 127.211 88.9185 126.912 88.9185C126.368 88.9185 125.872 88.8141 125.423 88.6061C124.974 88.3983 124.628 88.0764 124.383 87.6424L125.103 87.1532Z" fill="white"/>
<path id="path142" d="M131.17 87.1532C131.342 87.4883 131.596 87.7441 131.931 87.9206C132.266 88.097 132.62 88.1854 132.992 88.1854C133.164 88.1854 133.336 88.1582 133.508 88.1039C133.68 88.0496 133.835 87.9724 133.971 87.8731C134.107 87.7738 134.217 87.6537 134.304 87.5133C134.39 87.3733 134.433 87.2121 134.433 87.0314C134.433 86.7417 134.34 86.5248 134.154 86.3794C133.968 86.2351 133.739 86.1218 133.468 86.0403C133.196 85.9589 132.897 85.8886 132.57 85.8296C132.244 85.771 131.945 85.6803 131.673 85.5584C131.401 85.4363 131.172 85.2666 130.986 85.0493C130.8 84.8318 130.708 84.5245 130.708 84.1262C130.708 83.8182 130.771 83.5514 130.898 83.3253C131.025 83.0991 131.19 82.9108 131.394 82.7615C131.598 82.6122 131.827 82.5018 132.081 82.4292C132.334 82.357 132.593 82.3206 132.856 82.3206C133.372 82.3206 133.819 82.4157 134.195 82.6057C134.571 82.7958 134.863 83.0945 135.072 83.5017L134.338 83.9361C134.183 83.6464 133.991 83.427 133.76 83.2777C133.529 83.1284 133.227 83.0537 132.856 83.0537C132.71 83.0537 132.559 83.0762 132.4 83.1215C132.242 83.1669 132.099 83.2303 131.972 83.3113C131.845 83.3931 131.738 83.4971 131.652 83.6235C131.566 83.7506 131.523 83.8954 131.523 84.058C131.523 84.3387 131.616 84.5466 131.802 84.6824C131.988 84.8185 132.217 84.925 132.489 85.0019C132.761 85.0791 133.06 85.1439 133.386 85.1986C133.712 85.2529 134.011 85.3413 134.283 85.4634C134.555 85.5856 134.784 85.762 134.97 85.9924C135.156 86.2237 135.249 86.5516 135.249 86.9771C135.249 87.3026 135.187 87.5856 135.065 87.8256C134.943 88.0654 134.775 88.2667 134.562 88.4297C134.349 88.5926 134.107 88.7144 133.835 88.7962C133.563 88.8777 133.277 88.9185 132.978 88.9185C132.434 88.9185 131.938 88.8141 131.489 88.6061C131.041 88.3983 130.694 88.0764 130.449 87.6424L131.17 87.1532Z" fill="white"/>
<path id="path144" d="M141.512 86.9776C141.748 87.3848 142.054 87.6878 142.431 87.8872C142.807 88.0865 143.234 88.1858 143.715 88.1858C144.014 88.1858 144.295 88.1405 144.558 88.0501C144.821 87.9596 145.05 87.8328 145.245 87.6699C145.44 87.5071 145.594 87.3101 145.707 87.079C145.82 86.8486 145.877 86.5881 145.877 86.2988C145.877 85.964 145.807 85.6878 145.666 85.4703C145.525 85.2534 145.338 85.0748 145.102 84.9341C144.866 84.794 144.601 84.6744 144.306 84.5746C144.012 84.475 143.708 84.3756 143.395 84.276C143.083 84.1763 142.779 84.0634 142.485 83.9366C142.19 83.8097 141.925 83.6448 141.69 83.441C141.453 83.2371 141.266 82.982 141.125 82.6738C140.985 82.3664 140.915 81.9863 140.915 81.5337C140.915 81.1085 140.998 80.7306 141.166 80.4001C141.333 80.0697 141.56 79.7938 141.846 79.572C142.131 79.3504 142.46 79.183 142.832 79.0693C143.203 78.9565 143.593 78.8999 144.001 78.8999C144.526 78.8999 145.014 78.9929 145.462 79.1782C145.911 79.3641 146.298 79.6738 146.625 80.1082L145.85 80.6645C145.623 80.3482 145.358 80.1107 145.055 79.952C144.75 79.7938 144.39 79.7145 143.973 79.7145C143.684 79.7145 143.407 79.7532 143.144 79.8295C142.881 79.9067 142.652 80.02 142.457 80.1693C142.262 80.3186 142.106 80.5066 141.988 80.7327C141.871 80.9592 141.812 81.226 141.812 81.5337C141.812 82.0135 141.934 82.3822 142.179 82.6401C142.423 82.8977 142.73 83.1016 143.096 83.2509C143.464 83.4004 143.862 83.5319 144.293 83.6448C144.723 83.758 145.122 83.9091 145.49 84.0994C145.856 84.2895 146.162 84.5543 146.407 84.8936C146.652 85.2328 146.774 85.7015 146.774 86.2988C146.774 86.7332 146.693 87.118 146.53 87.4523C146.367 87.7874 146.147 88.0704 145.87 88.3008C145.594 88.5319 145.274 88.7064 144.911 88.8239C144.549 88.9411 144.173 89 143.783 89C143.149 89 142.564 88.8892 142.029 88.6677C141.495 88.4463 141.037 88.0729 140.656 87.5478L141.512 86.9776Z" fill="white"/>
<path id="path146" d="M149.32 85.6191C149.32 85.9725 149.376 86.3048 149.49 86.6169C149.603 86.9293 149.768 87.2011 149.986 87.4319C150.203 87.6626 150.466 87.846 150.774 87.9818C151.082 88.1174 151.427 88.1854 151.808 88.1854C152.188 88.1854 152.533 88.1174 152.841 87.9818C153.149 87.846 153.412 87.6626 153.63 87.4319C153.847 87.2011 154.012 86.9293 154.126 86.6169C154.239 86.3048 154.296 85.9725 154.296 85.6191C154.296 85.2666 154.239 84.9336 154.126 84.6213C154.012 84.3091 153.847 84.038 153.63 83.8072C153.412 83.5763 153.149 83.3931 152.841 83.2573C152.533 83.1215 152.188 83.0537 151.808 83.0537C151.427 83.0537 151.082 83.1215 150.774 83.2573C150.466 83.3931 150.203 83.5763 149.986 83.8072C149.768 84.038 149.603 84.3091 149.49 84.6213C149.376 84.9336 149.32 85.2666 149.32 85.6191ZM148.504 85.6191C148.504 85.14 148.585 84.6985 148.748 84.2955C148.911 83.8929 149.138 83.5445 149.428 83.2505C149.718 82.9562 150.067 82.7278 150.475 82.565C150.883 82.402 151.327 82.3206 151.808 82.3206C152.288 82.3206 152.73 82.402 153.133 82.565C153.537 82.7278 153.885 82.9562 154.18 83.2505C154.474 83.5445 154.704 83.8929 154.867 84.2955C155.03 84.6985 155.111 85.14 155.111 85.6191C155.111 86.0993 155.03 86.5406 154.867 86.9432C154.704 87.3458 154.474 87.6944 154.18 87.9882C153.885 88.2829 153.537 88.5111 153.133 88.6741C152.73 88.8367 152.288 88.9185 151.808 88.9185C151.327 88.9185 150.883 88.8367 150.475 88.6741C150.067 88.5111 149.718 88.2829 149.428 87.9882C149.138 87.6944 148.911 87.3458 148.748 86.9432C148.585 86.5406 148.504 86.0993 148.504 85.6191Z" fill="white"/>
<path id="path148" d="M157.34 78.4923H158.155V88.7556H157.34V78.4923Z" fill="white"/>
<path id="path150" d="M166.056 86.9904C166.056 87.1082 166.061 87.2508 166.069 87.4183C166.078 87.5856 166.085 87.7556 166.09 87.9271C166.095 88.0993 166.101 88.26 166.11 88.4094C166.119 88.5587 166.124 88.6741 166.124 88.7556H165.308C165.299 88.5204 165.292 88.294 165.288 88.0764C165.283 87.8595 165.272 87.7191 165.254 87.6559H165.213C165.05 87.9999 164.778 88.2965 164.397 88.5451C164.017 88.7937 163.572 88.9185 163.065 88.9185C162.575 88.9185 162.174 88.8413 161.862 88.6874C161.549 88.534 161.304 88.3325 161.127 88.0835C160.951 87.8348 160.83 87.5473 160.767 87.2215C160.703 86.8956 160.672 86.5608 160.672 86.2166V82.4835H161.488V86.1761C161.488 86.4294 161.51 86.676 161.556 86.9157C161.601 87.1558 161.68 87.3708 161.794 87.5609C161.907 87.751 162.065 87.9024 162.269 88.0153C162.473 88.1289 162.738 88.1854 163.065 88.1854C163.364 88.1854 163.647 88.1336 163.915 88.0292C164.182 87.9253 164.413 87.7666 164.608 87.5538C164.803 87.3415 164.957 87.0747 165.07 86.7527C165.184 86.4319 165.24 86.054 165.24 85.6191V82.4835H166.056V86.9904Z" fill="white"/>
<path id="path152" d="M171.645 83.2166H169.851V87.3026C169.851 87.5833 169.928 87.8006 170.081 87.9546C170.236 88.1085 170.449 88.1854 170.72 88.1854C170.874 88.1854 171.031 88.1646 171.19 88.1243C171.348 88.0835 171.5 88.0313 171.645 87.9681L171.713 88.7009C171.558 88.7556 171.382 88.8049 171.182 88.8502C170.983 88.8956 170.807 88.9185 170.653 88.9185C170.362 88.9185 170.113 88.8756 169.905 88.7891C169.696 88.7034 169.529 88.588 169.402 88.4433C169.275 88.2983 169.182 88.1289 169.123 87.9342C169.064 87.7395 169.035 87.5291 169.035 87.3026V83.2166H167.676V82.4835H169.035V80.6775H169.851V82.4835H171.645V83.2166Z" fill="white"/>
<path id="path154" d="M173.525 82.4835H174.34V88.7556H173.525V82.4835ZM173.32 79.9992C173.32 79.8274 173.379 79.6822 173.497 79.5647C173.615 79.4472 173.76 79.3882 173.932 79.3882C174.104 79.3882 174.249 79.4472 174.367 79.5647C174.485 79.6822 174.544 79.8274 174.544 79.9992C174.544 80.171 174.485 80.3161 174.367 80.4336C174.249 80.5511 174.104 80.6101 173.932 80.6101C173.76 80.6101 173.615 80.5511 173.497 80.4336C173.379 80.3161 173.32 80.171 173.32 79.9992Z" fill="white"/>
<path id="path156" d="M177.383 85.6191C177.383 85.9725 177.439 86.3048 177.552 86.6169C177.666 86.9293 177.831 87.2011 178.049 87.4319C178.266 87.6626 178.529 87.846 178.837 87.9818C179.145 88.1174 179.49 88.1854 179.871 88.1854C180.251 88.1854 180.595 88.1174 180.904 87.9818C181.212 87.846 181.475 87.6626 181.692 87.4319C181.91 87.2011 182.075 86.9293 182.189 86.6169C182.302 86.3048 182.359 85.9725 182.359 85.6191C182.359 85.2666 182.302 84.9336 182.189 84.6213C182.075 84.3091 181.91 84.038 181.692 83.8072C181.475 83.5763 181.212 83.3931 180.904 83.2573C180.595 83.1215 180.251 83.0537 179.871 83.0537C179.49 83.0537 179.145 83.1215 178.837 83.2573C178.529 83.3931 178.266 83.5763 178.049 83.8072C177.831 84.038 177.666 84.3091 177.552 84.6213C177.439 84.9336 177.383 85.2666 177.383 85.6191ZM176.566 85.6191C176.566 85.14 176.648 84.6985 176.811 84.2955C176.975 83.8929 177.201 83.5445 177.491 83.2505C177.781 82.9562 178.13 82.7278 178.538 82.565C178.946 82.402 179.39 82.3206 179.871 82.3206C180.351 82.3206 180.793 82.402 181.196 82.565C181.599 82.7278 181.948 82.9562 182.243 83.2505C182.538 83.5445 182.766 83.8929 182.929 84.2955C183.093 84.6985 183.174 85.14 183.174 85.6191C183.174 86.0993 183.093 86.5406 182.929 86.9432C182.766 87.3458 182.538 87.6944 182.243 87.9882C181.948 88.2829 181.599 88.5111 181.196 88.6741C180.793 88.8367 180.351 88.9185 179.871 88.9185C179.39 88.9185 178.946 88.8367 178.538 88.6741C178.13 88.5111 177.781 88.2829 177.491 87.9882C177.201 87.6944 176.975 87.3458 176.811 86.9432C176.648 86.5406 176.566 86.0993 176.566 85.6191Z" fill="white"/>
<path id="path158" d="M185.267 84.2485C185.267 84.1305 185.263 83.9883 185.254 83.8204C185.244 83.6535 185.238 83.4836 185.233 83.3113C185.229 83.1398 185.222 82.9791 185.213 82.8298C185.204 82.6804 185.199 82.565 185.199 82.4835H186.015C186.024 82.7189 186.03 82.9451 186.035 83.1623C186.04 83.3796 186.051 83.5195 186.069 83.5832H186.11C186.273 83.2392 186.545 82.9429 186.926 82.694C187.307 82.4453 187.751 82.3207 188.258 82.3207C188.748 82.3207 189.146 82.3974 189.455 82.5515C189.763 82.7054 190.005 82.9069 190.182 83.1556C190.359 83.4046 190.481 83.6918 190.549 84.0176C190.617 84.3433 190.651 84.6786 190.651 85.0223V88.7556H189.835V85.0629C189.835 84.8096 189.813 84.5627 189.767 84.3231C189.722 84.0834 189.643 83.8683 189.53 83.6782C189.416 83.4881 189.258 83.3366 189.054 83.223C188.85 83.1101 188.585 83.0537 188.258 83.0537C187.959 83.0537 187.676 83.1059 187.409 83.2095C187.141 83.3139 186.91 83.4724 186.715 83.6846C186.52 83.8976 186.366 84.1647 186.253 84.486C186.139 84.8071 186.083 85.1851 186.083 85.6191V88.7556H185.267V84.2485Z" fill="white"/>
<path id="path160" d="M193.111 87.1532C193.283 87.4883 193.537 87.7441 193.872 87.9206C194.208 88.097 194.561 88.1854 194.933 88.1854C195.105 88.1854 195.277 88.1582 195.45 88.1039C195.621 88.0496 195.776 87.9724 195.912 87.8731C196.048 87.7738 196.159 87.6537 196.245 87.5133C196.331 87.3733 196.374 87.2121 196.374 87.0314C196.374 86.7417 196.281 86.5248 196.095 86.3794C195.909 86.2351 195.68 86.1218 195.409 86.0403C195.137 85.9589 194.838 85.8886 194.511 85.8296C194.185 85.771 193.886 85.6803 193.614 85.5584C193.342 85.4363 193.113 85.2666 192.928 85.0493C192.742 84.8318 192.649 84.5245 192.649 84.1262C192.649 83.8182 192.712 83.5514 192.839 83.3253C192.966 83.0991 193.131 82.9108 193.335 82.7615C193.539 82.6122 193.768 82.5018 194.022 82.4292C194.275 82.357 194.534 82.3206 194.797 82.3206C195.314 82.3206 195.76 82.4157 196.136 82.6057C196.512 82.7958 196.805 83.0945 197.013 83.5017L196.279 83.9361C196.125 83.6464 195.932 83.427 195.701 83.2777C195.47 83.1284 195.169 83.0537 194.797 83.0537C194.652 83.0537 194.5 83.0762 194.342 83.1215C194.183 83.1669 194.04 83.2303 193.913 83.3113C193.786 83.3931 193.68 83.4971 193.594 83.6235C193.508 83.7506 193.465 83.8954 193.465 84.058C193.465 84.3387 193.557 84.5466 193.743 84.6824C193.929 84.8185 194.158 84.925 194.43 85.0019C194.702 85.0791 195.001 85.1439 195.327 85.1986C195.654 85.2529 195.953 85.3413 196.225 85.4634C196.496 85.5856 196.725 85.762 196.911 85.9924C197.097 86.2237 197.19 86.5516 197.19 86.9771C197.19 87.3026 197.129 87.5856 197.006 87.8256C196.884 88.0654 196.716 88.2667 196.503 88.4297C196.29 88.5926 196.048 88.7144 195.776 88.7962C195.504 88.8777 195.218 88.9185 194.919 88.9185C194.376 88.9185 193.879 88.8141 193.431 88.6061C192.982 88.3983 192.635 88.0764 192.391 87.6424L193.111 87.1532Z" fill="white"/>
<path id="path162" d="M3.21145 60.5508H8.28857V63.0734H3.21145V70.1471H0V54.3492H9.89429C9.92575 54.5225 9.94517 54.6675 9.95329 54.7854C9.96095 54.9034 9.96503 55.0488 9.96503 55.222C9.96503 55.6932 9.82721 56.0862 9.55189 56.4006C9.27614 56.7153 8.77634 56.8722 8.05239 56.8722H3.21145V60.5508Z" fill="white"/>
<path id="path164" d="M17.5668 63.3565C17.5668 62.6019 17.4202 61.9888 17.1273 61.5175C16.8344 61.0457 16.3077 60.8099 15.5481 60.8099C14.8988 60.8099 14.3803 61.0339 13.9926 61.4818C13.6045 61.9299 13.4106 62.5547 13.4106 63.3565H17.5668ZM16.4908 68.143C16.8856 68.143 17.2332 68.0997 17.5336 68.0132C17.8336 67.9271 18.1021 67.8211 18.339 67.6953C18.5759 67.5692 18.7814 67.432 18.9552 67.2824C19.129 67.1331 19.2869 66.9957 19.4293 66.8697C19.6185 67.1054 19.8159 67.4084 20.0216 67.7775C20.2266 68.1469 20.3297 68.4495 20.3297 68.6853C20.3297 69.0314 20.1324 69.3456 19.7393 69.6284C19.4088 69.8803 18.9401 70.0965 18.3343 70.2769C17.7281 70.4572 17.0155 70.5481 16.1972 70.5481C15.457 70.5481 14.729 70.4537 14.0128 70.2651C13.2963 70.0764 12.6587 69.7463 12.1001 69.2748C11.5411 68.8032 11.0883 68.1708 10.7423 67.3766C10.3958 66.5832 10.2227 65.5811 10.2227 64.3703C10.2227 63.38 10.3763 62.5277 10.6833 61.812C10.9902 61.0971 11.3994 60.5034 11.9112 60.0317C12.4226 59.5602 13.0013 59.2148 13.647 58.9943C14.2922 58.7746 14.9533 58.6642 15.6304 58.6642C16.5118 58.6642 17.2596 58.8021 17.8737 59.0772C18.4877 59.352 18.9874 59.7217 19.3732 60.1851C19.7589 60.6491 20.0381 61.1793 20.2114 61.7766C20.3846 62.3743 20.4712 63.0027 20.4712 63.6629C20.4712 63.7573 20.4712 63.8677 20.4712 63.9931C20.4712 64.1191 20.4673 64.2524 20.4596 64.3939C20.4514 64.5354 20.4437 64.6733 20.436 64.8066C20.4278 64.9405 20.416 65.0466 20.4005 65.1249H13.4342C13.4974 65.9894 13.766 66.709 14.2398 67.2824C14.7136 67.8565 15.464 68.143 16.4908 68.143Z" fill="white"/>
<path id="path166" d="M26.0467 70.2887C25.9677 70.3201 25.8182 70.3437 25.598 70.3597C25.3774 70.3752 25.1335 70.3831 24.8662 70.3831C24.5983 70.3831 24.3427 70.3555 24.0988 70.3009C23.8547 70.2452 23.6384 70.1437 23.4496 69.994C23.2609 69.8446 23.1109 69.6445 23.0011 69.3931C22.8907 69.1412 22.8359 68.8189 22.8359 68.4259V53.5244C22.8359 53.5086 22.954 53.4887 23.1899 53.4655C23.426 53.4415 23.6698 53.4298 23.9218 53.4298C24.1734 53.4298 24.4252 53.4534 24.6773 53.5004C24.9288 53.5475 25.1573 53.6384 25.362 53.7717C25.5664 53.9052 25.7316 54.0939 25.8577 54.3376C25.9835 54.5815 26.0467 54.8998 26.0467 55.2924V70.2887Z" fill="white"/>
<path id="path168" d="M32.2812 70.2887C32.2023 70.3201 32.0527 70.3437 31.8325 70.3597C31.6119 70.3752 31.3681 70.3831 31.1006 70.3831C30.8329 70.3831 30.5772 70.3555 30.3334 70.3009C30.0893 70.2452 29.8729 70.1437 29.6841 69.994C29.4952 69.8446 29.3455 69.6445 29.2356 69.3931C29.1252 69.1412 29.0703 68.8189 29.0703 68.4259V53.5244C29.0703 53.5086 29.1884 53.4887 29.4244 53.4655C29.6605 53.4415 29.9044 53.4298 30.1563 53.4298C30.408 53.4298 30.6598 53.4534 30.9118 53.5004C31.1634 53.5475 31.3918 53.6384 31.5965 53.7717C31.8008 53.9052 31.9661 54.0939 32.0923 54.3376C32.2179 54.5815 32.2812 54.8998 32.2812 55.2924V70.2887Z" fill="white"/>
<path id="path170" d="M42.2663 64.5349C42.2663 64.1104 42.2345 63.6903 42.1711 63.2737C42.1078 62.8572 41.9894 62.4917 41.8151 62.177C41.6409 61.8626 41.4037 61.6075 41.1035 61.4107C40.8026 61.2145 40.423 61.1163 39.9643 61.1163C39.5053 61.1163 39.1217 61.2184 38.8129 61.4224C38.5049 61.6267 38.2591 61.8905 38.0773 62.2123C37.8952 62.5345 37.7646 62.9004 37.6855 63.3088C37.6065 63.7178 37.5671 64.1339 37.5671 64.5585C37.5671 64.9828 37.6025 65.4072 37.6737 65.8318C37.7449 66.2561 37.8673 66.6377 38.0415 66.9753C38.2158 67.3135 38.4569 67.5847 38.7657 67.7887C39.0741 67.9935 39.4577 68.0953 39.9167 68.0953C40.3911 68.0953 40.7829 67.9935 41.0913 67.7887C41.4001 67.5847 41.6409 67.3135 41.8151 66.9753C41.9894 66.6377 42.1078 66.2561 42.1711 65.8318C42.2345 65.4072 42.2663 64.975 42.2663 64.5349ZM45.4778 64.5113C45.4778 65.2976 45.3794 66.0521 45.1827 66.7748C44.9855 67.4983 44.6632 68.1345 44.2145 68.6848C43.7658 69.2353 43.1873 69.6755 42.4788 70.0051C41.7704 70.3353 40.9124 70.5004 39.9049 70.5004C38.8974 70.5004 38.043 70.3389 37.3428 70.0174C36.6419 69.695 36.0712 69.2624 35.6307 68.7201C35.1899 68.1778 34.867 67.549 34.6627 66.8338C34.4578 66.1185 34.3555 65.3683 34.3555 64.582C34.3555 63.7807 34.4736 63.0218 34.7098 62.3071C34.946 61.5917 35.2961 60.9626 35.7607 60.4203C36.2247 59.878 36.8114 59.4497 37.5199 59.1355C38.2283 58.8213 39.0548 58.6637 39.9994 58.6637C40.9912 58.6637 41.837 58.8213 42.5379 59.1355C43.2381 59.4497 43.8048 59.8745 44.2381 60.4086C44.671 60.9431 44.9855 61.5639 45.1827 62.2713C45.3794 62.9786 45.4778 63.7253 45.4778 64.5113Z" fill="white"/>
<path id="path172" d="M59.4336 70.2646H56.9305L55.0174 65.148L52.8217 70.2646H50.5544L46.4219 59.2061C46.7052 59.1118 47.0008 59.0374 47.3078 58.9821C47.6144 58.9274 47.8781 58.8995 48.0985 58.8995C48.5865 58.8995 48.9998 59.0021 49.3382 59.2061C49.6767 59.4105 49.9325 59.7567 50.1057 60.2436L52.231 66.6099L53.8135 62.7666L52.68 59.1589C52.9787 59.0646 53.2582 58.9982 53.5179 58.9586C53.778 58.9196 54.0335 58.8995 54.2854 58.8995C54.6947 58.8995 55.045 59.0021 55.3362 59.2061C55.6275 59.4105 55.8439 59.7409 55.9856 60.1964L58.0164 66.3741L59.5513 61.0453C59.7406 60.354 59.9843 59.8231 60.2837 59.4537C60.5825 59.0846 61.0312 58.8995 61.6294 58.8995C61.9442 58.8995 62.2316 58.9274 62.4917 58.9821C62.7514 59.0374 63.0069 59.1118 63.2591 59.2061L59.4336 70.2646Z" fill="white"/>
<path id="path174" d="M73.5592 60.7864H79.5572V54.3733C79.6817 54.3575 79.8144 54.3418 79.9554 54.3257C80.0803 54.3104 80.2094 54.2946 80.3422 54.2786C80.4753 54.2632 80.6037 54.255 80.7293 54.255C80.9322 54.255 81.1551 54.2786 81.3973 54.3257C81.6392 54.3733 81.8621 54.4633 82.0653 54.5969C82.2682 54.7309 82.4363 54.9152 82.5694 55.151C82.7022 55.3868 82.7687 55.7012 82.7687 56.0942V70.1472H79.5572V63.3094H73.5592V70.1472H70.3477V54.3733C70.4879 54.3575 70.6285 54.3418 70.7699 54.3257C70.8944 54.3104 71.0153 54.2946 71.1327 54.2786C71.25 54.2632 71.3634 54.255 71.4729 54.255C71.7073 54.255 71.9455 54.279 72.1874 54.3261C72.4296 54.3736 72.6525 54.4636 72.8558 54.598C73.0586 54.732 73.2272 54.9177 73.3599 55.1543C73.4926 55.3907 73.5592 55.7065 73.5592 56.1006V60.7864Z" fill="white"/>
<path id="path176" d="M92.1917 63.3565C92.1917 62.6019 92.045 61.9888 91.7523 61.5175C91.4593 61.0457 90.9326 60.8099 90.173 60.8099C89.5236 60.8099 89.0052 61.0339 88.6173 61.4818C88.2291 61.9299 88.0356 62.5547 88.0356 63.3565H92.1917ZM91.1158 68.143C91.5104 68.143 91.8582 68.0997 92.1584 68.0132C92.4586 67.9271 92.7269 67.8211 92.9638 67.6953C93.2006 67.5692 93.4063 67.432 93.5802 67.2824C93.7538 67.1331 93.9119 66.9957 94.0543 66.8697C94.2436 67.1054 94.4407 67.4084 94.6464 67.7775C94.8515 68.1469 94.9545 68.4495 94.9545 68.6853C94.9545 69.0314 94.7574 69.3456 94.3642 69.6284C94.0336 69.8803 93.5652 70.0965 92.9591 70.2769C92.353 70.4572 91.6403 70.5481 90.822 70.5481C90.0818 70.5481 89.354 70.4537 88.6377 70.2651C87.9211 70.0764 87.2835 69.7463 86.725 69.2748C86.1661 68.8032 85.7132 68.1708 85.3672 67.3766C85.0208 66.5832 84.8477 65.5811 84.8477 64.3703C84.8477 63.38 85.0011 62.5277 85.3081 61.812C85.6151 61.0971 86.0244 60.5034 86.5361 60.0317C87.0473 59.5602 87.6259 59.2148 88.2717 58.9943C88.9172 58.7746 89.578 58.6642 90.2553 58.6642C91.1365 58.6642 91.8847 58.8021 92.4986 59.0772C93.1126 59.352 93.6121 59.7217 93.9981 60.1851C94.3838 60.6491 94.6629 61.1793 94.8364 61.7766C95.0096 62.3743 95.0962 63.0027 95.0962 63.6629C95.0962 63.7573 95.0962 63.8677 95.0962 63.9931C95.0962 64.1191 95.0923 64.2524 95.0844 64.3939C95.0762 64.5354 95.0686 64.6733 95.0608 64.8066C95.0525 64.9405 95.0411 65.0466 95.0254 65.1249H88.0592C88.1222 65.9894 88.3909 66.709 88.8646 67.2824C89.3386 67.8565 90.0889 68.143 91.1158 68.143Z" fill="white"/>
<path id="path178" d="M103.618 64.6769C103.507 64.6769 103.397 64.6769 103.287 64.6769C103.177 64.6769 103.067 64.685 102.956 64.7004C102.563 64.7322 102.173 64.7791 101.788 64.8419C101.402 64.9048 101.059 65.0152 100.76 65.172C100.461 65.3296 100.217 65.5339 100.028 65.7851C99.8394 66.0366 99.7449 66.3588 99.7449 66.7518C99.7449 67.1919 99.8709 67.5653 100.123 67.8719C100.375 68.1783 100.8 68.3316 101.398 68.3316C101.697 68.3316 101.98 68.2923 102.248 68.2138C102.516 68.1351 102.752 68.0333 102.956 67.9072C103.161 67.7817 103.322 67.6442 103.441 67.4945C103.559 67.3452 103.618 67.2077 103.618 67.0818V64.6769ZM106.64 67.4123C106.64 68.6538 106.821 69.5577 107.183 70.1236C106.9 70.2332 106.636 70.3122 106.392 70.3597C106.148 70.4066 105.892 70.4302 105.625 70.4302C105.058 70.4302 104.629 70.3201 104.338 70.1C104.047 69.8803 103.862 69.5659 103.783 69.1569C103.437 69.5187 102.98 69.8249 102.413 70.0764C101.847 70.328 101.154 70.4537 100.335 70.4537C99.9102 70.4537 99.4851 70.3947 99.0601 70.2776C98.635 70.1597 98.2493 69.9682 97.903 69.702C97.5567 69.4356 97.2733 69.079 97.0529 68.6324C96.8325 68.1859 96.7227 67.641 96.7227 66.9987C96.7227 66.1994 96.9151 65.5493 97.3008 65.0477C97.6865 64.5464 98.1706 64.1509 98.7531 63.8608C99.3356 63.5715 99.9653 63.3714 100.642 63.2617C101.319 63.152 101.941 63.0817 102.508 63.0499C102.697 63.0345 102.882 63.0263 103.063 63.0263C103.244 63.0263 103.413 63.0263 103.57 63.0263V62.5973C103.57 61.9932 103.409 61.5637 103.086 61.3098C102.764 61.0554 102.24 60.9278 101.516 60.9278C100.839 60.9278 100.237 61.0382 99.7095 61.2579C99.1821 61.4784 98.6665 61.7295 98.1628 62.0124C97.9424 61.7452 97.7653 61.4504 97.6318 61.1282C97.4976 60.806 97.4311 60.5662 97.4311 60.4091C97.4311 60.1893 97.5527 59.9767 97.7967 59.7725C98.0408 59.5684 98.3753 59.3834 98.8003 59.2183C99.2254 59.0533 99.7131 58.92 100.264 58.8175C100.815 58.7156 101.398 58.6642 102.012 58.6642C102.862 58.6642 103.582 58.7506 104.173 58.9235C104.763 59.0968 105.243 59.3637 105.613 59.7253C105.983 60.0871 106.247 60.5387 106.404 61.0811C106.562 61.6233 106.64 62.2565 106.64 62.9791V67.4123Z" fill="white"/>
<path id="path180" d="M112.637 70.2887C112.558 70.3201 112.408 70.3437 112.188 70.3597C111.967 70.3752 111.724 70.3831 111.456 70.3831C111.189 70.3831 110.933 70.3555 110.689 70.3009C110.445 70.2452 110.228 70.1437 110.04 69.994C109.851 69.8446 109.701 69.6445 109.591 69.3931C109.481 69.1412 109.426 68.8189 109.426 68.4259V53.5244C109.426 53.5086 109.544 53.4887 109.78 53.4655C110.016 53.4415 110.26 53.4298 110.512 53.4298C110.764 53.4298 111.015 53.4534 111.267 53.5004C111.519 53.5475 111.747 53.6384 111.952 53.7717C112.157 53.9052 112.322 54.0939 112.448 54.3376C112.574 54.5815 112.637 54.8998 112.637 55.2924V70.2887Z" fill="white"/>
<path id="path182" d="M115.588 68.449C115.477 68.1345 115.407 67.8045 115.375 67.4587C115.344 67.1131 115.328 66.7673 115.328 66.4212V55.4805C115.438 55.4651 115.556 55.4491 115.682 55.4333C115.792 55.4177 115.91 55.4062 116.037 55.398C116.162 55.3901 116.288 55.3862 116.414 55.3862C116.666 55.3862 116.918 55.4097 117.17 55.4569C117.422 55.5045 117.65 55.5984 117.855 55.7399C118.059 55.8813 118.224 56.0739 118.351 56.3175C118.477 56.5612 118.54 56.8799 118.54 57.2725V58.923H121.846V61.3281H118.54V66.3562C118.54 67.453 118.988 68.001 119.886 68.001C120.106 68.001 120.314 67.9655 120.511 67.8949C120.708 67.8242 120.885 67.7454 121.043 67.6591C121.2 67.573 121.338 67.4823 121.456 67.3879C121.574 67.294 121.657 67.2228 121.704 67.1757C121.94 67.5215 122.121 67.8212 122.247 68.0738C122.373 68.3271 122.436 68.5648 122.436 68.7862C122.436 68.9926 122.354 69.1957 122.188 69.3936C122.023 69.5919 121.79 69.7747 121.491 69.9412C121.192 70.1074 120.83 70.2424 120.405 70.3456C119.98 70.4489 119.516 70.5004 119.012 70.5004C118.036 70.5004 117.276 70.3117 116.733 69.9345C116.19 69.5571 115.808 69.062 115.588 68.449Z" fill="white"/>
<path id="path184" d="M131.318 63.6394C131.318 63.294 131.306 62.9718 131.283 62.6727C131.259 62.3744 131.196 62.1186 131.094 61.9064C130.991 61.6942 130.826 61.5291 130.598 61.4113C130.37 61.2934 130.051 61.2344 129.641 61.2344C129.059 61.2344 128.559 61.3562 128.142 61.5998C127.725 61.8439 127.517 62.146 127.517 62.5076V70.1472H124.305V53.5244C124.305 53.5087 124.423 53.4887 124.659 53.4655C124.895 53.4415 125.139 53.4298 125.391 53.4298C125.643 53.4298 125.894 53.4534 126.147 53.5004C126.398 53.5476 126.627 53.6384 126.831 53.7717C127.036 53.9053 127.201 54.0939 127.327 54.3376C127.453 54.5815 127.517 54.8999 127.517 55.2924V59.9851C127.642 59.8433 127.8 59.6939 127.989 59.5367C128.177 59.3798 128.406 59.2341 128.674 59.1004C128.941 58.9673 129.252 58.8611 129.606 58.7822C129.96 58.7039 130.365 58.6643 130.823 58.6643C131.94 58.6643 132.766 58.8844 133.302 59.3246C133.837 59.7647 134.183 60.3466 134.341 61.0694C134.419 61.4308 134.471 61.8238 134.494 62.2483C134.518 62.6727 134.53 63.0893 134.53 63.4983V70.1472H131.318V63.6394Z" fill="white"/>
<path id="path186" d="M150.635 59.1594C150.635 58.2006 150.35 57.5168 149.78 57.108C149.21 56.6994 148.482 56.4949 147.596 56.4949C147.089 56.4949 146.661 56.5186 146.313 56.5657V62.2247H147.097C148.252 62.2247 149.131 62.0008 149.732 61.5527C150.334 61.1047 150.635 60.3073 150.635 59.1594ZM153.941 58.9944C153.941 60.0162 153.767 60.8807 153.419 61.5881C153.071 62.2955 152.602 62.8653 152.01 63.2975C151.417 63.7303 150.73 64.0404 149.949 64.2289C149.168 64.4176 148.343 64.5119 147.474 64.5119H146.337V70.1472H143.102V54.4436C143.81 54.3651 144.534 54.3061 145.274 54.2668C146.014 54.2275 146.683 54.2078 147.281 54.2078C149.58 54.2078 151.264 54.6127 152.335 55.4222C153.405 56.232 153.941 57.4228 153.941 58.9944Z" fill="white"/>
<path id="path188" d="M161.966 64.6769C161.855 64.6769 161.745 64.6769 161.635 64.6769C161.525 64.6769 161.414 64.685 161.304 64.7004C160.911 64.7322 160.521 64.7791 160.136 64.8419C159.75 64.9048 159.407 65.0152 159.108 65.172C158.809 65.3296 158.565 65.5339 158.376 65.7851C158.187 66.0366 158.093 66.3588 158.093 66.7518C158.093 67.1919 158.219 67.5653 158.471 67.8719C158.722 68.1783 159.148 68.3316 159.746 68.3316C160.045 68.3316 160.328 68.2923 160.596 68.2138C160.863 68.1351 161.1 68.0333 161.304 67.9072C161.509 67.7817 161.67 67.6442 161.788 67.4945C161.906 67.3452 161.966 67.2077 161.966 67.0818V64.6769ZM164.988 67.4123C164.988 68.6538 165.169 69.5577 165.531 70.1236C165.248 70.2332 164.984 70.3122 164.74 70.3597C164.496 70.4066 164.24 70.4302 163.973 70.4302C163.406 70.4302 162.977 70.3201 162.686 70.1C162.394 69.8803 162.21 69.5659 162.131 69.1569C161.785 69.5187 161.328 69.8249 160.761 70.0764C160.194 70.328 159.502 70.4537 158.683 70.4537C158.258 70.4537 157.833 70.3947 157.408 70.2776C156.983 70.1597 156.597 69.9682 156.251 69.702C155.904 69.4356 155.621 69.079 155.401 68.6324C155.181 68.1859 155.07 67.641 155.07 66.9987C155.07 66.1994 155.263 65.5493 155.649 65.0477C156.034 64.5464 156.519 64.1509 157.101 63.8608C157.684 63.5715 158.313 63.3714 158.99 63.2617C159.667 63.152 160.289 63.0817 160.856 63.0499C161.045 63.0345 161.229 63.0263 161.411 63.0263C161.591 63.0263 161.761 63.0263 161.918 63.0263V62.5973C161.918 61.9932 161.757 61.5637 161.434 61.3098C161.111 61.0554 160.588 60.9278 159.864 60.9278C159.187 60.9278 158.585 61.0382 158.058 61.2579C157.53 61.4784 157.015 61.7295 156.511 62.0124C156.29 61.7452 156.113 61.4504 155.979 61.1282C155.846 60.806 155.779 60.5662 155.779 60.4091C155.779 60.1893 155.9 59.9767 156.145 59.7725C156.389 59.5684 156.723 59.3834 157.148 59.2183C157.573 59.0533 158.061 58.92 158.612 58.8175C159.163 58.7156 159.746 58.6642 160.36 58.6642C161.21 58.6642 161.93 58.7506 162.521 58.9235C163.111 59.0968 163.591 59.3637 163.961 59.7253C164.331 60.0871 164.595 60.5387 164.752 61.0811C164.909 61.6233 164.988 62.2565 164.988 62.9791V67.4123Z" fill="white"/>
<path id="path190" d="M170.847 60.0915C170.942 59.9512 171.067 59.7954 171.225 59.6239C171.382 59.4521 171.575 59.2962 171.804 59.1558C172.031 59.0154 172.284 58.8984 172.559 58.8047C172.834 58.7111 173.13 58.6643 173.445 58.6643C173.634 58.6643 173.834 58.68 174.047 58.7111C174.259 58.7425 174.456 58.8011 174.637 58.8865C174.818 58.9726 174.964 59.0891 175.074 59.2373C175.184 59.3853 175.239 59.5685 175.239 59.7865C175.239 60.1298 175.153 60.523 174.98 60.9682C174.806 61.4134 174.633 61.7924 174.46 62.1068C174.192 61.887 173.925 61.7178 173.657 61.5998C173.389 61.4819 173.075 61.423 172.713 61.423C172.225 61.423 171.815 61.5648 171.485 61.8485C171.154 62.1322 170.989 62.4712 170.989 62.8653V70.1472H167.777V58.9944C167.856 58.979 167.95 58.9629 168.061 58.9472C168.155 58.9316 168.265 58.9201 168.391 58.9119C168.517 58.9039 168.666 58.9 168.84 58.9C169.344 58.9 169.78 58.998 170.151 59.1922C170.52 59.3871 170.752 59.6867 170.847 60.0915Z" fill="white"/>
<path id="path192" d="M176.916 68.449C176.806 68.1345 176.735 67.8045 176.703 67.4587C176.672 67.1131 176.656 66.7673 176.656 66.4212V55.4805C176.766 55.4651 176.884 55.4491 177.011 55.4333C177.12 55.4177 177.238 55.4062 177.365 55.398C177.491 55.3901 177.617 55.3862 177.743 55.3862C177.994 55.3862 178.246 55.4097 178.499 55.4569C178.75 55.5045 178.979 55.5984 179.183 55.7399C179.387 55.8813 179.553 56.0739 179.679 56.3175C179.805 56.5612 179.868 56.8799 179.868 57.2725V58.923H183.174V61.3281H179.868V66.3562C179.868 67.453 180.317 68.001 181.214 68.001C181.434 68.001 181.643 67.9655 181.84 67.8949C182.036 67.8242 182.213 67.7454 182.371 67.6591C182.528 67.573 182.666 67.4823 182.784 67.3879C182.902 67.294 182.985 67.2228 183.032 67.1757C183.269 67.5215 183.449 67.8212 183.575 68.0738C183.701 68.3271 183.764 68.5648 183.764 68.7862C183.764 68.9926 183.681 69.1957 183.516 69.3936C183.351 69.5919 183.119 69.7747 182.82 69.9412C182.52 70.1074 182.158 70.2424 181.733 70.3456C181.308 70.4489 180.843 70.5004 180.34 70.5004C179.364 70.5004 178.605 70.3117 178.062 69.9345C177.518 69.5571 177.136 69.062 176.916 68.449Z" fill="white"/>
<path id="path194" d="M188.84 70.1472H185.629V58.9944C185.707 58.979 185.801 58.9629 185.91 58.9472C186.004 58.9316 186.113 58.9201 186.238 58.9119C186.363 58.9039 186.512 58.9 186.684 58.9C187.183 58.9 187.616 58.9905 187.984 59.1712C188.351 59.352 188.581 59.6706 188.675 60.1261C188.943 59.7647 189.358 59.4306 189.919 59.124C190.479 58.8175 191.226 58.6643 192.158 58.6643C193.279 58.6643 194.109 58.8844 194.646 59.3246C195.183 59.7647 195.53 60.3466 195.688 61.0694C195.767 61.4308 195.818 61.8238 195.841 62.2483C195.865 62.6727 195.877 63.0893 195.877 63.4983V70.1472H192.666V63.6394C192.666 63.294 192.653 62.9718 192.63 62.6727C192.607 62.3744 192.543 62.1186 192.44 61.9064C192.337 61.6942 192.171 61.5291 191.941 61.4113C191.711 61.2934 191.391 61.2344 190.979 61.2344C190.393 61.2344 189.89 61.3562 189.47 61.5998C189.05 61.8439 188.84 62.146 188.84 62.5076V70.1472Z" fill="white"/>
<path id="path196" d="M205.067 63.3565C205.067 62.6019 204.92 61.9888 204.627 61.5175C204.334 61.0457 203.808 60.8099 203.048 60.8099C202.399 60.8099 201.88 61.0339 201.493 61.4818C201.104 61.9299 200.911 62.5547 200.911 63.3565H205.067ZM203.991 68.143C204.385 68.143 204.733 68.0997 205.034 68.0132C205.334 67.9271 205.602 67.8211 205.839 67.6953C206.076 67.5692 206.281 67.432 206.455 67.2824C206.629 67.1331 206.787 66.9957 206.929 66.8697C207.118 67.1054 207.316 67.4084 207.521 67.7775C207.726 68.1469 207.83 68.4495 207.83 68.6853C207.83 69.0314 207.633 69.3456 207.239 69.6284C206.909 69.8803 206.44 70.0965 205.834 70.2769C205.228 70.4572 204.515 70.5481 203.697 70.5481C202.957 70.5481 202.229 70.4537 201.513 70.2651C200.796 70.0764 200.159 69.7463 199.6 69.2748C199.041 68.8032 198.588 68.1708 198.242 67.3766C197.896 66.5832 197.723 65.5811 197.723 64.3703C197.723 63.38 197.876 62.5277 198.183 61.812C198.49 61.0971 198.899 60.5034 199.411 60.0317C199.923 59.5602 200.501 59.2148 201.147 58.9943C201.792 58.7746 202.453 58.6642 203.13 58.6642C204.012 58.6642 204.76 58.8021 205.374 59.0772C205.988 59.352 206.487 59.7217 206.873 60.1851C207.259 60.6491 207.538 61.1793 207.711 61.7766C207.885 62.3743 207.971 63.0027 207.971 63.6629C207.971 63.7573 207.971 63.8677 207.971 63.9931C207.971 64.1191 207.967 64.2524 207.96 64.3939C207.951 64.5354 207.944 64.6733 207.936 64.8066C207.928 64.9405 207.916 65.0466 207.9 65.1249H200.934C200.998 65.9894 201.266 66.709 201.74 67.2824C202.213 67.8565 202.964 68.143 203.991 68.143Z" fill="white"/>
<path id="path198" d="M213.16 60.0915C213.254 59.9512 213.38 59.7954 213.537 59.6239C213.695 59.4521 213.888 59.2962 214.116 59.1558C214.344 59.0154 214.596 58.8984 214.872 58.8047C215.147 58.7111 215.442 58.6643 215.757 58.6643C215.946 58.6643 216.147 58.68 216.359 58.7111C216.572 58.7425 216.768 58.8011 216.95 58.8865C217.13 58.9726 217.276 59.0891 217.387 59.2373C217.497 59.3853 217.552 59.5685 217.552 59.7865C217.552 60.1298 217.465 60.523 217.292 60.9682C217.119 61.4134 216.945 61.7924 216.773 62.1068C216.505 61.887 216.237 61.7178 215.97 61.5998C215.702 61.4819 215.387 61.423 215.025 61.423C214.537 61.423 214.128 61.5648 213.797 61.8485C213.467 62.1322 213.301 62.4712 213.301 62.8653V70.1472H210.09V58.9944C210.168 58.979 210.263 58.9629 210.373 58.9472C210.467 58.9316 210.578 58.9201 210.703 58.9119C210.829 58.9039 210.979 58.9 211.152 58.9C211.656 58.9 212.093 58.998 212.463 59.1922C212.833 59.3871 213.065 59.6867 213.16 60.0915Z" fill="white"/>
<path id="path200" d="M226.838 60.2906C226.838 60.5265 226.763 60.8054 226.613 61.1277C226.464 61.4499 226.302 61.7525 226.13 62.0355C225.972 61.9097 225.779 61.7804 225.551 61.6464C225.323 61.5131 225.067 61.3871 224.784 61.2692C224.5 61.1513 224.205 61.0534 223.898 60.9745C223.591 60.8959 223.28 60.8565 222.965 60.8565C222.792 60.8565 222.611 60.8682 222.422 60.8922C222.233 60.9154 222.064 60.9626 221.915 61.0333C221.765 61.1041 221.639 61.2062 221.537 61.3399C221.434 61.4735 221.383 61.6507 221.383 61.8704C221.383 62.4053 221.958 62.7983 223.107 63.0493C223.579 63.1437 224.048 63.2655 224.512 63.4148C224.976 63.5646 225.393 63.7725 225.763 64.0398C226.134 64.3073 226.433 64.6448 226.661 65.0536C226.889 65.4626 227.003 65.9731 227.003 66.5862C227.003 67.2153 226.881 67.7731 226.637 68.2607C226.393 68.748 226.059 69.1563 225.634 69.4864C225.209 69.8166 224.709 70.068 224.134 70.2414C223.559 70.4139 222.934 70.5004 222.257 70.5004C221.564 70.5004 220.977 70.4493 220.498 70.347C220.017 70.2446 219.62 70.123 219.305 69.9817C219.084 69.8873 218.845 69.7501 218.585 69.569C218.325 69.3885 218.195 69.1406 218.195 68.8266C218.195 68.5593 218.274 68.2804 218.431 67.9891C218.589 67.6984 218.77 67.3962 218.975 67.0813C219.116 67.2072 219.293 67.3371 219.506 67.4704C219.718 67.6044 219.962 67.7298 220.238 67.8477C220.513 67.9655 220.808 68.0642 221.123 68.1425C221.438 68.2213 221.761 68.2607 222.092 68.2607C222.296 68.2607 222.508 68.2449 222.729 68.2132C222.949 68.1821 223.142 68.1189 223.308 68.0246C223.473 67.9302 223.611 67.8045 223.721 67.6472C223.831 67.4901 223.886 67.2858 223.886 67.0343C223.886 66.5788 223.709 66.2522 223.355 66.0557C223.001 65.8595 222.469 65.6903 221.761 65.5487C221.305 65.4544 220.864 65.3291 220.439 65.1715C220.014 65.0147 219.635 64.806 219.305 64.5466C218.975 64.2873 218.711 63.961 218.514 63.568C218.317 63.1755 218.219 62.6957 218.219 62.1298C218.219 61.5639 218.345 61.0688 218.597 60.6443C218.848 60.2199 219.183 59.8583 219.6 59.5596C220.017 59.2614 220.501 59.0373 221.052 58.8877C221.603 58.7384 222.178 58.6637 222.776 58.6637C223.406 58.6637 223.969 58.7109 224.465 58.8051C224.961 58.8994 225.39 59.0256 225.752 59.1825C226.445 59.4653 226.806 59.8351 226.838 60.2906Z" fill="white"/>
</g>
</g>
</g>
<defs>
<clipPath id="clip0_1823_1242">
<rect width="227" height="89" fill="white"/>
</clipPath>
</defs>
</svg>
