<svg width="228" height="210" viewBox="0 0 228 210" fill="none" xmlns="http://www.w3.org/2000/svg">
<g opacity="0.7" filter="url(#filter0_f_2465_4290)">
<path d="M105.054 207C104.221 207 103.551 206.33 103.551 205.497C103.551 204.663 104.221 203.994 105.05 203.994C105.884 203.994 106.557 204.663 106.557 205.497C106.557 206.327 105.884 207 105.054 207ZM97.438 206.725C96.6084 206.661 95.987 205.94 96.0503 205.117C96.1098 204.288 96.8316 203.666 97.6613 203.73C98.4872 203.789 99.1086 204.511 99.0453 205.337C98.9895 206.126 98.331 206.728 97.5497 206.728C97.5125 206.728 97.4752 206.725 97.438 206.725ZM111.063 205.329C111.003 204.5 111.624 203.778 112.45 203.718C113.28 203.655 113.998 204.277 114.058 205.103C114.121 205.932 113.496 206.654 112.674 206.714C112.633 206.714 112.595 206.721 112.558 206.721C111.777 206.721 111.118 206.115 111.059 205.329H111.063ZM89.8593 205.884C89.0371 205.761 88.4753 205.002 88.5944 204.18C88.7171 203.354 89.4798 202.792 90.3021 202.911C91.1243 203.038 91.6861 203.8 91.5671 204.619C91.4554 205.367 90.8155 205.902 90.0826 205.902C90.0082 205.902 89.9375 205.895 89.8593 205.884ZM118.541 204.604C118.422 203.782 118.984 203.019 119.806 202.896C120.628 202.773 121.394 203.339 121.514 204.161C121.636 204.983 121.075 205.746 120.252 205.869C120.174 205.88 120.103 205.888 120.025 205.888C119.296 205.888 118.656 205.352 118.541 204.604ZM82.3625 204.481C81.5551 204.299 81.0454 203.492 81.2314 202.684C81.4137 201.873 82.2211 201.363 83.0322 201.549C83.8395 201.732 84.3492 202.539 84.1632 203.35C84.007 204.046 83.3856 204.518 82.6973 204.518C82.5857 204.518 82.4778 204.507 82.3625 204.481ZM125.945 203.328C125.762 202.517 126.268 201.713 127.076 201.527C127.887 201.345 128.687 201.851 128.876 202.658C129.059 203.465 128.553 204.269 127.745 204.455C127.63 204.481 127.522 204.496 127.407 204.496C126.722 204.496 126.101 204.024 125.945 203.328ZM74.9958 202.517C74.1996 202.275 73.7569 201.43 73.9987 200.642C74.2443 199.845 75.0851 199.403 75.8776 199.645C76.6701 199.89 77.1165 200.731 76.871 201.523C76.6738 202.167 76.0785 202.584 75.4349 202.584C75.2935 202.584 75.1409 202.561 74.9958 202.517ZM133.233 201.49C132.988 200.697 133.434 199.86 134.227 199.615C135.019 199.369 135.86 199.812 136.105 200.608C136.347 201.401 135.905 202.245 135.112 202.483C134.963 202.532 134.814 202.554 134.669 202.554C134.029 202.554 133.434 202.141 133.233 201.49ZM67.7855 200.002C67.0116 199.697 66.6358 198.826 66.9335 198.052C67.2385 197.278 68.1092 196.902 68.883 197.2C69.6569 197.505 70.0327 198.376 69.735 199.146C69.5006 199.741 68.9351 200.102 68.3361 200.102C68.1538 200.102 67.9641 200.069 67.7855 199.998V200.002ZM140.362 199.116C140.057 198.342 140.44 197.472 141.21 197.167C141.984 196.865 142.854 197.245 143.16 198.019C143.465 198.793 143.081 199.663 142.308 199.968C142.129 200.039 141.939 200.072 141.757 200.072C141.158 200.072 140.592 199.708 140.362 199.12V199.116ZM60.7872 196.951C60.0431 196.59 59.7268 195.69 60.0877 194.945C60.4486 194.198 61.3452 193.881 62.0931 194.242C62.8409 194.603 63.1571 195.504 62.7962 196.251C62.5358 196.787 62.0001 197.103 61.4383 197.103C61.2188 197.103 60.9992 197.055 60.7872 196.955V196.951ZM147.286 196.214C146.921 195.466 147.237 194.57 147.981 194.205C148.729 193.844 149.626 194.157 149.99 194.905C150.351 195.652 150.039 196.549 149.291 196.914C149.079 197.014 148.859 197.059 148.64 197.059C148.078 197.059 147.542 196.746 147.286 196.21V196.214ZM54.0419 193.383C53.3238 192.966 53.0782 192.047 53.4912 191.329C53.9042 190.611 54.8269 190.362 55.5449 190.779C56.263 191.192 56.5086 192.114 56.0956 192.832C55.8165 193.312 55.3106 193.584 54.7934 193.584C54.5367 193.584 54.2762 193.517 54.0419 193.383ZM153.971 192.795C153.558 192.077 153.8 191.158 154.518 190.741C155.236 190.325 156.155 190.57 156.576 191.288C156.989 192.006 156.743 192.925 156.025 193.342C155.787 193.48 155.53 193.543 155.274 193.543C154.756 193.543 154.25 193.275 153.971 192.795ZM47.583 189.32C46.8985 188.851 46.7199 187.917 47.1887 187.229C47.6574 186.545 48.5913 186.366 49.2796 186.835C49.9642 187.304 50.1427 188.237 49.674 188.926C49.38 189.35 48.9113 189.581 48.4313 189.581C48.1374 189.581 47.8435 189.495 47.583 189.32ZM160.386 188.889C159.917 188.204 160.092 187.27 160.776 186.798C161.461 186.329 162.395 186.504 162.867 187.188C163.336 187.873 163.157 188.807 162.477 189.279C162.216 189.454 161.918 189.543 161.628 189.543C161.148 189.543 160.676 189.313 160.386 188.889ZM41.4479 184.788C40.8005 184.271 40.6889 183.326 41.2098 182.675C41.7269 182.028 42.6719 181.92 43.3193 182.441C43.9667 182.954 44.0746 183.903 43.5574 184.55C43.2598 184.922 42.8208 185.116 42.3817 185.116C42.0506 185.116 41.7232 185.008 41.4479 184.785V184.788ZM166.495 184.513C165.978 183.866 166.082 182.917 166.729 182.4C167.376 181.879 168.325 181.987 168.842 182.634C169.359 183.282 169.252 184.23 168.604 184.744C168.329 184.967 167.994 185.075 167.67 185.075C167.228 185.075 166.792 184.882 166.495 184.509V184.513ZM35.6662 179.814C35.056 179.249 35.0225 178.3 35.5843 177.693C36.1499 177.083 37.1023 177.05 37.7088 177.612C38.3189 178.177 38.3487 179.126 37.7906 179.732C37.493 180.056 37.0912 180.216 36.6856 180.216C36.3173 180.216 35.9527 180.082 35.6625 179.814H35.6662ZM172.261 179.691C171.696 179.081 171.729 178.132 172.34 177.571C172.95 177.005 173.902 177.039 174.464 177.649C175.03 178.259 174.992 179.211 174.382 179.773C174.092 180.041 173.727 180.171 173.359 180.171C172.957 180.171 172.555 180.011 172.258 179.691H172.261ZM30.2714 174.423C29.7059 173.813 29.7431 172.864 30.3533 172.299C30.9597 171.733 31.9122 171.77 32.474 172.381C33.0395 172.991 33.006 173.939 32.3959 174.501C32.1057 174.773 31.741 174.903 31.3727 174.903C30.9709 174.903 30.5654 174.743 30.2677 174.423H30.2714ZM177.656 174.457C177.046 173.891 177.013 172.942 177.574 172.336C178.14 171.729 179.092 171.692 179.699 172.254C180.309 172.82 180.339 173.772 179.777 174.378C179.479 174.698 179.081 174.858 178.676 174.858C178.307 174.858 177.943 174.724 177.653 174.457H177.656ZM25.2971 168.649C24.7762 168.001 24.8841 167.053 25.5315 166.536C26.1789 166.018 27.1276 166.126 27.641 166.774C28.1619 167.417 28.054 168.366 27.4066 168.887C27.1276 169.106 26.7965 169.218 26.4691 169.218C26.03 169.218 25.5947 169.025 25.2971 168.653V168.649ZM182.645 168.835C181.998 168.314 181.89 167.369 182.407 166.722C182.928 166.074 183.87 165.966 184.521 166.487C185.168 167.004 185.272 167.949 184.755 168.597C184.457 168.965 184.022 169.162 183.579 169.162C183.252 169.162 182.921 169.054 182.645 168.835ZM20.7581 162.521C20.293 161.837 20.4641 160.903 21.1487 160.43C21.8333 159.961 22.7671 160.136 23.2396 160.821C23.7084 161.505 23.5336 162.439 22.849 162.912C22.5886 163.087 22.2946 163.172 22.0007 163.172C21.5208 163.172 21.052 162.945 20.7581 162.521ZM187.203 162.86C186.522 162.391 186.344 161.457 186.812 160.769C187.281 160.084 188.215 159.909 188.903 160.374C189.588 160.843 189.767 161.777 189.294 162.465C189.004 162.893 188.531 163.12 188.051 163.12C187.761 163.12 187.464 163.035 187.203 162.86ZM16.6952 156.073C16.2823 155.355 16.5241 154.436 17.2422 154.02C17.9602 153.603 18.8792 153.849 19.2959 154.567C19.7126 155.285 19.467 156.2 18.749 156.62C18.5146 156.754 18.2541 156.821 17.9974 156.821C17.4803 156.821 16.9743 156.553 16.6952 156.073ZM191.307 156.553C190.589 156.14 190.343 155.218 190.76 154.5C191.173 153.782 192.096 153.536 192.814 153.953C193.532 154.366 193.777 155.288 193.361 156.007C193.082 156.486 192.579 156.758 192.058 156.758C191.802 156.758 191.545 156.691 191.307 156.553ZM13.1273 149.339C12.7627 148.592 13.0789 147.695 13.823 147.334C14.5708 146.969 15.4675 147.282 15.8321 148.03C16.193 148.778 15.8805 149.674 15.1326 150.039C14.9243 150.143 14.701 150.188 14.4815 150.188C13.9235 150.188 13.384 149.871 13.1273 149.336V149.339ZM194.927 149.961C194.179 149.6 193.867 148.703 194.227 147.955C194.588 147.207 195.485 146.891 196.233 147.256C196.981 147.617 197.297 148.513 196.936 149.261C196.676 149.797 196.136 150.109 195.578 150.109C195.358 150.109 195.139 150.061 194.927 149.961ZM10.0727 142.36C9.76763 141.586 10.1471 140.715 10.921 140.41C11.6949 140.105 12.5655 140.488 12.8705 141.262C13.1756 142.032 12.7924 142.903 12.0185 143.208C11.84 143.282 11.6539 143.316 11.4716 143.316C10.8689 143.316 10.3034 142.955 10.0727 142.363V142.36ZM198.045 143.115C197.271 142.81 196.891 141.939 197.193 141.169C197.498 140.395 198.368 140.016 199.139 140.317C199.912 140.622 200.292 141.493 199.991 142.263C199.76 142.858 199.191 143.219 198.592 143.219C198.413 143.219 198.223 143.186 198.045 143.111V143.115ZM7.53532 135.164C7.28976 134.368 7.73251 133.531 8.52498 133.285C9.32117 133.04 10.1583 133.482 10.4038 134.279C10.6494 135.071 10.2067 135.912 9.41418 136.158C9.26536 136.202 9.11654 136.225 8.97144 136.225C8.33151 136.225 7.73251 135.812 7.53532 135.164ZM200.623 136.05C199.827 135.808 199.384 134.963 199.626 134.174C199.871 133.378 200.712 132.936 201.505 133.181C202.297 133.423 202.744 134.268 202.498 135.056C202.301 135.7 201.702 136.12 201.062 136.12C200.917 136.12 200.768 136.098 200.623 136.05ZM5.55972 127.798C5.37369 126.986 5.88341 126.187 6.68704 125.997C7.49811 125.814 8.30175 126.32 8.48777 127.128C8.6738 127.939 8.16781 128.739 7.36045 128.929C7.24512 128.955 7.1335 128.966 7.02189 128.966C6.33731 128.966 5.71598 128.493 5.55972 127.798ZM202.669 128.824C201.858 128.642 201.352 127.835 201.538 127.024C201.721 126.216 202.528 125.707 203.339 125.893C204.15 126.079 204.656 126.882 204.47 127.693C204.314 128.389 203.692 128.862 203.004 128.862C202.893 128.862 202.785 128.85 202.669 128.824ZM4.13848 120.304C4.0157 119.482 4.58122 118.716 5.40346 118.597C6.22569 118.474 6.9884 119.036 7.11118 119.858C7.23768 120.68 6.67216 121.447 5.84992 121.569C5.77179 121.581 5.7011 121.584 5.62297 121.584C4.89375 121.584 4.25382 121.052 4.13848 120.304ZM204.165 121.458C203.343 121.335 202.781 120.572 202.9 119.75C203.026 118.928 203.785 118.366 204.608 118.485C205.43 118.608 205.995 119.371 205.873 120.196C205.761 120.941 205.121 121.476 204.388 121.476C204.314 121.476 204.239 121.473 204.165 121.458ZM3.2902 112.729C3.22695 111.9 3.84828 111.182 4.67424 111.118C5.50391 111.055 6.22197 111.676 6.2815 112.502C6.34475 113.332 5.72342 114.054 4.89747 114.11C4.86026 114.113 4.81934 114.117 4.78213 114.117C4.00454 114.117 3.34601 113.514 3.28648 112.726L3.2902 112.729ZM205.11 114.009C204.284 113.946 203.663 113.228 203.726 112.402C203.785 111.572 204.507 110.955 205.337 111.014C206.167 111.077 206.784 111.796 206.725 112.625C206.665 113.418 206.007 114.017 205.225 114.017C205.188 114.017 205.151 114.017 205.11 114.013V114.009ZM3 105.11C3 104.276 3.66969 103.607 4.50309 103.603C5.33277 103.603 6.00618 104.273 6.00618 105.106C6.00618 105.936 5.33649 106.609 4.50681 106.609C3.67341 106.609 3 105.939 3 105.11ZM203.994 104.998C203.994 104.965 203.994 104.931 203.998 104.894C203.994 104.857 203.994 104.82 203.994 104.782C203.994 103.953 204.664 103.279 205.493 103.279C206.323 103.279 206.996 103.945 207 104.779C207 104.812 206.996 104.849 206.996 104.883C207 104.924 207 104.961 207 104.998C207 105.828 206.327 106.501 205.497 106.501C204.664 106.501 203.994 105.828 203.994 104.998ZM4.65935 99.1011C3.8334 99.0416 3.21207 98.3198 3.2716 97.4901C3.33485 96.6604 4.05291 96.0428 4.88258 96.1024C5.71226 96.1656 6.32987 96.8837 6.27034 97.7134C6.21453 98.5058 5.55228 99.1048 4.77097 99.1048C4.73748 99.1048 4.69656 99.1048 4.65935 99.1048V99.1011ZM203.704 97.3934C203.64 96.5637 204.262 95.8456 205.088 95.7824C205.917 95.7192 206.639 96.3405 206.699 97.1664C206.762 97.9961 206.141 98.7179 205.315 98.7812C205.277 98.7812 205.236 98.7812 205.199 98.7812C204.422 98.7812 203.763 98.1784 203.704 97.3934ZM5.37369 91.6191C4.55146 91.4964 3.98594 90.7374 4.105 89.9151C4.23149 89.0929 4.99048 88.5274 5.81272 88.6464C6.63495 88.7692 7.20047 89.5319 7.07769 90.3542C6.96608 91.102 6.32615 91.6377 5.59693 91.6377C5.52251 91.6377 5.4481 91.6303 5.37369 91.6191ZM202.87 90.0379C202.747 89.2157 203.309 88.4492 204.131 88.3302C204.95 88.2037 205.716 88.7692 205.839 89.5877C205.966 90.41 205.4 91.1764 204.578 91.2992C204.504 91.3103 204.429 91.3178 204.351 91.3178C203.622 91.3178 202.982 90.782 202.87 90.0379ZM6.64239 84.2153C5.83132 84.033 5.32533 83.2294 5.51135 82.4183C5.68994 81.6072 6.49729 81.0975 7.30837 81.2835C8.11944 81.4658 8.62543 82.2732 8.4394 83.0843C8.28314 83.78 7.66182 84.2525 6.97724 84.2525C6.86562 84.2525 6.75401 84.2413 6.64239 84.2153ZM201.486 82.7717C201.304 81.9607 201.81 81.157 202.614 80.971C203.425 80.785 204.228 81.291 204.418 82.0983C204.6 82.9057 204.094 83.7093 203.291 83.8991C203.175 83.9251 203.064 83.9363 202.952 83.9363C202.268 83.9363 201.646 83.4675 201.486 82.7717ZM8.46545 76.9231C7.67298 76.6812 7.22651 75.8404 7.46835 75.0479C7.7139 74.2555 8.55474 73.809 9.34721 74.0508C10.1397 74.2964 10.5861 75.1372 10.3406 75.9297C10.1434 76.5733 9.54812 76.99 8.90447 76.99C8.75937 76.99 8.61055 76.9714 8.46545 76.9231ZM199.563 75.6246C199.317 74.8321 199.76 73.9913 200.552 73.7457C201.345 73.5002 202.186 73.9429 202.431 74.7354C202.677 75.5279 202.234 76.3687 201.442 76.6143C201.296 76.6626 201.144 76.6812 200.999 76.6812C200.359 76.6812 199.764 76.272 199.563 75.6246ZM10.8317 69.7834C10.0578 69.482 9.67834 68.6114 9.9797 67.8376C10.2848 67.0637 11.1517 66.6842 11.9255 66.9856C12.6994 67.2869 13.0789 68.1575 12.7775 68.9314C12.5469 69.5267 11.9776 69.8876 11.3786 69.8876C11.2 69.8876 11.0103 69.8541 10.8317 69.7797V69.7834ZM197.107 68.6486C196.798 67.8748 197.182 67.0042 197.952 66.6991C198.726 66.394 199.596 66.7735 199.901 67.5436C200.206 68.3175 199.827 69.1881 199.057 69.4932C198.874 69.5676 198.685 69.6011 198.502 69.6011C197.903 69.6011 197.338 69.2402 197.107 68.6524V68.6486ZM13.7337 62.8446C12.9859 62.4837 12.6696 61.5871 13.0343 60.8392C13.3951 60.0914 14.2918 59.7752 15.0396 60.1361C15.7874 60.497 16.1 61.3936 15.7391 62.1414C15.4824 62.6809 14.9429 62.9972 14.3848 62.9972C14.1653 62.9972 13.9458 62.9488 13.7337 62.8483V62.8446ZM194.134 61.8773C193.77 61.1295 194.082 60.2328 194.83 59.8682C195.574 59.5036 196.475 59.8161 196.836 60.5639C197.2 61.3118 196.888 62.2084 196.14 62.573C195.931 62.6772 195.708 62.7218 195.489 62.7218C194.931 62.7218 194.391 62.4093 194.134 61.8736V61.8773ZM17.1454 56.144C16.4274 55.731 16.1818 54.8083 16.5948 54.0902C17.0078 53.3722 17.9305 53.1266 18.6485 53.5396C19.3666 53.9526 19.6121 54.8715 19.1992 55.5933C18.9201 56.0733 18.4141 56.3449 17.8933 56.3449C17.6403 56.3449 17.3798 56.2779 17.1454 56.144ZM190.659 55.344C190.243 54.6297 190.488 53.7107 191.203 53.2903C191.921 52.8736 192.84 53.1192 193.26 53.8372C193.677 54.5516 193.431 55.4705 192.713 55.891C192.479 56.0286 192.218 56.0919 191.962 56.0919C191.441 56.0919 190.939 55.824 190.659 55.344ZM21.0483 49.7186C20.3637 49.2498 20.1851 48.316 20.6539 47.6277C21.1227 46.9431 22.0528 46.7645 22.7448 47.2333C23.4294 47.7021 23.608 48.6359 23.1355 49.3242C22.8453 49.7484 22.3765 49.979 21.8965 49.979C21.6026 49.979 21.3087 49.8935 21.0483 49.7186ZM186.708 49.0936C186.236 48.409 186.411 47.4751 187.095 47.0026C187.78 46.5338 188.714 46.7087 189.186 47.3933C189.655 48.0741 189.48 49.0117 188.799 49.4842C188.539 49.6591 188.241 49.7447 187.947 49.7447C187.467 49.7447 186.998 49.5177 186.708 49.0936ZM25.4199 43.6021C24.7725 43.0849 24.6646 42.1399 25.1818 41.4925C25.6989 40.8452 26.6439 40.7373 27.295 41.2544C27.9424 41.7716 28.0503 42.7166 27.5331 43.364C27.2355 43.7397 26.7965 43.9332 26.3574 43.9332C26.0263 43.9332 25.6989 43.8216 25.4199 43.6021ZM182.299 43.1519C181.779 42.5045 181.886 41.5558 182.534 41.0424C183.177 40.5215 184.126 40.6257 184.643 41.273C185.161 41.9204 185.056 42.8691 184.409 43.3863C184.134 43.6058 183.799 43.7137 183.471 43.7137C183.032 43.7137 182.597 43.5239 182.299 43.1519ZM30.2342 37.8278C29.6241 37.266 29.5906 36.3136 30.1524 35.7071C30.7142 35.097 31.6666 35.0635 32.2731 35.6253C32.8832 36.1908 32.9167 37.1395 32.3549 37.746C32.0573 38.0659 31.6555 38.2296 31.2499 38.2296C30.8816 38.2296 30.5207 38.0994 30.2305 37.8278H30.2342ZM177.455 37.5488C176.89 36.9386 176.923 35.9899 177.533 35.4281C178.144 34.8588 179.092 34.896 179.654 35.5025H179.658C180.223 36.1127 180.19 37.0614 179.58 37.6269C179.29 37.8948 178.925 38.0287 178.557 38.0287C178.155 38.0287 177.749 37.8687 177.452 37.5488H177.455ZM35.4616 32.4331C34.896 31.8229 34.9295 30.8742 35.5397 30.3086C36.1499 29.7431 37.0986 29.7766 37.6641 30.3868C38.2296 30.9969 38.1924 31.9457 37.586 32.5112C37.2958 32.7791 36.9274 32.913 36.5591 32.913C36.1573 32.913 35.7555 32.753 35.4578 32.4331H35.4616ZM172.213 32.3214C171.603 31.7596 171.569 30.8072 172.131 30.2007C172.693 29.5906 173.646 29.5571 174.252 30.1152C174.862 30.6807 174.896 31.6331 174.338 32.2396C174.04 32.5596 173.638 32.7195 173.229 32.7195C172.864 32.7195 172.5 32.5856 172.209 32.3214H172.213ZM41.0758 27.4364C40.555 26.789 40.6629 25.844 41.3102 25.3269C41.9539 24.8097 42.9063 24.9139 43.4198 25.5613C43.9369 26.2086 43.8327 27.1574 43.1854 27.6708C42.9063 27.894 42.5752 28.0019 42.2478 28.0019C41.8088 28.0019 41.3735 27.8084 41.0758 27.4364ZM166.599 27.5034C165.948 26.9862 165.84 26.0412 166.357 25.3938C166.874 24.7427 167.819 24.6348 168.467 25.152C169.114 25.6691 169.226 26.6142 168.708 27.2615C168.411 27.6336 167.972 27.8308 167.533 27.8308C167.202 27.8308 166.874 27.7229 166.599 27.5034ZM47.0436 22.8788C46.5748 22.1942 46.7496 21.2603 47.4342 20.7878C48.1188 20.319 49.0526 20.4902 49.5251 21.1748C49.9939 21.8593 49.8191 22.7932 49.1345 23.2657C48.8741 23.4443 48.5801 23.5298 48.2862 23.5298C47.8063 23.5298 47.3375 23.3029 47.0436 22.8788ZM160.635 23.1094C159.95 22.6444 159.775 21.7105 160.24 21.0222C160.706 20.3376 161.639 20.1591 162.331 20.6278C163.016 21.0929 163.195 22.0268 162.726 22.7151C162.436 23.1429 161.963 23.3736 161.483 23.3736C161.189 23.3736 160.895 23.288 160.635 23.1094ZM53.335 18.775C52.922 18.057 53.1638 17.138 53.8819 16.7213C54.5999 16.3046 55.5189 16.5501 55.9356 17.2645C56.3523 17.9825 56.1105 18.9015 55.3924 19.3219C55.1543 19.4559 54.8939 19.5228 54.6371 19.5228C54.12 19.5228 53.6177 19.255 53.335 18.775ZM154.362 19.1768C153.644 18.7639 153.395 17.8412 153.811 17.1231C154.221 16.405 155.143 16.1558 155.861 16.5725C156.583 16.9817 156.829 17.9044 156.416 18.6225C156.137 19.1061 155.631 19.3777 155.11 19.3777C154.857 19.3777 154.596 19.3108 154.362 19.1768ZM59.9128 15.1512C59.5482 14.4034 59.8645 13.5068 60.6086 13.1421C61.3527 12.7775 62.2493 13.0938 62.6139 13.8416C62.9785 14.5857 62.666 15.4824 61.9182 15.847C61.7061 15.9511 61.4829 15.9958 61.2634 15.9958C60.7053 15.9958 60.1696 15.6833 59.9091 15.1475L59.9128 15.1512ZM147.81 15.7205C147.062 15.3596 146.746 14.4629 147.107 13.7151C147.468 12.9673 148.365 12.651 149.112 13.0119C149.86 13.3728 150.176 14.2695 149.816 15.0173C149.555 15.5568 149.019 15.873 148.458 15.873C148.238 15.873 148.019 15.8246 147.81 15.7242V15.7205ZM66.74 12.0334C66.4349 11.2633 66.8144 10.389 67.5883 10.0839C68.3622 9.77879 69.2327 10.162 69.5378 10.9322C69.8429 11.706 69.4634 12.5766 68.6896 12.8817C68.511 12.9561 68.3212 12.9896 68.1389 12.9896C67.5362 12.9896 66.9744 12.625 66.74 12.0372V12.0334ZM141.017 12.7664C140.243 12.465 139.863 11.5944 140.161 10.8205C140.462 10.0467 141.333 9.66718 142.107 9.96854C142.881 10.2699 143.26 11.1405 142.962 11.9144C142.728 12.5097 142.162 12.8668 141.563 12.8668C141.381 12.8668 141.195 12.8333 141.017 12.7627V12.7664ZM73.7904 9.43278C73.5448 8.64031 73.9876 7.79947 74.7801 7.55392C75.5725 7.30837 76.4134 7.75111 76.6589 8.5473C76.9045 9.33977 76.4617 10.1769 75.6655 10.4262C75.5204 10.4708 75.3679 10.4931 75.2228 10.4931C74.5829 10.4931 73.9876 10.0802 73.7904 9.43278ZM134.018 10.3294C133.222 10.0876 132.776 9.24676 133.021 8.45429C133.263 7.65809 134.104 7.21535 134.896 7.45719C135.689 7.69902 136.135 8.53986 135.893 9.33233C135.696 9.9797 135.097 10.3964 134.457 10.3964C134.312 10.3964 134.16 10.3741 134.018 10.3294ZM81.0156 7.37161C80.8333 6.56054 81.3356 5.75319 82.143 5.57088C82.954 5.38486 83.7577 5.89085 83.9437 6.6982C84.1297 7.50927 83.6237 8.31291 82.8164 8.49893C82.701 8.52498 82.5894 8.53986 82.4778 8.53986C81.7932 8.53986 81.1719 8.06735 81.0156 7.37161ZM126.864 8.43196C126.053 8.24966 125.547 7.44602 125.733 6.63495C125.911 5.82388 126.719 5.31417 127.53 5.50019C128.337 5.6825 128.847 6.48985 128.661 7.2972C128.504 7.99666 127.883 8.46917 127.199 8.46917C127.087 8.46917 126.979 8.45801 126.864 8.43196ZM88.3748 5.86108C88.2521 5.03885 88.8139 4.27242 89.6361 4.14964C90.4583 4.02686 91.2248 4.59238 91.3475 5.41462C91.4703 6.23313 90.9048 6.99956 90.0826 7.12234C90.0082 7.1335 89.9337 7.14094 89.8593 7.14094C89.1264 7.14094 88.4902 6.60519 88.3748 5.86108ZM119.59 7.07397C118.768 6.9512 118.202 6.19221 118.321 5.36997C118.444 4.54774 119.203 3.98222 120.029 4.10127C120.848 4.22405 121.413 4.98676 121.294 5.809C121.182 6.5531 120.542 7.09258 119.81 7.09258C119.735 7.09258 119.664 7.08513 119.59 7.07397ZM95.827 4.90491C95.7638 4.07895 96.3851 3.35717 97.2111 3.29392C98.0408 3.23067 98.7588 3.852 98.8184 4.67796C98.8853 5.50763 98.2603 6.22569 97.438 6.28894C97.3971 6.28894 97.3599 6.28894 97.319 6.28894C96.5414 6.28894 95.8829 5.68622 95.8233 4.89747L95.827 4.90491ZM112.235 6.26662C111.405 6.20709 110.784 5.48531 110.843 4.65935C110.906 3.82968 111.624 3.20835 112.454 3.26788C113.284 3.33113 113.901 4.04919 113.842 4.87514C113.786 5.66389 113.127 6.26662 112.346 6.26662C112.309 6.26662 112.272 6.26662 112.235 6.2629V6.26662ZM103.331 4.50681C103.331 3.67341 104.001 3 104.831 3C105.664 3 106.338 3.66969 106.338 4.49937C106.338 5.33277 105.668 6.00618 104.838 6.00618C104.005 6.00618 103.331 5.33649 103.331 4.50681Z" fill="url(#paint0_linear_2465_4290)"/>
<rect x="21.0352" y="18" width="166.005" height="175" rx="83.0026" fill="url(#paint1_linear_2465_4290)"/>
<rect x="26.7335" y="19.7023" width="162.601" height="171.595" rx="81.3003" fill="url(#paint2_linear_2465_4290)"/>
<rect x="26.7335" y="19.7023" width="162.601" height="171.595" rx="81.3003" stroke="url(#paint3_linear_2465_4290)" stroke-width="3.40452"/>
<rect x="26.7335" y="19.7023" width="162.601" height="171.595" rx="81.3003" stroke="url(#paint4_linear_2465_4290)" stroke-width="3.40452"/>
<rect x="3" y="69" width="222" height="138" fill="url(#paint5_linear_2465_4290)"/>
</g>
<defs>
<filter id="filter0_f_2465_4290" x="0" y="0" width="228" height="210" filterUnits="userSpaceOnUse" color-interpolation-filters="sRGB">
<feFlood flood-opacity="0" result="BackgroundImageFix"/>
<feBlend mode="normal" in="SourceGraphic" in2="BackgroundImageFix" result="shape"/>
<feGaussianBlur stdDeviation="1.5" result="effect1_foregroundBlur_2465_4290"/>
</filter>
<linearGradient id="paint0_linear_2465_4290" x1="105" y1="3" x2="105" y2="207" gradientUnits="userSpaceOnUse">
<stop stop-color="#FFB703"/>
<stop offset="0.635966" stop-color="#FFB703" stop-opacity="0"/>
<stop offset="1" stop-color="#FFB703" stop-opacity="0"/>
</linearGradient>
<linearGradient id="paint1_linear_2465_4290" x1="54.7691" y1="17.5819" x2="53.371" y2="193.337" gradientUnits="userSpaceOnUse">
<stop stop-color="white"/>
<stop offset="0.15625" stop-color="#E8E9EA"/>
<stop offset="0.758565" stop-color="white"/>
<stop offset="0.833789" stop-color="#D2D2D2"/>
<stop offset="0.91676" stop-color="#AAAAAA"/>
<stop offset="1" stop-color="#8A8A8A"/>
</linearGradient>
<linearGradient id="paint2_linear_2465_4290" x1="108.034" y1="18" x2="108.034" y2="193" gradientUnits="userSpaceOnUse">
<stop stop-color="white"/>
<stop offset="0.831735" stop-color="#F2F2F2"/>
<stop offset="1" stop-color="#BFBFBF"/>
</linearGradient>
<linearGradient id="paint3_linear_2465_4290" x1="176.838" y1="23.5271" x2="62.3031" y2="202.282" gradientUnits="userSpaceOnUse">
<stop offset="0.670529" stop-color="#F0F0F0"/>
<stop offset="0.925805" stop-color="white"/>
<stop offset="1" stop-color="#B8B8B8"/>
</linearGradient>
<linearGradient id="paint4_linear_2465_4290" x1="43.9426" y1="-9.91197" x2="97.0197" y2="77.1198" gradientUnits="userSpaceOnUse">
<stop stop-color="white" stop-opacity="0.4"/>
<stop offset="1" stop-color="white" stop-opacity="0"/>
</linearGradient>
<linearGradient id="paint5_linear_2465_4290" x1="114" y1="69" x2="114" y2="207" gradientUnits="userSpaceOnUse">
<stop stop-color="white" stop-opacity="0"/>
<stop offset="0.432292" stop-color="white"/>
<stop offset="1" stop-color="white"/>
</linearGradient>
</defs>
</svg>
