
<!-- Generator: Adobe Illustrator 24.0.1, SVG Export Plug-In . SVG Version: 6.00 Build 0)  -->
<svg version="1.1" id="Layer_2" xmlns="http://www.w3.org/2000/svg" xmlns:xlink="http://www.w3.org/1999/xlink" x="0px" y="0px"
	 width="20px" height="20px" viewBox="0 0 20 20" style="enable-background:new 0 0 20 20;" xml:space="preserve">
<style type="text/css">
	.st0{fill:#F7961F;}
</style>
<path class="st0" d="M20,20L20,20L20,20l0-7.3c0-3.6-0.8-6.4-5-6.4c-2,0-3.4,1.1-3.9,2.2h-0.1V6.6h-4V20h4.1v-6.6
	c0-1.7,0.3-3.4,2.5-3.4c2.1,0,2.2,2,2.2,3.5V20H20z"/>
<path class="st0" d="M0.3,6.6h4.1V20H0.3V6.6z"/>
<path class="st0" d="M2.4,0C1.1,0,0,1.1,0,2.4c0,1.3,1.1,2.4,2.4,2.4c1.3,0,2.4-1.1,2.4-2.4C4.8,1.1,3.7,0,2.4,0L2.4,0z"/>
</svg>
