
<!-- Generator: Adobe Illustrator 24.0.1, SVG Export Plug-In . SVG Version: 6.00 Build 0)  -->
<svg version="1.1" id="Layer_3" xmlns="http://www.w3.org/2000/svg" xmlns:xlink="http://www.w3.org/1999/xlink" x="0px" y="0px"
	 width="184px" height="72px" viewBox="0 0 184 72" style="enable-background:new 0 0 184 72;" xml:space="preserve">
<style type="text/css">
	.st0{clip-path:url(#SVGID_2_);}
	.st1{fill:#FFFFFF;}
</style>
<g>
	<defs>
		<rect id="SVGID_1_" width="184" height="72"/>
	</defs>
	<clipPath id="SVGID_2_">
		<use xlink:href="#SVGID_1_"  style="overflow:visible;"/>
	</clipPath>
	<g class="st0">
		<path class="st1" d="M124.2,32.7c-0.3,0-0.5,0-0.7,0c-6.8,0.4-13.1-1-15.6-4.8c-2.6-3.8-1.4-10.1,1.5-16.2
			c0.1-0.2,0.2-0.4,0.3-0.6c3.9-8.3,2.4-10.5,2.4-10.5L106.5,11l-2.3,4.3l-0.2,0.3c0,0,0,0.1-0.1,0.1c-3.4,6.3-5.3,13.6-3.1,16.9
			c2.2,3.3,9.7,4.3,16.9,3.6c0,0,0.1,0,0.1,0l0.3,0l4.8-0.5l11.9-1.2C134.9,34.4,133.5,32.2,124.2,32.7z"/>
		<path class="st1" d="M122.6,23.8c-2.2,1.5-5.2,0.9-6.6-1.3c-1.5-2.2-0.9-5.1,1.3-6.6c2.2-1.5,5.2-0.9,6.6,1.3
			C125.4,19.4,124.8,22.4,122.6,23.8z"/>
		<path class="st1" d="M59,32.7c0.3,0,0.5,0,0.7,0c6.8,0.4,13.1-1,15.6-4.8c2.6-3.8,1.4-10.1-1.5-16.2c-0.1-0.2-0.2-0.4-0.3-0.6
			c-3.9-8.3-2.4-10.5-2.4-10.5L76.8,11l2.3,4.3l0.2,0.3c0,0,0,0.1,0.1,0.1c3.4,6.3,5.3,13.6,3.1,16.9c-2.2,3.3-9.7,4.3-16.9,3.6
			c0,0-0.1,0-0.1,0l-0.3,0l-4.8-0.5l-11.9-1.2C48.3,34.4,49.8,32.2,59,32.7z"/>
		<path class="st1" d="M60.7,23.8c2.2,1.4,5.1,0.8,6.6-1.3c1.5-2.2,0.9-5.1-1.2-6.6c-2.2-1.4-5.1-0.8-6.6,1.3S58.5,22.4,60.7,23.8z"
			/>
		<path class="st1" d="M104.7,8.4c-0.1,0.2-0.2,0.4-0.4,0.6c-3.4,5.8-8.1,10.3-12.7,10.3c-4.6,0-9.2-4.5-12.7-10.3
			c-0.1-0.2-0.2-0.4-0.4-0.6c-4.8-7.9-7.4-7.8-7.4-7.8L76.8,11l2.3,4.3l0.2,0.3c0,0,0,0.1,0.1,0.1c3.4,6.3,8.4,12,12.4,12
			c4,0,9-5.7,12.4-12c0,0,0-0.1,0.1-0.1l0.2-0.3l2.3-4.3l5.6-10.5C112.1,0.5,109.4,0.5,104.7,8.4z"/>
		<path class="st1" d="M91.6,9.7c2.6,0,4.8-2.2,4.8-4.8S94.3,0,91.6,0c-2.6,0-4.8,2.2-4.8,4.8S89,9.7,91.6,9.7z"/>
		<path class="st1" d="M23.9,64H25l2.8,6.5l2.8-6.5h1v7.8H31v-6.9h0l-3,6.9h-0.3l-3-6.9h0v6.9h-0.7L23.9,64L23.9,64z"/>
		<path class="st1" d="M38.3,70.8c-0.3,0.4-0.6,0.7-1,0.8c-0.4,0.2-0.8,0.3-1.2,0.3c-0.4,0-0.7-0.1-1.1-0.2
			c-0.3-0.1-0.6-0.3-0.8-0.6c-0.2-0.2-0.4-0.5-0.5-0.8c-0.1-0.3-0.2-0.7-0.2-1.1c0-0.4,0.1-0.7,0.2-1.1c0.1-0.3,0.3-0.6,0.5-0.8
			c0.2-0.2,0.5-0.4,0.8-0.6c0.3-0.1,0.6-0.2,1-0.2c0.4,0,0.7,0.1,1,0.2c0.3,0.1,0.5,0.3,0.7,0.5c0.2,0.2,0.4,0.5,0.5,0.8
			c0.1,0.3,0.2,0.6,0.2,0.9v0.5h-4.3c0,0.1,0,0.3,0.1,0.5c0.1,0.2,0.2,0.4,0.3,0.6c0.1,0.2,0.3,0.4,0.6,0.5c0.2,0.1,0.6,0.2,1,0.2
			c0.3,0,0.7-0.1,1-0.2c0.3-0.2,0.6-0.4,0.7-0.7L38.3,70.8z M37.8,68.8c0-0.2,0-0.4-0.1-0.6c-0.1-0.2-0.2-0.4-0.4-0.5
			s-0.3-0.3-0.6-0.4c-0.2-0.1-0.4-0.1-0.7-0.1c-0.4,0-0.7,0.1-0.9,0.2c-0.2,0.1-0.4,0.3-0.6,0.5c-0.1,0.2-0.2,0.4-0.3,0.6
			c-0.1,0.2-0.1,0.3-0.1,0.4H37.8z"/>
		<path class="st1" d="M44.6,70.9L44.6,70.9c-0.1,0.2-0.3,0.3-0.4,0.5c-0.2,0.1-0.3,0.2-0.5,0.3c-0.2,0.1-0.4,0.1-0.6,0.2
			c-0.2,0-0.4,0.1-0.6,0.1c-0.4,0-0.7-0.1-1.1-0.2c-0.3-0.1-0.6-0.3-0.8-0.6c-0.2-0.2-0.4-0.5-0.6-0.8c-0.1-0.3-0.2-0.7-0.2-1.1
			c0-0.4,0.1-0.7,0.2-1.1c0.1-0.3,0.3-0.6,0.6-0.8c0.2-0.2,0.5-0.4,0.8-0.6c0.3-0.1,0.7-0.2,1.1-0.2c0.2,0,0.4,0,0.6,0.1
			c0.2,0,0.4,0.1,0.6,0.2c0.2,0.1,0.3,0.2,0.5,0.3c0.2,0.1,0.3,0.3,0.4,0.5h0v-4.1h0.7v8.3h-0.7V70.9z M44.7,69.3
			c0-0.3-0.1-0.6-0.2-0.8c-0.1-0.3-0.3-0.5-0.5-0.7c-0.2-0.2-0.4-0.3-0.7-0.4c-0.3-0.1-0.5-0.2-0.8-0.2c-0.3,0-0.6,0.1-0.8,0.2
			c-0.2,0.1-0.5,0.3-0.6,0.4c-0.2,0.2-0.3,0.4-0.4,0.7c-0.1,0.3-0.1,0.5-0.1,0.8c0,0.3,0,0.6,0.1,0.8c0.1,0.3,0.2,0.5,0.4,0.7
			c0.2,0.2,0.4,0.3,0.6,0.4c0.2,0.1,0.5,0.2,0.8,0.2c0.3,0,0.6-0.1,0.8-0.2c0.3-0.1,0.5-0.3,0.7-0.4c0.2-0.2,0.3-0.4,0.5-0.7
			C44.6,69.8,44.7,69.6,44.7,69.3z"/>
		<path class="st1" d="M47.1,64.7c0-0.1,0-0.3,0.1-0.4c0.1-0.1,0.2-0.1,0.4-0.1c0.1,0,0.3,0,0.4,0.1c0.1,0.1,0.1,0.2,0.1,0.4
			c0,0.1,0,0.3-0.1,0.4c-0.1,0.1-0.2,0.1-0.4,0.1c-0.1,0-0.3,0-0.4-0.1C47.1,65,47.1,64.9,47.1,64.7z M47.2,66.7h0.7v5.1h-0.7V66.7z
			"/>
		<path class="st1" d="M54.3,71.1c-0.2,0.3-0.5,0.5-0.8,0.7c-0.3,0.1-0.7,0.2-1,0.2c-0.4,0-0.7-0.1-1.1-0.2
			c-0.3-0.1-0.6-0.3-0.8-0.6c-0.2-0.2-0.4-0.5-0.6-0.8c-0.1-0.3-0.2-0.7-0.2-1.1c0-0.4,0.1-0.7,0.2-1.1c0.1-0.3,0.3-0.6,0.6-0.8
			c0.2-0.2,0.5-0.4,0.8-0.6c0.3-0.1,0.7-0.2,1.1-0.2c0.4,0,0.7,0.1,1,0.2c0.3,0.2,0.6,0.4,0.9,0.6l-0.5,0.4
			c-0.2-0.2-0.4-0.4-0.6-0.5s-0.5-0.2-0.7-0.2c-0.3,0-0.6,0.1-0.8,0.2c-0.2,0.1-0.5,0.3-0.6,0.4c-0.2,0.2-0.3,0.4-0.4,0.7
			c-0.1,0.3-0.1,0.5-0.1,0.8c0,0.3,0,0.6,0.1,0.8c0.1,0.3,0.2,0.5,0.4,0.7c0.2,0.2,0.4,0.3,0.6,0.4s0.5,0.2,0.8,0.2
			c0.3,0,0.5-0.1,0.8-0.2c0.2-0.1,0.4-0.3,0.6-0.5L54.3,71.1z"/>
		<path class="st1" d="M59.5,69.7c0,0.2,0,0.5,0,0.7c0,0.2,0,0.4,0,0.5c0,0.2,0,0.3,0,0.5s0,0.3,0,0.4H59c0-0.2-0.1-0.5-0.1-0.8h0
			c-0.2,0.3-0.4,0.6-0.7,0.7c-0.3,0.2-0.6,0.2-1.1,0.2c-0.2,0-0.4,0-0.6-0.1c-0.2-0.1-0.4-0.1-0.6-0.3s-0.3-0.3-0.4-0.5
			c-0.1-0.2-0.2-0.4-0.2-0.7c0-0.4,0.1-0.7,0.3-0.9c0.2-0.2,0.4-0.4,0.7-0.5c0.3-0.1,0.6-0.2,0.9-0.2c0.3,0,0.6,0,0.9,0h0.8v-0.3
			c0-0.4-0.1-0.8-0.4-0.9c-0.3-0.2-0.6-0.3-1-0.3c-0.6,0-1.1,0.2-1.6,0.6l-0.4-0.5c0.2-0.2,0.5-0.4,0.9-0.5s0.7-0.2,1-0.2
			c0.6,0,1.1,0.1,1.5,0.4c0.4,0.3,0.6,0.8,0.6,1.4V69.7z M58.2,69.3c-0.3,0-0.5,0-0.8,0.1c-0.3,0-0.5,0.1-0.7,0.2
			c-0.2,0.1-0.4,0.2-0.5,0.4c-0.1,0.1-0.2,0.3-0.2,0.5c0,0.2,0,0.3,0.1,0.4c0.1,0.1,0.2,0.2,0.3,0.3c0.1,0.1,0.2,0.1,0.4,0.2
			c0.1,0,0.3,0.1,0.4,0.1c0.4,0,0.6-0.1,0.9-0.2c0.2-0.1,0.4-0.2,0.5-0.4c0.1-0.2,0.2-0.4,0.3-0.6c0.1-0.2,0.1-0.4,0.1-0.6v-0.3
			L58.2,69.3L58.2,69.3z"/>
		<path class="st1" d="M61.6,63.5h0.7v8.3h-0.7V63.5z"/>
		<path class="st1" d="M67.6,64h2.2c0.3,0,0.6,0,0.9,0.1c0.3,0,0.6,0.1,0.8,0.3c0.2,0.2,0.4,0.4,0.6,0.6c0.2,0.3,0.2,0.6,0.2,1.1
			c0,0.4-0.1,0.7-0.4,1c-0.2,0.3-0.6,0.5-1,0.6v0c0.3,0,0.5,0.1,0.7,0.2c0.2,0.1,0.4,0.2,0.6,0.4c0.2,0.2,0.3,0.4,0.4,0.6
			c0.1,0.2,0.1,0.5,0.1,0.7c0,0.4-0.1,0.8-0.3,1.1c-0.2,0.3-0.4,0.5-0.6,0.7c-0.3,0.2-0.5,0.3-0.8,0.3c-0.3,0.1-0.6,0.1-0.9,0.1
			h-2.5L67.6,64L67.6,64z M68.3,67.4h1.5c0.4,0,0.7,0,0.9-0.1c0.2-0.1,0.4-0.2,0.6-0.3c0.1-0.1,0.2-0.3,0.3-0.4
			c0-0.2,0.1-0.3,0.1-0.4c0-0.3,0-0.5-0.1-0.7c-0.1-0.2-0.2-0.3-0.4-0.4c-0.2-0.1-0.3-0.2-0.5-0.2c-0.2,0-0.4-0.1-0.6-0.1h-1.6
			L68.3,67.4L68.3,67.4z M68.3,71.1H70c0.4,0,0.8-0.1,1-0.2c0.3-0.1,0.5-0.2,0.6-0.4c0.1-0.2,0.2-0.3,0.3-0.5c0-0.2,0.1-0.3,0.1-0.5
			c0-0.3-0.1-0.5-0.2-0.7c-0.1-0.2-0.3-0.4-0.4-0.5c-0.2-0.1-0.4-0.2-0.6-0.3S70.3,68,70.1,68h-1.8V71.1z"/>
		<path class="st1" d="M78.9,70.4c0,0.1,0,0.2,0,0.3c0,0.1,0,0.3,0,0.4c0,0.1,0,0.3,0,0.4c0,0.1,0,0.2,0,0.3h-0.7c0-0.2,0-0.4,0-0.5
			c0-0.2,0-0.3,0-0.3h0c-0.1,0.3-0.4,0.5-0.7,0.7c-0.3,0.2-0.7,0.3-1.1,0.3c-0.4,0-0.7-0.1-1-0.2c-0.3-0.1-0.5-0.3-0.6-0.5
			c-0.1-0.2-0.2-0.4-0.3-0.7s-0.1-0.5-0.1-0.8v-3h0.7v3c0,0.2,0,0.4,0.1,0.6c0,0.2,0.1,0.4,0.2,0.5c0.1,0.2,0.2,0.3,0.4,0.4
			c0.2,0.1,0.4,0.1,0.6,0.1c0.2,0,0.5,0,0.7-0.1c0.2-0.1,0.4-0.2,0.6-0.4c0.2-0.2,0.3-0.4,0.4-0.6c0.1-0.3,0.1-0.6,0.1-0.9v-2.5h0.7
			L78.9,70.4L78.9,70.4z"/>
		<path class="st1" d="M80.9,70.5c0.1,0.3,0.3,0.5,0.6,0.6s0.6,0.2,0.9,0.2c0.1,0,0.3,0,0.4-0.1c0.1,0,0.3-0.1,0.4-0.2
			c0.1-0.1,0.2-0.2,0.3-0.3c0.1-0.1,0.1-0.2,0.1-0.4c0-0.2-0.1-0.4-0.2-0.5c-0.2-0.1-0.3-0.2-0.6-0.3c-0.2-0.1-0.5-0.1-0.7-0.2
			c-0.3,0-0.5-0.1-0.7-0.2c-0.2-0.1-0.4-0.2-0.6-0.4c-0.2-0.2-0.2-0.4-0.2-0.7c0-0.2,0.1-0.5,0.2-0.6c0.1-0.2,0.2-0.3,0.4-0.5
			c0.2-0.1,0.4-0.2,0.6-0.3s0.4-0.1,0.6-0.1c0.4,0,0.8,0.1,1.1,0.2c0.3,0.2,0.5,0.4,0.7,0.7l-0.6,0.4c-0.1-0.2-0.3-0.4-0.5-0.5
			c-0.2-0.1-0.4-0.2-0.7-0.2c-0.1,0-0.2,0-0.4,0.1s-0.2,0.1-0.3,0.2s-0.2,0.2-0.3,0.3c-0.1,0.1-0.1,0.2-0.1,0.4
			c0,0.2,0.1,0.4,0.2,0.5c0.2,0.1,0.3,0.2,0.6,0.3c0.2,0.1,0.5,0.1,0.7,0.2s0.5,0.1,0.7,0.2c0.2,0.1,0.4,0.2,0.6,0.4
			c0.2,0.2,0.2,0.5,0.2,0.8c0,0.3,0,0.5-0.1,0.7c-0.1,0.2-0.2,0.4-0.4,0.5c-0.2,0.1-0.4,0.2-0.6,0.3c-0.2,0.1-0.5,0.1-0.7,0.1
			c-0.4,0-0.8-0.1-1.2-0.3c-0.4-0.2-0.6-0.4-0.8-0.8L80.9,70.5z"/>
		<path class="st1" d="M85.8,64.7c0-0.1,0-0.3,0.1-0.4c0.1-0.1,0.2-0.1,0.4-0.1s0.3,0,0.4,0.1c0.1,0.1,0.1,0.2,0.1,0.4
			c0,0.1,0,0.3-0.1,0.4c-0.1,0.1-0.2,0.1-0.4,0.1s-0.3,0-0.4-0.1C85.8,65,85.8,64.9,85.8,64.7z M85.9,66.7h0.7v5.1h-0.7V66.7z"/>
		<path class="st1" d="M88.7,68.2c0-0.1,0-0.2,0-0.3c0-0.1,0-0.3,0-0.4c0-0.1,0-0.3,0-0.4c0-0.1,0-0.2,0-0.3h0.7c0,0.2,0,0.4,0,0.5
			c0,0.2,0,0.3,0,0.3h0c0.1-0.3,0.4-0.5,0.7-0.7c0.3-0.2,0.7-0.3,1.1-0.3c0.4,0,0.7,0.1,1,0.2c0.2,0.1,0.4,0.3,0.6,0.5
			c0.1,0.2,0.2,0.4,0.3,0.7c0.1,0.3,0.1,0.5,0.1,0.8v3h-0.7v-3c0-0.2,0-0.4-0.1-0.6c0-0.2-0.1-0.4-0.2-0.5c-0.1-0.2-0.2-0.3-0.4-0.4
			c-0.2-0.1-0.4-0.1-0.6-0.1c-0.2,0-0.5,0-0.7,0.1c-0.2,0.1-0.4,0.2-0.6,0.4c-0.2,0.2-0.3,0.4-0.4,0.6c-0.1,0.3-0.1,0.6-0.1,0.9v2.5
			h-0.7L88.7,68.2L88.7,68.2z"/>
		<path class="st1" d="M99.5,70.8c-0.3,0.4-0.6,0.7-1,0.8c-0.4,0.2-0.8,0.3-1.2,0.3c-0.4,0-0.7-0.1-1.1-0.2
			c-0.3-0.1-0.6-0.3-0.8-0.6c-0.2-0.2-0.4-0.5-0.5-0.8c-0.1-0.3-0.2-0.7-0.2-1.1c0-0.4,0.1-0.7,0.2-1.1c0.1-0.3,0.3-0.6,0.5-0.8
			c0.2-0.2,0.5-0.4,0.8-0.6c0.3-0.1,0.6-0.2,1-0.2c0.4,0,0.7,0.1,1,0.2c0.3,0.1,0.5,0.3,0.7,0.5c0.2,0.2,0.4,0.5,0.5,0.8
			c0.1,0.3,0.2,0.6,0.2,0.9v0.5h-4.3c0,0.1,0,0.3,0.1,0.5c0.1,0.2,0.2,0.4,0.3,0.6c0.1,0.2,0.3,0.4,0.6,0.5c0.2,0.1,0.6,0.2,1,0.2
			c0.3,0,0.7-0.1,1-0.2c0.3-0.2,0.6-0.4,0.7-0.7L99.5,70.8z M99,68.8c0-0.2,0-0.4-0.1-0.6c-0.1-0.2-0.2-0.4-0.4-0.5
			s-0.3-0.3-0.6-0.4c-0.2-0.1-0.4-0.1-0.7-0.1c-0.4,0-0.7,0.1-0.9,0.2c-0.2,0.1-0.4,0.3-0.6,0.5c-0.1,0.2-0.2,0.4-0.3,0.6
			c-0.1,0.2-0.1,0.3-0.1,0.4H99z"/>
		<path class="st1" d="M101.4,70.5c0.1,0.3,0.3,0.5,0.6,0.6c0.3,0.1,0.6,0.2,0.9,0.2c0.1,0,0.3,0,0.4-0.1c0.1,0,0.3-0.1,0.4-0.2
			c0.1-0.1,0.2-0.2,0.3-0.3c0.1-0.1,0.1-0.2,0.1-0.4c0-0.2-0.1-0.4-0.2-0.5s-0.3-0.2-0.6-0.3c-0.2-0.1-0.5-0.1-0.7-0.2
			c-0.3,0-0.5-0.1-0.7-0.2c-0.2-0.1-0.4-0.2-0.6-0.4c-0.2-0.2-0.2-0.4-0.2-0.7c0-0.2,0.1-0.5,0.2-0.6c0.1-0.2,0.2-0.3,0.4-0.5
			s0.4-0.2,0.6-0.3s0.4-0.1,0.6-0.1c0.4,0,0.8,0.1,1.1,0.2c0.3,0.2,0.5,0.4,0.7,0.7l-0.6,0.4c-0.1-0.2-0.3-0.4-0.5-0.5
			c-0.2-0.1-0.4-0.2-0.7-0.2c-0.1,0-0.2,0-0.4,0.1c-0.1,0-0.2,0.1-0.3,0.2c-0.1,0.1-0.2,0.2-0.3,0.3c-0.1,0.1-0.1,0.2-0.1,0.4
			c0,0.2,0.1,0.4,0.2,0.5c0.2,0.1,0.3,0.2,0.6,0.3c0.2,0.1,0.5,0.1,0.7,0.2c0.3,0,0.5,0.1,0.7,0.2c0.2,0.1,0.4,0.2,0.6,0.4
			c0.2,0.2,0.2,0.5,0.2,0.8c0,0.3,0,0.5-0.1,0.7c-0.1,0.2-0.2,0.4-0.4,0.5c-0.2,0.1-0.4,0.2-0.6,0.3c-0.2,0.1-0.5,0.1-0.7,0.1
			c-0.4,0-0.8-0.1-1.2-0.3c-0.4-0.2-0.6-0.4-0.8-0.8L101.4,70.5z"/>
		<path class="st1" d="M106.3,70.5c0.1,0.3,0.3,0.5,0.6,0.6c0.3,0.1,0.6,0.2,0.9,0.2c0.1,0,0.3,0,0.4-0.1c0.1,0,0.3-0.1,0.4-0.2
			c0.1-0.1,0.2-0.2,0.3-0.3c0.1-0.1,0.1-0.2,0.1-0.4c0-0.2-0.1-0.4-0.2-0.5s-0.3-0.2-0.6-0.3c-0.2-0.1-0.5-0.1-0.7-0.2
			c-0.3,0-0.5-0.1-0.7-0.2c-0.2-0.1-0.4-0.2-0.6-0.4c-0.2-0.2-0.2-0.4-0.2-0.7c0-0.2,0.1-0.5,0.2-0.6c0.1-0.2,0.2-0.3,0.4-0.5
			s0.4-0.2,0.6-0.3s0.4-0.1,0.6-0.1c0.4,0,0.8,0.1,1.1,0.2c0.3,0.2,0.5,0.4,0.7,0.7l-0.6,0.4c-0.1-0.2-0.3-0.4-0.5-0.5
			c-0.2-0.1-0.4-0.2-0.7-0.2c-0.1,0-0.2,0-0.4,0.1c-0.1,0-0.2,0.1-0.3,0.2c-0.1,0.1-0.2,0.2-0.3,0.3c-0.1,0.1-0.1,0.2-0.1,0.4
			c0,0.2,0.1,0.4,0.2,0.5c0.2,0.1,0.3,0.2,0.6,0.3c0.2,0.1,0.5,0.1,0.7,0.2c0.3,0,0.5,0.1,0.7,0.2c0.2,0.1,0.4,0.2,0.6,0.4
			c0.2,0.2,0.2,0.5,0.2,0.8c0,0.3,0,0.5-0.1,0.7c-0.1,0.2-0.2,0.4-0.4,0.5c-0.2,0.1-0.4,0.2-0.6,0.3c-0.2,0.1-0.5,0.1-0.7,0.1
			c-0.4,0-0.8-0.1-1.2-0.3c-0.4-0.2-0.6-0.4-0.8-0.8L106.3,70.5z"/>
		<path class="st1" d="M114.7,70.4c0.2,0.3,0.4,0.6,0.7,0.7c0.3,0.2,0.7,0.2,1,0.2c0.2,0,0.5,0,0.7-0.1c0.2-0.1,0.4-0.2,0.6-0.3
			c0.2-0.1,0.3-0.3,0.4-0.5c0.1-0.2,0.1-0.4,0.1-0.6c0-0.3-0.1-0.5-0.2-0.7s-0.3-0.3-0.5-0.4c-0.2-0.1-0.4-0.2-0.6-0.3
			c-0.2-0.1-0.5-0.2-0.7-0.2c-0.3-0.1-0.5-0.2-0.7-0.3c-0.2-0.1-0.5-0.2-0.6-0.4c-0.2-0.2-0.3-0.4-0.5-0.6c-0.1-0.2-0.2-0.6-0.2-0.9
			c0-0.3,0.1-0.7,0.2-0.9c0.1-0.3,0.3-0.5,0.6-0.7c0.2-0.2,0.5-0.3,0.8-0.4c0.3-0.1,0.6-0.1,0.9-0.1c0.4,0,0.8,0.1,1.2,0.2
			c0.4,0.2,0.7,0.4,0.9,0.8l-0.6,0.5c-0.2-0.3-0.4-0.4-0.6-0.6c-0.2-0.1-0.5-0.2-0.9-0.2c-0.2,0-0.5,0-0.7,0.1
			c-0.2,0.1-0.4,0.2-0.6,0.3c-0.2,0.1-0.3,0.3-0.4,0.5c-0.1,0.2-0.1,0.4-0.1,0.6c0,0.4,0.1,0.7,0.3,0.9c0.2,0.2,0.4,0.4,0.7,0.5
			c0.3,0.1,0.6,0.2,1,0.3c0.3,0.1,0.7,0.2,1,0.4c0.3,0.2,0.5,0.4,0.7,0.6c0.2,0.3,0.3,0.7,0.3,1.1c0,0.4-0.1,0.7-0.2,0.9
			c-0.1,0.3-0.3,0.5-0.5,0.7c-0.2,0.2-0.5,0.3-0.8,0.4c-0.3,0.1-0.6,0.1-0.9,0.1c-0.5,0-1-0.1-1.4-0.3c-0.4-0.2-0.8-0.5-1.1-0.9
			L114.7,70.4z"/>
		<path class="st1" d="M120.4,69.3c0-0.4,0.1-0.7,0.2-1.1c0.1-0.3,0.3-0.6,0.6-0.8c0.2-0.2,0.5-0.4,0.8-0.6c0.3-0.1,0.7-0.2,1.1-0.2
			s0.7,0.1,1.1,0.2c0.3,0.1,0.6,0.3,0.8,0.6c0.2,0.2,0.4,0.5,0.6,0.8c0.1,0.3,0.2,0.7,0.2,1.1c0,0.4-0.1,0.7-0.2,1.1
			c-0.1,0.3-0.3,0.6-0.6,0.8c-0.2,0.2-0.5,0.4-0.8,0.6c-0.3,0.1-0.7,0.2-1.1,0.2c-0.4,0-0.7-0.1-1.1-0.2c-0.3-0.1-0.6-0.3-0.8-0.6
			c-0.2-0.2-0.4-0.5-0.6-0.8C120.4,70,120.4,69.7,120.4,69.3z M121,69.3c0,0.3,0,0.6,0.1,0.8c0.1,0.3,0.2,0.5,0.4,0.7
			c0.2,0.2,0.4,0.3,0.6,0.4c0.2,0.1,0.5,0.2,0.8,0.2c0.3,0,0.6-0.1,0.8-0.2c0.2-0.1,0.5-0.3,0.6-0.4c0.2-0.2,0.3-0.4,0.4-0.7
			c0.1-0.3,0.1-0.5,0.1-0.8c0-0.3,0-0.6-0.1-0.8c-0.1-0.3-0.2-0.5-0.4-0.7c-0.2-0.2-0.4-0.3-0.6-0.4c-0.2-0.1-0.5-0.2-0.8-0.2
			c-0.3,0-0.6,0.1-0.8,0.2c-0.2,0.1-0.5,0.3-0.6,0.4c-0.2,0.2-0.3,0.4-0.4,0.7C121.1,68.7,121,69,121,69.3z"/>
		<path class="st1" d="M127.5,63.5h0.7v8.3h-0.7V63.5z"/>
		<path class="st1" d="M134.6,70.4c0,0.1,0,0.2,0,0.3c0,0.1,0,0.3,0,0.4c0,0.1,0,0.3,0,0.4c0,0.1,0,0.2,0,0.3H134c0-0.2,0-0.4,0-0.5
			c0-0.2,0-0.3,0-0.3h0c-0.1,0.3-0.4,0.5-0.7,0.7c-0.3,0.2-0.7,0.3-1.1,0.3c-0.4,0-0.7-0.1-1-0.2c-0.3-0.1-0.5-0.3-0.6-0.5
			c-0.1-0.2-0.2-0.4-0.3-0.7c-0.1-0.3-0.1-0.5-0.1-0.8v-3h0.7v3c0,0.2,0,0.4,0.1,0.6c0,0.2,0.1,0.4,0.2,0.5c0.1,0.2,0.2,0.3,0.4,0.4
			c0.2,0.1,0.4,0.1,0.6,0.1c0.2,0,0.5,0,0.7-0.1c0.2-0.1,0.4-0.2,0.6-0.4c0.2-0.2,0.3-0.4,0.4-0.6c0.1-0.3,0.1-0.6,0.1-0.9v-2.5h0.7
			L134.6,70.4L134.6,70.4z"/>
		<path class="st1" d="M139.1,67.3h-1.5v3.3c0,0.2,0.1,0.4,0.2,0.5c0.1,0.1,0.3,0.2,0.5,0.2c0.1,0,0.3,0,0.4,0s0.3-0.1,0.4-0.1
			l0.1,0.6c-0.1,0-0.3,0.1-0.4,0.1c-0.2,0-0.3,0.1-0.4,0.1c-0.2,0-0.4,0-0.6-0.1c-0.2-0.1-0.3-0.2-0.4-0.3c-0.1-0.1-0.2-0.3-0.2-0.4
			c-0.1-0.2-0.1-0.3-0.1-0.5v-3.3h-1.1v-0.6h1.1v-1.5h0.7v1.5h1.5V67.3z"/>
		<path class="st1" d="M140.5,64.7c0-0.1,0.1-0.3,0.1-0.4c0.1-0.1,0.2-0.1,0.4-0.1s0.3,0,0.4,0.1c0.1,0.1,0.1,0.2,0.1,0.4
			c0,0.1,0,0.3-0.1,0.4c-0.1,0.1-0.2,0.1-0.4,0.1s-0.3,0-0.4-0.1C140.5,65,140.5,64.9,140.5,64.7z M140.7,66.7h0.7v5.1h-0.7V66.7z"
			/>
		<path class="st1" d="M143.1,69.3c0-0.4,0.1-0.7,0.2-1.1c0.1-0.3,0.3-0.6,0.6-0.8c0.2-0.2,0.5-0.4,0.8-0.6c0.3-0.1,0.7-0.2,1.1-0.2
			c0.4,0,0.7,0.1,1.1,0.2c0.3,0.1,0.6,0.3,0.9,0.6c0.2,0.2,0.4,0.5,0.6,0.8c0.1,0.3,0.2,0.7,0.2,1.1c0,0.4-0.1,0.7-0.2,1.1
			c-0.1,0.3-0.3,0.6-0.6,0.8c-0.2,0.2-0.5,0.4-0.9,0.6c-0.3,0.1-0.7,0.2-1.1,0.2s-0.7-0.1-1.1-0.2c-0.3-0.1-0.6-0.3-0.8-0.6
			c-0.2-0.2-0.4-0.5-0.6-0.8C143.2,70,143.1,69.7,143.1,69.3z M143.8,69.3c0,0.3,0,0.6,0.1,0.8c0.1,0.3,0.2,0.5,0.4,0.7
			c0.2,0.2,0.4,0.3,0.6,0.4c0.2,0.1,0.5,0.2,0.8,0.2c0.3,0,0.6-0.1,0.8-0.2c0.2-0.1,0.5-0.3,0.6-0.4c0.2-0.2,0.3-0.4,0.4-0.7
			c0.1-0.3,0.1-0.5,0.1-0.8c0-0.3,0-0.6-0.1-0.8c-0.1-0.3-0.2-0.5-0.4-0.7c-0.2-0.2-0.4-0.3-0.6-0.4c-0.2-0.1-0.5-0.2-0.8-0.2
			c-0.3,0-0.6,0.1-0.8,0.2c-0.2,0.1-0.5,0.3-0.6,0.4c-0.2,0.2-0.3,0.4-0.4,0.7C143.8,68.7,143.8,69,143.8,69.3z"/>
		<path class="st1" d="M150.2,68.2c0-0.1,0-0.2,0-0.3c0-0.1,0-0.3,0-0.4c0-0.1,0-0.3,0-0.4s0-0.2,0-0.3h0.7c0,0.2,0,0.4,0,0.5
			c0,0.2,0,0.3,0,0.3h0c0.1-0.3,0.4-0.5,0.7-0.7c0.3-0.2,0.7-0.3,1.1-0.3c0.4,0,0.7,0.1,1,0.2c0.2,0.1,0.4,0.3,0.6,0.5
			c0.1,0.2,0.2,0.4,0.3,0.7c0.1,0.3,0.1,0.5,0.1,0.8v3h-0.7v-3c0-0.2,0-0.4-0.1-0.6c0-0.2-0.1-0.4-0.2-0.5c-0.1-0.2-0.2-0.3-0.4-0.4
			c-0.2-0.1-0.4-0.1-0.6-0.1c-0.2,0-0.5,0-0.7,0.1c-0.2,0.1-0.4,0.2-0.6,0.4c-0.2,0.2-0.3,0.4-0.4,0.6c-0.1,0.3-0.1,0.6-0.1,0.9v2.5
			h-0.7L150.2,68.2L150.2,68.2z"/>
		<path class="st1" d="M156.5,70.5c0.1,0.3,0.3,0.5,0.6,0.6c0.3,0.1,0.6,0.2,0.9,0.2c0.1,0,0.3,0,0.4-0.1c0.1,0,0.3-0.1,0.4-0.2
			c0.1-0.1,0.2-0.2,0.3-0.3c0.1-0.1,0.1-0.2,0.1-0.4c0-0.2-0.1-0.4-0.2-0.5c-0.2-0.1-0.3-0.2-0.6-0.3c-0.2-0.1-0.5-0.1-0.7-0.2
			c-0.3,0-0.5-0.1-0.7-0.2c-0.2-0.1-0.4-0.2-0.6-0.4c-0.1-0.2-0.2-0.4-0.2-0.7c0-0.2,0.1-0.5,0.2-0.6c0.1-0.2,0.2-0.3,0.4-0.5
			c0.2-0.1,0.4-0.2,0.6-0.3s0.4-0.1,0.6-0.1c0.4,0,0.8,0.1,1.1,0.2c0.3,0.2,0.5,0.4,0.7,0.7l-0.6,0.4c-0.1-0.2-0.3-0.4-0.5-0.5
			c-0.2-0.1-0.4-0.2-0.7-0.2c-0.1,0-0.2,0-0.4,0.1c-0.1,0-0.2,0.1-0.3,0.2c-0.1,0.1-0.2,0.2-0.3,0.3c-0.1,0.1-0.1,0.2-0.1,0.4
			c0,0.2,0.1,0.4,0.2,0.5s0.3,0.2,0.6,0.3c0.2,0.1,0.5,0.1,0.7,0.2c0.3,0,0.5,0.1,0.7,0.2c0.2,0.1,0.4,0.2,0.6,0.4
			c0.2,0.2,0.2,0.5,0.2,0.8c0,0.3,0,0.5-0.1,0.7c-0.1,0.2-0.2,0.4-0.4,0.5c-0.2,0.1-0.4,0.2-0.6,0.3c-0.2,0.1-0.5,0.1-0.7,0.1
			c-0.4,0-0.8-0.1-1.2-0.3c-0.4-0.2-0.6-0.4-0.8-0.8L156.5,70.5z"/>
		<path class="st1" d="M2.6,49h4.1v2H2.6v5.7H0V44h8c0,0.1,0,0.3,0,0.4c0,0.1,0,0.2,0,0.4c0,0.4-0.1,0.7-0.3,1
			C7.5,45.9,7.1,46,6.5,46H2.6V49z"/>
		<path class="st1" d="M13.4,55.1c0.3,0,0.6,0,0.8-0.1c0.2-0.1,0.5-0.2,0.7-0.3c0.2-0.1,0.4-0.2,0.5-0.3c0.1-0.1,0.3-0.2,0.4-0.3
			c0.2,0.2,0.3,0.4,0.5,0.7c0.2,0.3,0.2,0.5,0.2,0.7c0,0.3-0.2,0.5-0.5,0.8c-0.3,0.2-0.6,0.4-1.1,0.5c-0.5,0.1-1.1,0.2-1.7,0.2
			c-0.6,0-1.2-0.1-1.8-0.2c-0.6-0.2-1.1-0.4-1.6-0.8c-0.5-0.4-0.8-0.9-1.1-1.5c-0.3-0.6-0.4-1.5-0.4-2.4c0-0.8,0.1-1.5,0.4-2.1
			c0.2-0.6,0.6-1.1,1-1.4c0.4-0.4,0.9-0.7,1.4-0.8c0.5-0.2,1.1-0.3,1.6-0.3c0.7,0,1.3,0.1,1.8,0.3c0.5,0.2,0.9,0.5,1.2,0.9
			c0.3,0.4,0.5,0.8,0.7,1.3c0.1,0.5,0.2,1,0.2,1.5c0,0.1,0,0.2,0,0.3c0,0.1,0,0.2,0,0.3c0,0.1,0,0.2,0,0.3c0,0.1,0,0.2,0,0.3h-5.6
			c0.1,0.7,0.3,1.3,0.7,1.7C11.9,54.9,12.5,55.1,13.4,55.1z M14.2,51.3c0-0.6-0.1-1.1-0.4-1.5c-0.2-0.4-0.7-0.6-1.3-0.6
			c-0.5,0-0.9,0.2-1.3,0.5c-0.3,0.4-0.5,0.9-0.5,1.5H14.2z"/>
		<path class="st1" d="M21.1,56.9c-0.1,0-0.2,0-0.4,0.1c-0.2,0-0.4,0-0.6,0c-0.2,0-0.4,0-0.6-0.1c-0.2,0-0.4-0.1-0.5-0.2
			c-0.2-0.1-0.3-0.3-0.4-0.5c-0.1-0.2-0.1-0.5-0.1-0.8V43.3c0,0,0.1,0,0.3,0c0.2,0,0.4,0,0.6,0c0.2,0,0.4,0,0.6,0.1
			c0.2,0,0.4,0.1,0.6,0.2s0.3,0.3,0.4,0.5c0.1,0.2,0.2,0.5,0.2,0.8L21.1,56.9L21.1,56.9z"/>
		<path class="st1" d="M26.2,56.9c-0.1,0-0.2,0-0.4,0.1c-0.2,0-0.4,0-0.6,0c-0.2,0-0.4,0-0.6-0.1c-0.2,0-0.4-0.1-0.5-0.2
			c-0.2-0.1-0.3-0.3-0.4-0.5c-0.1-0.2-0.1-0.5-0.1-0.8V43.3c0,0,0.1,0,0.3,0c0.2,0,0.4,0,0.6,0c0.2,0,0.4,0,0.6,0.1
			c0.2,0,0.4,0.1,0.6,0.2c0.2,0.1,0.3,0.3,0.4,0.5c0.1,0.2,0.2,0.5,0.2,0.8L26.2,56.9L26.2,56.9z"/>
		<path class="st1" d="M36.9,52.2c0,0.6-0.1,1.2-0.2,1.8c-0.2,0.6-0.4,1.1-0.8,1.5c-0.4,0.4-0.8,0.8-1.4,1.1
			c-0.6,0.3-1.3,0.4-2.1,0.4c-0.8,0-1.5-0.1-2.1-0.4c-0.6-0.3-1-0.6-1.4-1c-0.4-0.4-0.6-0.9-0.8-1.5c-0.2-0.6-0.2-1.2-0.2-1.8
			c0-0.6,0.1-1.3,0.3-1.8c0.2-0.6,0.5-1.1,0.9-1.5c0.4-0.4,0.9-0.8,1.4-1c0.6-0.3,1.2-0.4,2-0.4c0.8,0,1.5,0.1,2.1,0.4
			c0.6,0.3,1,0.6,1.4,1c0.4,0.4,0.6,0.9,0.8,1.5C36.8,50.9,36.9,51.6,36.9,52.2z M34.3,52.2c0-0.3,0-0.7-0.1-1
			c-0.1-0.3-0.1-0.6-0.3-0.9c-0.1-0.3-0.3-0.5-0.6-0.6c-0.2-0.2-0.6-0.2-0.9-0.2s-0.7,0.1-0.9,0.2c-0.2,0.2-0.4,0.4-0.6,0.6
			c-0.1,0.3-0.3,0.6-0.3,0.9c-0.1,0.3-0.1,0.7-0.1,1c0,0.3,0,0.7,0.1,1c0.1,0.3,0.2,0.7,0.3,0.9c0.1,0.3,0.3,0.5,0.6,0.7
			c0.2,0.2,0.6,0.2,0.9,0.2c0.4,0,0.7-0.1,1-0.2c0.2-0.2,0.4-0.4,0.6-0.7c0.1-0.3,0.2-0.6,0.3-0.9C34.2,52.9,34.3,52.6,34.3,52.2z"
			/>
		<path class="st1" d="M48.2,56.8h-2l-1.6-4.1l-1.8,4.1H41l-3.3-8.9c0.2-0.1,0.5-0.1,0.7-0.2c0.2,0,0.5-0.1,0.6-0.1
			c0.4,0,0.7,0.1,1,0.2c0.3,0.2,0.5,0.4,0.6,0.8l1.7,5.2l1.3-3.1l-0.9-2.9c0.2-0.1,0.5-0.1,0.7-0.2c0.2,0,0.4,0,0.6,0
			c0.3,0,0.6,0.1,0.9,0.2c0.2,0.2,0.4,0.4,0.5,0.8l1.6,5l1.2-4.3c0.2-0.6,0.4-1,0.6-1.3c0.2-0.3,0.6-0.4,1.1-0.4
			c0.3,0,0.5,0,0.7,0.1c0.2,0,0.4,0.1,0.6,0.2L48.2,56.8z"/>
		<path class="st1" d="M59.6,49.2h4.9V44c0.1,0,0.2,0,0.3,0c0.1,0,0.2,0,0.3,0c0.1,0,0.2,0,0.3,0c0.2,0,0.3,0,0.5,0.1
			c0.2,0,0.4,0.1,0.5,0.2c0.2,0.1,0.3,0.3,0.4,0.4c0.1,0.2,0.2,0.4,0.2,0.8v11.4h-2.6v-5.5h-4.9v5.5H57V44c0.1,0,0.2,0,0.3,0
			c0.1,0,0.2,0,0.3,0c0.1,0,0.2,0,0.3,0c0.2,0,0.4,0,0.6,0.1c0.2,0,0.4,0.1,0.5,0.2c0.2,0.1,0.3,0.3,0.4,0.5
			c0.1,0.2,0.2,0.4,0.2,0.8V49.2z"/>
		<path class="st1" d="M73.9,55.1c0.3,0,0.6,0,0.8-0.1c0.2-0.1,0.5-0.2,0.7-0.3c0.2-0.1,0.4-0.2,0.5-0.3c0.1-0.1,0.3-0.2,0.4-0.3
			c0.2,0.2,0.3,0.4,0.5,0.7c0.2,0.3,0.2,0.5,0.2,0.7c0,0.3-0.2,0.5-0.5,0.8c-0.3,0.2-0.6,0.4-1.1,0.5c-0.5,0.1-1.1,0.2-1.7,0.2
			c-0.6,0-1.2-0.1-1.8-0.2c-0.6-0.2-1.1-0.4-1.6-0.8c-0.5-0.4-0.8-0.9-1.1-1.5c-0.3-0.6-0.4-1.5-0.4-2.4c0-0.8,0.1-1.5,0.4-2.1
			c0.2-0.6,0.6-1.1,1-1.4c0.4-0.4,0.9-0.7,1.4-0.8c0.5-0.2,1.1-0.3,1.6-0.3c0.7,0,1.3,0.1,1.8,0.3c0.5,0.2,0.9,0.5,1.2,0.9
			c0.3,0.4,0.5,0.8,0.7,1.3c0.1,0.5,0.2,1,0.2,1.5c0,0.1,0,0.2,0,0.3c0,0.1,0,0.2,0,0.3c0,0.1,0,0.2,0,0.3c0,0.1,0,0.2,0,0.3h-5.6
			c0.1,0.7,0.3,1.3,0.7,1.7C72.4,54.9,73,55.1,73.9,55.1z M74.7,51.3c0-0.6-0.1-1.1-0.4-1.5s-0.7-0.6-1.3-0.6
			c-0.5,0-0.9,0.2-1.3,0.5c-0.3,0.4-0.5,0.9-0.5,1.5H74.7z"/>
		<path class="st1" d="M86.4,54.5c0,1,0.1,1.7,0.4,2.2c-0.2,0.1-0.4,0.2-0.6,0.2C86,57,85.8,57,85.6,57c-0.5,0-0.8-0.1-1-0.3
			c-0.2-0.2-0.4-0.4-0.4-0.8c-0.3,0.3-0.6,0.5-1.1,0.7c-0.5,0.2-1,0.3-1.7,0.3c-0.3,0-0.7,0-1-0.1c-0.3-0.1-0.7-0.3-0.9-0.5
			c-0.3-0.2-0.5-0.5-0.7-0.9c-0.2-0.4-0.3-0.8-0.3-1.3c0-0.6,0.2-1.2,0.5-1.6c0.3-0.4,0.7-0.7,1.2-1s1-0.4,1.5-0.5
			c0.5-0.1,1.1-0.1,1.5-0.2c0.2,0,0.3,0,0.4,0c0.1,0,0.3,0,0.4,0v-0.3c0-0.5-0.1-0.8-0.4-1c-0.3-0.2-0.7-0.3-1.3-0.3
			c-0.5,0-1,0.1-1.5,0.3c-0.4,0.2-0.8,0.4-1.3,0.6c-0.2-0.2-0.3-0.5-0.4-0.7C79,49.2,79,49,79,48.9c0-0.2,0.1-0.3,0.3-0.5
			c0.2-0.2,0.5-0.3,0.8-0.4c0.3-0.1,0.7-0.2,1.2-0.3c0.4-0.1,0.9-0.1,1.4-0.1c0.7,0,1.3,0.1,1.8,0.2c0.5,0.1,0.9,0.4,1.2,0.6
			c0.3,0.3,0.5,0.7,0.6,1.1c0.1,0.4,0.2,1,0.2,1.5V54.5z M84,52.3c-0.1,0-0.2,0-0.3,0c-0.1,0-0.2,0-0.3,0c-0.3,0-0.6,0.1-0.9,0.1
			c-0.3,0.1-0.6,0.1-0.8,0.3c-0.2,0.1-0.4,0.3-0.6,0.5c-0.2,0.2-0.2,0.5-0.2,0.8c0,0.4,0.1,0.7,0.3,0.9c0.2,0.2,0.5,0.4,1,0.4
			c0.2,0,0.5,0,0.7-0.1c0.2-0.1,0.4-0.1,0.6-0.2c0.2-0.1,0.3-0.2,0.4-0.3c0.1-0.1,0.1-0.2,0.1-0.3L84,52.3L84,52.3z"/>
		<path class="st1" d="M91.3,56.9c-0.1,0-0.2,0-0.4,0.1c-0.2,0-0.4,0-0.6,0c-0.2,0-0.4,0-0.6-0.1c-0.2,0-0.4-0.1-0.5-0.2
			c-0.2-0.1-0.3-0.3-0.4-0.5c-0.1-0.2-0.1-0.5-0.1-0.8V43.3c0,0,0.1,0,0.3,0c0.2,0,0.4,0,0.6,0c0.2,0,0.4,0,0.6,0.1
			c0.2,0,0.4,0.1,0.6,0.2c0.2,0.1,0.3,0.3,0.4,0.5c0.1,0.2,0.2,0.5,0.2,0.8L91.3,56.9L91.3,56.9z"/>
		<path class="st1" d="M93.7,55.4c-0.1-0.3-0.1-0.5-0.2-0.8c0-0.3,0-0.6,0-0.8v-8.8c0.1,0,0.2,0,0.3,0c0.1,0,0.2,0,0.3,0
			c0.1,0,0.2,0,0.3,0c0.2,0,0.4,0,0.6,0.1c0.2,0,0.4,0.1,0.6,0.2c0.2,0.1,0.3,0.3,0.4,0.5c0.1,0.2,0.2,0.5,0.2,0.8v1.3h2.7v1.9h-2.7
			v4.1c0,0.9,0.4,1.3,1.1,1.3c0.2,0,0.3,0,0.5-0.1c0.2-0.1,0.3-0.1,0.4-0.2c0.1-0.1,0.2-0.1,0.3-0.2c0.1-0.1,0.2-0.1,0.2-0.2
			c0.2,0.3,0.3,0.5,0.4,0.7c0.1,0.2,0.2,0.4,0.2,0.6c0,0.2-0.1,0.3-0.2,0.5c-0.1,0.2-0.3,0.3-0.6,0.4c-0.2,0.1-0.5,0.2-0.9,0.3
			C97.3,57,96.9,57,96.5,57c-0.8,0-1.4-0.2-1.8-0.5C94.2,56.3,93.9,55.9,93.7,55.4z"/>
		<path class="st1" d="M106.4,51.5c0-0.3,0-0.5,0-0.8c0-0.2-0.1-0.4-0.2-0.6c-0.1-0.2-0.2-0.3-0.4-0.4c-0.2-0.1-0.4-0.1-0.8-0.1
			c-0.5,0-0.9,0.1-1.2,0.3c-0.3,0.2-0.5,0.4-0.5,0.7v6.2h-2.6V43.3c0,0,0.1,0,0.3,0c0.2,0,0.4,0,0.6,0c0.2,0,0.4,0,0.6,0.1
			c0.2,0,0.4,0.1,0.6,0.2c0.2,0.1,0.3,0.3,0.4,0.5c0.1,0.2,0.2,0.5,0.2,0.8v3.8c0.1-0.1,0.2-0.2,0.4-0.4c0.2-0.1,0.3-0.2,0.6-0.4
			c0.2-0.1,0.5-0.2,0.8-0.3c0.3-0.1,0.6-0.1,1-0.1c0.9,0,1.6,0.2,2,0.5c0.4,0.4,0.7,0.8,0.8,1.4c0.1,0.3,0.1,0.6,0.1,1
			c0,0.3,0,0.7,0,1v5.4h-2.6L106.4,51.5L106.4,51.5z"/>
		<path class="st1" d="M124.8,47.7c0,0.8-0.1,1.5-0.4,2.1c-0.3,0.6-0.7,1-1.1,1.4c-0.5,0.3-1,0.6-1.7,0.8c-0.6,0.2-1.3,0.2-2,0.2
			h-0.9v4.6H116V44c0.6-0.1,1.2-0.1,1.8-0.1c0.6,0,1.1,0,1.6,0c1.9,0,3.2,0.3,4.1,1C124.3,45.5,124.8,46.5,124.8,47.7z M122.1,47.9
			c0-0.8-0.2-1.3-0.7-1.7c-0.5-0.3-1.1-0.5-1.8-0.5c-0.4,0-0.8,0-1,0.1v4.6h0.6c0.9,0,1.7-0.2,2.1-0.5
			C121.9,49.4,122.1,48.8,122.1,47.9z"/>
		<path class="st1" d="M133.7,54.5c0,1,0.1,1.7,0.4,2.2c-0.2,0.1-0.4,0.2-0.6,0.2c-0.2,0-0.4,0.1-0.6,0.1c-0.5,0-0.8-0.1-1-0.3
			c-0.2-0.2-0.4-0.4-0.4-0.8c-0.3,0.3-0.6,0.5-1.1,0.7c-0.5,0.2-1,0.3-1.7,0.3c-0.3,0-0.7,0-1-0.1c-0.3-0.1-0.7-0.3-0.9-0.5
			c-0.3-0.2-0.5-0.5-0.7-0.9c-0.2-0.4-0.3-0.8-0.3-1.3c0-0.6,0.2-1.2,0.5-1.6c0.3-0.4,0.7-0.7,1.2-1c0.5-0.2,1-0.4,1.5-0.5
			c0.5-0.1,1.1-0.1,1.5-0.2c0.2,0,0.3,0,0.4,0c0.1,0,0.3,0,0.4,0v-0.3c0-0.5-0.1-0.8-0.4-1c-0.3-0.2-0.7-0.3-1.3-0.3
			c-0.5,0-1,0.1-1.5,0.3c-0.4,0.2-0.8,0.4-1.3,0.6c-0.2-0.2-0.3-0.5-0.4-0.7c-0.1-0.3-0.2-0.5-0.2-0.6c0-0.2,0.1-0.3,0.3-0.5
			c0.2-0.2,0.5-0.3,0.8-0.4c0.3-0.1,0.7-0.2,1.2-0.3c0.4-0.1,0.9-0.1,1.4-0.1c0.7,0,1.3,0.1,1.8,0.2c0.5,0.1,0.9,0.4,1.2,0.6
			c0.3,0.3,0.5,0.7,0.6,1.1c0.1,0.4,0.2,1,0.2,1.5V54.5z M131.3,52.3c-0.1,0-0.2,0-0.3,0c-0.1,0-0.2,0-0.3,0c-0.3,0-0.6,0.1-0.9,0.1
			c-0.3,0.1-0.6,0.1-0.8,0.3c-0.2,0.1-0.4,0.3-0.6,0.5c-0.2,0.2-0.2,0.5-0.2,0.8c0,0.4,0.1,0.7,0.3,0.9c0.2,0.2,0.5,0.4,1,0.4
			c0.2,0,0.5,0,0.7-0.1c0.2-0.1,0.4-0.1,0.6-0.2c0.2-0.1,0.3-0.2,0.4-0.3c0.1-0.1,0.1-0.2,0.1-0.3L131.3,52.3L131.3,52.3z"/>
		<path class="st1" d="M138.5,48.6c0.1-0.1,0.2-0.2,0.3-0.4c0.1-0.1,0.3-0.3,0.5-0.4c0.2-0.1,0.4-0.2,0.6-0.3
			c0.2-0.1,0.5-0.1,0.7-0.1c0.2,0,0.3,0,0.5,0c0.2,0,0.3,0.1,0.5,0.1c0.1,0.1,0.3,0.2,0.4,0.3c0.1,0.1,0.1,0.3,0.1,0.4
			c0,0.3-0.1,0.6-0.2,1c-0.1,0.4-0.3,0.7-0.4,0.9c-0.2-0.2-0.4-0.3-0.7-0.4c-0.2-0.1-0.5-0.1-0.8-0.1c-0.4,0-0.7,0.1-1,0.3
			c-0.3,0.2-0.4,0.5-0.4,0.8v5.9H136v-9c0.1,0,0.1,0,0.2,0c0.1,0,0.2,0,0.3,0c0.1,0,0.2,0,0.4,0c0.4,0,0.8,0.1,1.1,0.2
			C138.2,48,138.4,48.3,138.5,48.6z"/>
		<path class="st1" d="M143.4,55.4c-0.1-0.3-0.1-0.5-0.2-0.8c0-0.3,0-0.6,0-0.8v-8.8c0.1,0,0.2,0,0.3,0c0.1,0,0.2,0,0.3,0
			c0.1,0,0.2,0,0.3,0c0.2,0,0.4,0,0.6,0.1c0.2,0,0.4,0.1,0.6,0.2c0.2,0.1,0.3,0.3,0.4,0.5c0.1,0.2,0.2,0.5,0.2,0.8v1.3h2.7v1.9h-2.7
			v4.1c0,0.9,0.4,1.3,1.1,1.3c0.2,0,0.3,0,0.5-0.1c0.2-0.1,0.3-0.1,0.4-0.2c0.1-0.1,0.2-0.1,0.3-0.2c0.1-0.1,0.2-0.1,0.2-0.2
			c0.2,0.3,0.3,0.5,0.4,0.7c0.1,0.2,0.2,0.4,0.2,0.6c0,0.2-0.1,0.3-0.2,0.5c-0.1,0.2-0.3,0.3-0.6,0.4c-0.2,0.1-0.5,0.2-0.9,0.3
			c-0.3,0.1-0.7,0.1-1.1,0.1c-0.8,0-1.4-0.2-1.8-0.5C143.9,56.3,143.6,55.9,143.4,55.4z"/>
		<path class="st1" d="M153.1,56.7h-2.6v-9c0.1,0,0.1,0,0.2,0c0.1,0,0.2,0,0.3,0c0.1,0,0.2,0,0.4,0c0.4,0,0.8,0.1,1.1,0.2
			c0.3,0.1,0.5,0.4,0.6,0.8c0.2-0.3,0.6-0.6,1-0.8c0.5-0.2,1.1-0.4,1.8-0.4c0.9,0,1.6,0.2,2,0.5s0.7,0.8,0.8,1.4
			c0.1,0.3,0.1,0.6,0.1,1c0,0.3,0,0.7,0,1v5.4h-2.6v-5.3c0-0.3,0-0.5,0-0.8c0-0.2-0.1-0.4-0.2-0.6c-0.1-0.2-0.2-0.3-0.4-0.4
			c-0.2-0.1-0.4-0.1-0.8-0.1c-0.5,0-0.9,0.1-1.2,0.3c-0.3,0.2-0.5,0.4-0.5,0.7V56.7z"/>
		<path class="st1" d="M165.3,55.1c0.3,0,0.6,0,0.8-0.1c0.2-0.1,0.5-0.2,0.7-0.3c0.2-0.1,0.4-0.2,0.5-0.3c0.1-0.1,0.3-0.2,0.4-0.3
			c0.2,0.2,0.3,0.4,0.5,0.7c0.2,0.3,0.2,0.5,0.2,0.7c0,0.3-0.2,0.5-0.5,0.8c-0.3,0.2-0.6,0.4-1.1,0.5c-0.5,0.1-1.1,0.2-1.7,0.2
			c-0.6,0-1.2-0.1-1.8-0.2c-0.6-0.2-1.1-0.4-1.6-0.8c-0.5-0.4-0.8-0.9-1.1-1.5c-0.3-0.6-0.4-1.5-0.4-2.4c0-0.8,0.1-1.5,0.4-2.1
			c0.2-0.6,0.6-1.1,1-1.4c0.4-0.4,0.9-0.7,1.4-0.8c0.5-0.2,1.1-0.3,1.6-0.3c0.7,0,1.3,0.1,1.8,0.3c0.5,0.2,0.9,0.5,1.2,0.9
			c0.3,0.4,0.5,0.8,0.7,1.3c0.1,0.5,0.2,1,0.2,1.5c0,0.1,0,0.2,0,0.3c0,0.1,0,0.2,0,0.3c0,0.1,0,0.2,0,0.3c0,0.1,0,0.2,0,0.3h-5.6
			c0.1,0.7,0.3,1.3,0.7,1.7C163.9,54.9,164.5,55.1,165.3,55.1z M166.2,51.3c0-0.6-0.1-1.1-0.4-1.5s-0.7-0.6-1.3-0.6
			c-0.5,0-0.9,0.2-1.3,0.5c-0.3,0.4-0.5,0.9-0.5,1.5H166.2z"/>
		<path class="st1" d="M172.8,48.6c0.1-0.1,0.2-0.2,0.3-0.4c0.1-0.1,0.3-0.3,0.5-0.4c0.2-0.1,0.4-0.2,0.6-0.3
			c0.2-0.1,0.5-0.1,0.7-0.1c0.2,0,0.3,0,0.5,0c0.2,0,0.3,0.1,0.5,0.1c0.1,0.1,0.3,0.2,0.4,0.3c0.1,0.1,0.1,0.3,0.1,0.4
			c0,0.3-0.1,0.6-0.2,1c-0.1,0.4-0.3,0.7-0.4,0.9c-0.2-0.2-0.4-0.3-0.6-0.4c-0.2-0.1-0.5-0.1-0.8-0.1c-0.4,0-0.7,0.1-1,0.3
			c-0.3,0.2-0.4,0.5-0.4,0.8v5.9h-2.6v-9c0.1,0,0.1,0,0.2,0c0.1,0,0.2,0,0.3,0c0.1,0,0.2,0,0.4,0c0.4,0,0.8,0.1,1.1,0.2
			C172.5,48,172.7,48.3,172.8,48.6z"/>
		<path class="st1" d="M183.9,48.8c0,0.2-0.1,0.4-0.2,0.7c-0.1,0.3-0.3,0.5-0.4,0.7c-0.1-0.1-0.3-0.2-0.5-0.3
			c-0.2-0.1-0.4-0.2-0.6-0.3c-0.2-0.1-0.5-0.2-0.7-0.2c-0.2-0.1-0.5-0.1-0.8-0.1c-0.1,0-0.3,0-0.4,0c-0.2,0-0.3,0.1-0.4,0.1
			c-0.1,0.1-0.2,0.1-0.3,0.2c-0.1,0.1-0.1,0.3-0.1,0.4c0,0.4,0.5,0.8,1.4,1c0.4,0.1,0.8,0.2,1.1,0.3c0.4,0.1,0.7,0.3,1,0.5
			c0.3,0.2,0.5,0.5,0.7,0.8c0.2,0.3,0.3,0.7,0.3,1.2c0,0.5-0.1,1-0.3,1.4c-0.2,0.4-0.5,0.7-0.8,1c-0.3,0.3-0.8,0.5-1.2,0.6
			c-0.5,0.1-1,0.2-1.5,0.2c-0.6,0-1,0-1.4-0.1c-0.4-0.1-0.7-0.2-1-0.3c-0.2-0.1-0.4-0.2-0.6-0.3c-0.2-0.1-0.3-0.3-0.3-0.6
			c0-0.2,0.1-0.4,0.2-0.7c0.1-0.2,0.3-0.5,0.4-0.7c0.1,0.1,0.3,0.2,0.4,0.3c0.2,0.1,0.4,0.2,0.6,0.3c0.2,0.1,0.5,0.2,0.7,0.2
			c0.3,0.1,0.5,0.1,0.8,0.1c0.2,0,0.3,0,0.5,0c0.2,0,0.3-0.1,0.5-0.2c0.1-0.1,0.2-0.2,0.3-0.3c0.1-0.1,0.1-0.3,0.1-0.5
			c0-0.4-0.1-0.6-0.4-0.8c-0.3-0.2-0.7-0.3-1.3-0.4c-0.4-0.1-0.7-0.2-1.1-0.3c-0.3-0.1-0.6-0.3-0.9-0.5c-0.3-0.2-0.5-0.5-0.6-0.8
			c-0.2-0.3-0.2-0.7-0.2-1.2c0-0.5,0.1-0.9,0.3-1.2c0.2-0.3,0.5-0.6,0.8-0.9c0.3-0.2,0.7-0.4,1.2-0.5c0.4-0.1,0.9-0.2,1.4-0.2
			c0.5,0,1,0,1.4,0.1c0.4,0.1,0.7,0.2,1,0.3C183.5,48.1,183.8,48.4,183.9,48.8z"/>
	</g>
</g>
</svg>
