<svg width="184" height="72" viewBox="0 0 184 72" fill="none" xmlns="http://www.w3.org/2000/svg">
<g clip-path="url(#clip0)">
<path d="M124.242 32.6529C123.989 32.6673 123.754 32.6818 123.528 32.6962C116.759 33.0864 110.454 31.7222 107.896 27.9246C105.335 24.124 106.464 17.8032 109.387 11.7078C109.488 11.5055 109.59 11.2945 109.697 11.0662C113.642 2.72513 112.096 0.548828 112.096 0.548828L106.487 11.0257L104.213 15.2887L104.059 15.5777C104.036 15.6182 104.019 15.6558 103.996 15.6962C100.626 22.0286 98.6738 29.2945 100.904 32.6066C103.134 35.9188 110.646 36.9014 117.803 36.1905C117.847 36.1876 117.89 36.1818 117.937 36.1789L118.261 36.1442L123.058 35.6298L134.914 34.4217C134.917 34.4217 133.479 32.1702 124.242 32.6529Z" fill="url(#paint0_linear)"/>
<path d="M122.597 23.8322C120.408 25.2976 117.438 24.7166 115.965 22.5317C114.494 20.3467 115.074 17.3872 117.267 15.9218C119.459 14.4565 122.426 15.0375 123.899 17.2224C125.37 19.4074 124.787 22.3669 122.597 23.8322Z" fill="url(#paint1_linear)"/>
<path d="M59.0124 32.6529C59.2647 32.6673 59.4996 32.6818 59.7259 32.6962C66.4948 33.0864 72.7997 31.7222 75.3577 27.9246C77.9185 24.124 76.7903 17.8032 73.867 11.7078C73.7655 11.5055 73.664 11.2945 73.5567 11.0662C69.6125 2.72513 71.1582 0.548828 71.1582 0.548828L76.7671 11.0257L79.0408 15.2887L79.1946 15.5777C79.2178 15.6182 79.2352 15.6558 79.2584 15.6962C82.6283 22.0286 84.5801 29.2945 82.3499 32.6066C80.1197 35.9188 72.6083 36.9014 65.4507 36.1905C65.4072 36.1876 65.3637 36.1818 65.3173 36.1789L64.9925 36.1442L60.1957 35.6298L48.3399 34.4217C48.3341 34.4217 49.7725 32.1702 59.0124 32.6529Z" fill="url(#paint2_linear)"/>
<path d="M60.6532 23.8329C62.8051 25.2722 65.74 24.6682 67.2133 22.4832C68.6866 20.2982 68.1356 17.3618 65.9837 15.9225C63.8317 14.4832 60.8968 15.0872 59.4235 17.2722C57.9502 19.4572 58.5013 22.3936 60.6532 23.8329Z" fill="url(#paint3_linear)"/>
<path d="M104.671 8.39567C104.541 8.61243 104.425 8.81474 104.312 9.01127C100.863 14.8263 96.2203 19.2829 91.6264 19.2829C87.0355 19.2829 82.3895 14.8292 78.9412 9.01127C78.8281 8.81474 78.7092 8.61243 78.5816 8.39567C73.8311 0.482372 71.1543 0.548846 71.1543 0.548846L76.7574 11.0315L79.0224 15.3003L79.1761 15.5893C79.1993 15.6298 79.2196 15.6673 79.2399 15.7078C82.636 22.0257 87.6242 27.6818 91.6264 27.6818C95.6286 27.6818 100.614 22.0286 104.013 15.7078C104.033 15.6673 104.054 15.6327 104.077 15.5893L104.23 15.3003L106.495 11.0315L112.096 0.548846C112.096 0.548846 109.419 0.482372 104.671 8.39567Z" fill="url(#paint4_linear)"/>
<path d="M91.6271 9.6763C94.2667 9.6763 96.4066 7.51019 96.4066 4.83815C96.4066 2.16611 94.2667 0 91.6271 0C88.9875 0 86.8477 2.16611 86.8477 4.83815C86.8477 7.51019 88.9875 9.6763 91.6271 9.6763Z" fill="url(#paint5_linear)"/>
<path d="M23.912 64.0273H25.0025L27.8447 70.5505L30.6868 64.0273H31.7222V71.8019H30.9942V64.9493H30.971L27.9955 71.8019H27.6764L24.6574 64.9493H24.6342V71.8019H23.9062V64.0273H23.912Z" fill="black"/>
<path d="M38.3136 70.8471C38.0555 71.2344 37.7394 71.5148 37.3594 71.6824C36.9795 71.85 36.5648 71.9339 36.1095 71.9339C35.7209 71.9339 35.367 71.8674 35.0509 71.7373C34.7348 71.6044 34.4622 71.4194 34.236 71.1824C34.0069 70.9454 33.8329 70.6622 33.714 70.3356C33.5922 70.009 33.5312 69.6477 33.5312 69.2547C33.5312 68.8732 33.5922 68.5234 33.7198 68.1998C33.8445 67.8789 34.0214 67.5986 34.2476 67.3587C34.4738 67.1188 34.7435 66.9339 35.0509 66.798C35.3583 66.6622 35.7006 66.5957 36.0747 66.5957C36.4633 66.5957 36.8084 66.6622 37.1042 66.798C37.4 66.9339 37.6524 67.113 37.8525 67.3356C38.0555 67.5581 38.2063 67.8125 38.3107 68.0986C38.4122 68.3847 38.4644 68.6737 38.4644 68.9656V69.4281H34.1925C34.1925 69.5668 34.2186 69.746 34.2766 69.9599C34.3317 70.1766 34.4332 70.3876 34.5782 70.5928C34.7261 70.798 34.9204 70.9743 35.1669 71.1188C35.4134 71.2662 35.7296 71.3385 36.1211 71.3385C36.4604 71.3385 36.7852 71.2576 37.1013 71.0957C37.4174 70.9339 37.6611 70.7142 37.8293 70.4367L38.3136 70.8471ZM37.809 68.8356C37.809 68.6073 37.7626 68.3963 37.6698 68.1998C37.577 68.0032 37.4522 67.8269 37.2956 67.6795C37.139 67.5321 36.9505 67.4107 36.733 67.3211C36.5155 67.2344 36.2864 67.1882 36.0428 67.1882C35.6832 67.1882 35.3844 67.2604 35.1437 67.4078C34.9059 67.5552 34.7145 67.7229 34.5753 67.9136C34.4361 68.1044 34.3375 68.2893 34.2766 68.4685C34.2186 68.6477 34.1896 68.7691 34.1896 68.8356H37.809Z" fill="black"/>
<path d="M44.6197 70.9113H44.5965C44.4921 71.0876 44.3645 71.2379 44.2108 71.368C44.0571 71.498 43.8889 71.6021 43.7091 71.6859C43.5293 71.7697 43.3407 71.8333 43.1406 71.8738C42.9434 71.9142 42.7462 71.9345 42.5577 71.9345C42.1691 71.9345 41.8095 71.868 41.4788 71.7379C41.1482 71.605 40.864 71.42 40.6291 71.183C40.3942 70.946 40.2115 70.6628 40.0781 70.3362C39.9447 70.0096 39.8809 69.6541 39.8809 69.2639C39.8809 68.8767 39.9476 68.5183 40.0781 68.1917C40.2115 67.8651 40.3942 67.5848 40.6291 67.3449C40.864 67.1079 41.1482 66.9229 41.4788 66.79C41.8095 66.657 42.1691 66.5934 42.5577 66.5934C42.7491 66.5934 42.9434 66.6137 43.1406 66.6541C43.3378 66.6946 43.5293 66.7553 43.7091 66.842C43.8889 66.9258 44.0571 67.0327 44.2108 67.1599C44.3645 67.2871 44.4921 67.4402 44.5965 67.6165H44.6197V63.498H45.2809V71.8015H44.6197V70.9113ZM44.6864 69.2639C44.6864 68.9778 44.6313 68.709 44.5211 68.4576C44.4109 68.2061 44.2601 67.9865 44.0687 67.7986C43.8773 67.6108 43.654 67.4634 43.3958 67.3535C43.1377 67.2437 42.8593 67.1888 42.5577 67.1888C42.2503 67.1888 41.969 67.2437 41.7196 67.3535C41.4701 67.4634 41.2555 67.6108 41.0815 67.7986C40.9046 67.9865 40.7712 68.2061 40.6784 68.4576C40.5856 68.709 40.5392 68.9807 40.5392 69.2639C40.5392 69.5501 40.5856 69.8189 40.6784 70.0703C40.7712 70.3218 40.9046 70.5414 41.0815 70.7293C41.2584 70.9171 41.4701 71.0645 41.7196 71.1744C41.969 71.2842 42.2474 71.3391 42.5577 71.3391C42.8593 71.3391 43.1377 71.2842 43.3958 71.1744C43.654 71.0645 43.8773 70.9171 44.0687 70.7293C44.2601 70.5414 44.4109 70.3218 44.5211 70.0703C44.6313 69.8189 44.6864 69.5501 44.6864 69.2639Z" fill="black"/>
<path d="M47.0762 64.7169C47.0762 64.5781 47.1226 64.4596 47.2183 64.3643C47.314 64.2689 47.43 64.2227 47.5721 64.2227C47.7113 64.2227 47.8302 64.2718 47.9259 64.3643C48.0216 64.4596 48.068 64.5753 48.068 64.7169C48.068 64.8585 48.0187 64.9741 47.9259 65.0695C47.8302 65.1649 47.7113 65.2111 47.5721 65.2111C47.4329 65.2111 47.314 65.162 47.2183 65.0695C47.1255 64.9741 47.0762 64.8556 47.0762 64.7169ZM47.2415 66.7284H47.9027V71.8036H47.2415V66.7284Z" fill="black"/>
<path d="M54.2613 71.0562C54.0119 71.3568 53.7276 71.5764 53.4115 71.7209C53.0954 71.8625 52.7532 71.9348 52.3878 71.9348C51.9992 71.9348 51.6395 71.8683 51.3089 71.7383C50.9783 71.6053 50.6941 71.4203 50.4592 71.1834C50.2243 70.9464 50.0416 70.6631 49.9081 70.3365C49.7747 70.0099 49.7109 69.6544 49.7109 69.2643C49.7109 68.877 49.7776 68.5186 49.9081 68.192C50.0416 67.8654 50.2243 67.5851 50.4592 67.3452C50.6941 67.1082 50.9783 66.9232 51.3089 66.7903C51.6395 66.6573 51.9992 66.5938 52.3878 66.5938C52.7619 66.5938 53.1099 66.6718 53.4289 66.825C53.7479 66.9781 54.0322 67.1949 54.2816 67.4724L53.7537 67.8683C53.5623 67.6544 53.3535 67.4897 53.1244 67.3683C52.8953 67.2469 52.6517 67.1862 52.3849 67.1862C52.0775 67.1862 51.7961 67.2411 51.5467 67.351C51.2973 67.4608 51.0827 67.6082 50.9087 67.7961C50.7318 67.9839 50.5984 68.2036 50.5056 68.455C50.4128 68.7065 50.3693 68.9781 50.3693 69.2614C50.3693 69.5475 50.4157 69.8163 50.5056 70.0677C50.5984 70.3192 50.7318 70.5388 50.9087 70.7267C51.0856 70.9146 51.2973 71.062 51.5467 71.1718C51.7961 71.2816 52.0746 71.3365 52.3849 71.3365C52.6633 71.3365 52.9185 71.2729 53.1505 71.1429C53.3825 71.0128 53.5826 70.8452 53.7508 70.6313L54.2613 71.0562Z" fill="black"/>
<path d="M59.473 69.6708C59.473 69.9194 59.4759 70.1419 59.4788 70.3414C59.4817 70.5379 59.4875 70.7229 59.4962 70.8905C59.5049 71.0581 59.5136 71.2171 59.5252 71.3616C59.5368 71.5061 59.5513 71.6535 59.5745 71.8009H58.9567C58.9132 71.5523 58.89 71.2778 58.89 70.9772H58.8668C58.6754 71.3067 58.4376 71.5495 58.1563 71.7026C57.8721 71.8558 57.5154 71.9339 57.0803 71.9339C56.8599 71.9339 56.6424 71.9078 56.4307 71.85C56.2161 71.7951 56.0276 71.7084 55.8565 71.587C55.6854 71.4656 55.5491 71.3096 55.4447 71.1188C55.3374 70.9281 55.2852 70.6969 55.2852 70.4281C55.2852 70.0408 55.3838 69.7315 55.5839 69.5061C55.7811 69.2807 56.0276 69.1102 56.3176 68.9945C56.6076 68.8789 56.915 68.8067 57.2428 68.7749C57.5705 68.7431 57.8576 68.7258 58.107 68.7258H58.8784V68.4194C58.8784 67.9801 58.7421 67.6651 58.4695 67.4743C58.1969 67.2836 57.8547 67.1882 57.4458 67.1882C56.857 67.1882 56.3408 67.3789 55.8913 67.7604L55.5056 67.3096C55.7492 67.0755 56.0508 66.8992 56.4104 66.7778C56.77 66.6564 57.1151 66.5957 57.4458 66.5957C58.0635 66.5957 58.5565 66.7402 58.9219 67.0292C59.2874 67.3182 59.473 67.7865 59.473 68.4281V69.6708ZM58.1505 69.2547C57.8721 69.2547 57.6024 69.272 57.3414 69.3096C57.0803 69.3471 56.8454 69.4078 56.6366 69.4974C56.4278 69.5841 56.2596 69.7026 56.1349 69.85C56.0102 69.9974 55.9464 70.1795 55.9464 70.3992C55.9464 70.5524 55.9812 70.6911 56.0508 70.8096C56.1204 70.931 56.2103 71.0292 56.3205 71.1073C56.4307 71.1853 56.5525 71.2431 56.6888 71.2836C56.8251 71.324 56.9614 71.3443 57.1035 71.3443C57.4574 71.3443 57.7474 71.2922 57.9736 71.1911C58.1998 71.0899 58.3825 70.9541 58.5188 70.7893C58.6551 70.6246 58.7479 70.4367 58.8001 70.2287C58.8523 70.0206 58.8784 69.8096 58.8784 69.5986V69.2576H58.1505V69.2547Z" fill="black"/>
<path d="M61.5684 63.5H62.2296V71.8035H61.5684V63.5Z" fill="black"/>
<path d="M67.5966 64.0273H69.8443C70.1372 64.0273 70.4359 64.0505 70.7375 64.0996C71.0391 64.1487 71.3088 64.247 71.5466 64.3973C71.7845 64.5476 71.9817 64.7557 72.1296 65.0245C72.2804 65.2903 72.3558 65.6458 72.3558 66.0851C72.3558 66.4811 72.2369 66.825 72.002 67.1169C71.7671 67.4089 71.419 67.6025 70.955 67.6979V67.721C71.2131 67.7441 71.448 67.8048 71.6597 67.9031C71.8715 68.0013 72.0571 68.1343 72.2108 68.299C72.3645 68.4638 72.4834 68.6603 72.5704 68.8857C72.6545 69.1141 72.698 69.3626 72.698 69.6314C72.698 70.0794 72.611 70.4435 72.4399 70.7239C72.2659 71.0071 72.0513 71.2268 71.7903 71.3886C71.5292 71.5505 71.245 71.6603 70.9405 71.7181C70.636 71.7759 70.3518 71.8048 70.085 71.8048H67.5938V64.0273H67.5966ZM68.3217 67.3886H69.8327C70.2068 67.3886 70.5113 67.3424 70.7462 67.2528C70.9811 67.1603 71.1638 67.0505 71.2972 66.9175C71.4306 66.7846 71.5176 66.6458 71.5611 66.4956C71.6046 66.3453 71.6278 66.2094 71.6278 66.0851C71.6278 65.8135 71.5814 65.588 71.4915 65.4088C71.3987 65.2297 71.2769 65.088 71.1232 64.9811C70.9695 64.8742 70.7897 64.799 70.5838 64.7557C70.3779 64.7123 70.1604 64.6892 69.9342 64.6892H68.3246V67.3886H68.3217ZM68.3217 71.143H69.9864C70.4127 71.143 70.7549 71.0909 71.0159 70.9898C71.2769 70.8886 71.477 70.7586 71.6162 70.6054C71.7555 70.4522 71.8483 70.2875 71.8976 70.1169C71.9469 69.9464 71.9701 69.7904 71.9701 69.6487C71.9701 69.3626 71.915 69.1169 71.8048 68.9117C71.6945 68.7065 71.5524 68.5389 71.3755 68.4117C71.1986 68.2846 70.9985 68.1892 70.7752 68.1314C70.5519 68.0736 70.3257 68.0447 70.0966 68.0447H68.3217V71.143Z" fill="black"/>
<path d="M78.8813 70.374C78.8813 70.4693 78.8843 70.5849 78.893 70.7208C78.9017 70.8566 78.9046 70.9925 78.9104 71.1312C78.9133 71.2699 78.9191 71.4 78.9278 71.5214C78.9336 71.6427 78.9394 71.7352 78.9394 71.8017H78.2781C78.2694 71.611 78.2665 71.4289 78.2607 71.2526C78.2578 71.0763 78.2491 70.9636 78.2317 70.9115H78.1998C78.0664 71.189 77.846 71.4289 77.5386 71.6312C77.2312 71.8335 76.8687 71.9318 76.4597 71.9318C76.0624 71.9318 75.7376 71.8682 75.4853 71.7439C75.233 71.6196 75.0329 71.4578 74.8907 71.2555C74.7486 71.0531 74.65 70.8219 74.5978 70.5589C74.5456 70.2959 74.5195 70.0243 74.5195 69.7468V66.7266H75.1808V69.715C75.1808 69.9202 75.1982 70.1196 75.2359 70.3133C75.2736 70.5069 75.3374 70.6803 75.4302 70.8364C75.523 70.9925 75.6506 71.1138 75.8159 71.2034C75.9812 71.2959 76.1958 71.3422 76.4597 71.3422C76.7033 71.3422 76.9324 71.2988 77.15 71.215C77.3675 71.1312 77.5531 71.004 77.7126 70.8306C77.8692 70.6601 77.9968 70.4433 78.0867 70.1832C78.1795 69.9231 78.2259 69.6167 78.2259 69.267V66.7295H78.8872V70.374H78.8813Z" fill="black"/>
<path d="M80.9315 70.5071C81.0707 70.7788 81.2767 70.984 81.5493 71.1285C81.8219 71.273 82.1061 71.3424 82.4077 71.3424C82.5469 71.3424 82.6861 71.3193 82.8253 71.2759C82.9645 71.2326 83.0892 71.169 83.1995 71.0881C83.3097 71.0071 83.3996 70.9118 83.4692 70.7962C83.5388 70.6806 83.5736 70.5534 83.5736 70.406C83.5736 70.1719 83.4982 69.9956 83.3474 69.88C83.1966 69.7644 83.0109 69.6719 82.7905 69.6054C82.5701 69.5389 82.3265 69.484 82.0626 69.4349C81.7987 69.3886 81.5551 69.3135 81.3347 69.2152C81.1142 69.117 80.9286 68.9782 80.7778 68.8048C80.627 68.6285 80.5516 68.38 80.5516 68.0592C80.5516 67.8106 80.6038 67.5938 80.7053 67.4118C80.8068 67.2297 80.9431 67.0765 81.1084 66.9551C81.2738 66.8337 81.4594 66.7441 81.6653 66.6863C81.8712 66.6285 82.08 66.5996 82.2946 66.5996C82.7122 66.5996 83.0747 66.6776 83.3793 66.8308C83.6838 66.984 83.9216 67.2268 84.0898 67.5563L83.4953 67.9089C83.3706 67.6748 83.214 67.4985 83.0254 67.3771C82.8369 67.2557 82.5933 67.195 82.2917 67.195C82.1728 67.195 82.051 67.2123 81.9234 67.2499C81.7958 67.2875 81.6798 67.3366 81.5754 67.4031C81.471 67.4696 81.3869 67.5534 81.3173 67.6545C81.2477 67.7586 81.2128 67.8742 81.2128 68.0071C81.2128 68.2355 81.2882 68.4031 81.4391 68.5129C81.5899 68.6227 81.7755 68.7094 81.9959 68.7701C82.2163 68.8337 82.4599 68.8857 82.7238 68.9291C82.9877 68.9725 83.2314 69.0447 83.4518 69.143C83.6722 69.2412 83.8578 69.3858 84.0086 69.5707C84.1594 69.7586 84.2348 70.0216 84.2348 70.3684C84.2348 70.6314 84.1855 70.8597 84.0869 71.0563C83.9883 71.2499 83.852 71.4118 83.678 71.5447C83.504 71.6777 83.3097 71.7759 83.0892 71.8424C82.8688 71.9089 82.6368 71.9407 82.3961 71.9407C81.9553 71.9407 81.5522 71.8569 81.1896 71.6892C80.8271 71.5216 80.5458 71.2615 80.3457 70.9089L80.9315 70.5071Z" fill="black"/>
<path d="M85.7812 64.7169C85.7812 64.5781 85.8305 64.4596 85.9234 64.3643C86.0162 64.2689 86.1351 64.2227 86.2772 64.2227C86.4193 64.2227 86.5353 64.2718 86.631 64.3643C86.7267 64.4568 86.7731 64.5753 86.7731 64.7169C86.7731 64.8585 86.7238 64.9741 86.631 65.0695C86.5382 65.1649 86.4193 65.2111 86.2772 65.2111C86.1351 65.2111 86.0191 65.162 85.9234 65.0695C85.8276 64.977 85.7812 64.8556 85.7812 64.7169ZM85.9466 66.7284H86.6078V71.8036H85.9466V66.7284Z" fill="black"/>
<path d="M88.7006 68.1574C88.7006 68.062 88.6977 67.9464 88.689 67.8106C88.6803 67.6748 88.6774 67.5389 88.6716 67.4002C88.6687 67.2615 88.6629 67.1314 88.6542 67.01C88.6455 66.8886 88.6426 66.7961 88.6426 66.7297H89.3038C89.3096 66.9204 89.3154 67.1025 89.3212 67.2788C89.3241 67.4551 89.3328 67.5678 89.3502 67.6198H89.3821C89.5155 67.3424 89.7359 67.1025 90.0434 66.9002C90.3508 66.6979 90.7104 66.5996 91.1222 66.5996C91.5196 66.5996 91.8415 66.6603 92.0909 66.7875C92.3403 66.9118 92.5375 67.0765 92.6796 67.2759C92.8217 67.4782 92.9232 67.7094 92.9783 67.9724C93.0334 68.2355 93.0624 68.5071 93.0624 68.7846V71.8048H92.4012V68.8164C92.4012 68.6112 92.3838 68.4118 92.3461 68.2181C92.3084 68.0245 92.2446 67.8511 92.1518 67.6979C92.059 67.5447 91.9314 67.4204 91.7661 67.3308C91.6008 67.2383 91.3861 67.195 91.1222 67.195C90.8786 67.195 90.6495 67.2383 90.432 67.3222C90.2145 67.406 90.0289 67.536 89.8694 67.7066C89.7127 67.88 89.5851 68.0938 89.4952 68.354C89.4024 68.6141 89.356 68.9204 89.356 69.2701V71.8077H88.6948V68.1574H88.7006Z" fill="black"/>
<path d="M99.546 70.8471C99.2879 71.2344 98.9718 71.5148 98.5919 71.6824C98.2119 71.85 97.7972 71.9339 97.3419 71.9339C96.9533 71.9339 96.5995 71.8674 96.2833 71.7373C95.9672 71.6044 95.6946 71.4194 95.4684 71.1824C95.2393 70.9454 95.0653 70.6622 94.9464 70.3356C94.8246 70.009 94.7637 69.6477 94.7637 69.2547C94.7637 68.8732 94.8246 68.5234 94.9522 68.1998C95.0769 67.8789 95.2538 67.5986 95.48 67.3587C95.7062 67.1188 95.9759 66.9339 96.2833 66.798C96.5908 66.6622 96.933 66.5957 97.3071 66.5957C97.6957 66.5957 98.0408 66.6622 98.3367 66.798C98.6325 66.9339 98.8848 67.113 99.0849 67.3356C99.2879 67.5581 99.4387 67.8125 99.5431 68.0986C99.6446 68.3847 99.6968 68.6737 99.6968 68.9656V69.4281H95.422C95.422 69.5668 95.4481 69.746 95.5061 69.9599C95.5612 70.1766 95.6627 70.3876 95.8077 70.5928C95.9556 70.798 96.1499 70.9743 96.3965 71.1188C96.643 71.2662 96.9591 71.3385 97.3506 71.3385C97.6899 71.3385 98.0147 71.2576 98.3308 71.0957C98.647 70.9339 98.8906 70.7142 99.0588 70.4367L99.546 70.8471ZM99.0385 68.8356C99.0385 68.6073 98.9921 68.3963 98.8993 68.1998C98.8065 68.0032 98.6818 67.8269 98.5252 67.6795C98.3686 67.5321 98.18 67.4107 97.9625 67.3211C97.745 67.2344 97.5159 67.1882 97.2723 67.1882C96.9127 67.1882 96.614 67.2604 96.3732 67.4078C96.1354 67.5552 95.944 67.7229 95.8048 67.9136C95.6656 68.1044 95.567 68.2893 95.5061 68.4685C95.4481 68.6477 95.4191 68.7691 95.4191 68.8356H99.0385Z" fill="black"/>
<path d="M101.406 70.5071C101.545 70.7788 101.751 70.984 102.024 71.1285C102.296 71.273 102.581 71.3424 102.882 71.3424C103.022 71.3424 103.161 71.3193 103.3 71.2759C103.439 71.2326 103.564 71.169 103.674 71.0881C103.784 71.0071 103.874 70.9118 103.944 70.7962C104.013 70.6806 104.048 70.5534 104.048 70.406C104.048 70.1719 103.973 69.9956 103.822 69.88C103.671 69.7644 103.486 69.6719 103.265 69.6054C103.045 69.5389 102.801 69.484 102.537 69.4349C102.273 69.3886 102.03 69.3135 101.809 69.2152C101.589 69.117 101.403 68.9782 101.252 68.8048C101.102 68.6285 101.026 68.38 101.026 68.0592C101.026 67.8106 101.078 67.5938 101.18 67.4118C101.281 67.2297 101.418 67.0765 101.583 66.9551C101.748 66.8337 101.934 66.7441 102.14 66.6863C102.346 66.6285 102.555 66.5996 102.769 66.5996C103.187 66.5996 103.549 66.6776 103.854 66.8308C104.158 66.984 104.396 67.2268 104.564 67.5563L103.97 67.9089C103.845 67.6748 103.689 67.4985 103.5 67.3771C103.312 67.2557 103.068 67.195 102.766 67.195C102.647 67.195 102.526 67.2123 102.398 67.2499C102.27 67.2875 102.154 67.3366 102.05 67.4031C101.946 67.4696 101.861 67.5534 101.792 67.6545C101.722 67.7586 101.687 67.8742 101.687 68.0071C101.687 68.2355 101.763 68.4031 101.914 68.5129C102.064 68.6227 102.25 68.7094 102.47 68.7701C102.691 68.8337 102.935 68.8857 103.198 68.9291C103.462 68.9725 103.706 69.0447 103.926 69.143C104.147 69.2412 104.332 69.3858 104.483 69.5707C104.634 69.7586 104.709 70.0216 104.709 70.3684C104.709 70.6314 104.66 70.8597 104.561 71.0563C104.463 71.2499 104.327 71.4118 104.153 71.5447C103.979 71.6777 103.784 71.7759 103.564 71.8424C103.343 71.9089 103.111 71.9407 102.871 71.9407C102.43 71.9407 102.027 71.8569 101.664 71.6892C101.302 71.5216 101.02 71.2615 100.82 70.9089L101.406 70.5071Z" fill="black"/>
<path d="M106.322 70.5071C106.461 70.7788 106.667 70.984 106.94 71.1285C107.212 71.2702 107.497 71.3424 107.798 71.3424C107.938 71.3424 108.077 71.3193 108.216 71.2759C108.355 71.2326 108.48 71.169 108.59 71.0881C108.7 71.0071 108.79 70.9118 108.86 70.7962C108.929 70.6834 108.964 70.5534 108.964 70.406C108.964 70.1719 108.889 69.9956 108.738 69.88C108.587 69.7644 108.402 69.6719 108.181 69.6054C107.961 69.5389 107.717 69.484 107.453 69.4349C107.189 69.3886 106.946 69.3135 106.725 69.2152C106.505 69.117 106.319 68.9782 106.168 68.8048C106.018 68.6314 105.942 68.38 105.942 68.0592C105.942 67.8106 105.994 67.5938 106.096 67.4118C106.197 67.2297 106.334 67.0765 106.499 66.9551C106.664 66.8337 106.85 66.7441 107.056 66.6863C107.262 66.6285 107.471 66.5996 107.685 66.5996C108.103 66.5996 108.465 66.6776 108.77 66.8308C109.074 66.984 109.312 67.2268 109.48 67.5563L108.886 67.9089C108.761 67.6748 108.605 67.4985 108.416 67.3771C108.228 67.2557 107.984 67.195 107.682 67.195C107.563 67.195 107.442 67.2123 107.314 67.2499C107.186 67.2875 107.07 67.3366 106.966 67.4031C106.864 67.4696 106.777 67.5534 106.708 67.6545C106.638 67.7586 106.603 67.8742 106.603 68.0071C106.603 68.2355 106.679 68.4031 106.83 68.5129C106.98 68.6227 107.166 68.7094 107.387 68.7701C107.607 68.8337 107.851 68.8857 108.114 68.9291C108.378 68.9725 108.622 69.0447 108.842 69.143C109.063 69.2412 109.248 69.3858 109.399 69.5707C109.55 69.7586 109.625 70.0216 109.625 70.3684C109.625 70.6314 109.576 70.8597 109.478 71.0563C109.379 71.2499 109.243 71.4118 109.069 71.5447C108.895 71.6777 108.7 71.7759 108.48 71.8424C108.259 71.9089 108.027 71.9407 107.787 71.9407C107.346 71.9407 106.943 71.8569 106.58 71.6892C106.218 71.5216 105.936 71.2615 105.736 70.9089L106.322 70.5071Z" fill="black"/>
<path d="M114.711 70.3658C114.902 70.6953 115.149 70.9409 115.456 71.1028C115.761 71.2646 116.109 71.3455 116.497 71.3455C116.741 71.3455 116.967 71.308 117.182 71.2357C117.396 71.1635 117.579 71.0594 117.738 70.9294C117.898 70.7993 118.023 70.6375 118.113 70.4525C118.205 70.2646 118.252 70.0565 118.252 69.8224C118.252 69.5507 118.194 69.3282 118.081 69.1519C117.968 68.9756 117.814 68.8311 117.622 68.7184C117.431 68.6057 117.216 68.5074 116.979 68.4265C116.741 68.3455 116.494 68.2646 116.239 68.1837C115.987 68.1028 115.74 68.0132 115.5 67.9091C115.262 67.808 115.047 67.6721 114.856 67.5074C114.664 67.3427 114.514 67.1346 114.397 66.886C114.284 66.6375 114.226 66.3311 114.226 65.964C114.226 65.6201 114.293 65.3138 114.429 65.0479C114.566 64.782 114.748 64.5565 114.98 64.3773C115.212 64.1981 115.479 64.0623 115.781 63.9698C116.082 63.8773 116.399 63.834 116.729 63.834C117.156 63.834 117.55 63.9091 117.912 64.0594C118.275 64.2097 118.591 64.4612 118.855 64.8109L118.226 65.2617C118.043 65.0045 117.825 64.8138 117.582 64.6866C117.335 64.5594 117.042 64.4929 116.706 64.4929C116.471 64.4929 116.248 64.5247 116.033 64.5854C115.821 64.649 115.636 64.7386 115.476 64.86C115.317 64.9814 115.192 65.1317 115.096 65.3166C115.001 65.4987 114.954 65.7155 114.954 65.964C114.954 66.3513 115.053 66.6519 115.253 66.86C115.45 67.0681 115.7 67.2328 115.995 67.3542C116.294 67.4756 116.616 67.5825 116.964 67.6721C117.312 67.7646 117.637 67.886 117.933 68.0392C118.232 68.1924 118.478 68.4062 118.675 68.6808C118.872 68.9554 118.974 69.334 118.974 69.8166C118.974 70.1692 118.907 70.4785 118.777 70.7502C118.643 71.0218 118.466 71.2502 118.243 71.438C118.02 71.6259 117.759 71.7646 117.466 71.86C117.173 71.9554 116.866 72.0016 116.552 72.0016C116.039 72.0016 115.563 71.912 115.131 71.7328C114.696 71.5536 114.328 71.2502 114.018 70.8282L114.711 70.3658Z" fill="black"/>
<path d="M120.373 69.2643C120.373 68.877 120.44 68.5186 120.57 68.192C120.704 67.8654 120.886 67.5851 121.121 67.3452C121.356 67.1082 121.64 66.9232 121.971 66.7903C122.302 66.6573 122.661 66.5938 123.05 66.5938C123.439 66.5938 123.798 66.6602 124.126 66.7903C124.454 66.9232 124.735 67.1082 124.976 67.3452C125.213 67.5822 125.399 67.8654 125.532 68.192C125.666 68.5186 125.73 68.8741 125.73 69.2643C125.73 69.6516 125.663 70.0099 125.532 70.3365C125.399 70.6631 125.213 70.9435 124.976 71.1834C124.738 71.4203 124.454 71.6053 124.126 71.7383C123.798 71.8712 123.441 71.9348 123.05 71.9348C122.661 71.9348 122.302 71.8683 121.971 71.7383C121.64 71.6053 121.356 71.4203 121.121 71.1834C120.886 70.9464 120.704 70.6631 120.57 70.3365C120.44 70.0099 120.373 69.6544 120.373 69.2643ZM121.034 69.2643C121.034 69.5504 121.081 69.8192 121.171 70.0706C121.263 70.3221 121.397 70.5417 121.574 70.7296C121.751 70.9175 121.962 71.0649 122.212 71.1747C122.461 71.2845 122.74 71.3394 123.05 71.3394C123.357 71.3394 123.639 71.2845 123.888 71.1747C124.137 71.0649 124.352 70.9175 124.526 70.7296C124.703 70.5417 124.836 70.3221 124.929 70.0706C125.022 69.8192 125.068 69.5504 125.068 69.2643C125.068 68.9781 125.022 68.7094 124.929 68.4579C124.836 68.2065 124.703 67.9868 124.526 67.799C124.349 67.6111 124.137 67.4637 123.888 67.3539C123.639 67.244 123.36 67.1891 123.05 67.1891C122.742 67.1891 122.461 67.244 122.212 67.3539C121.962 67.4637 121.748 67.6111 121.574 67.799C121.397 67.9868 121.263 68.2065 121.171 68.4579C121.081 68.7123 121.034 68.981 121.034 69.2643Z" fill="black"/>
<path d="M127.537 63.5H128.198V71.8035H127.537V63.5Z" fill="black"/>
<path d="M134.603 70.374C134.603 70.4693 134.606 70.5849 134.615 70.7208C134.62 70.8566 134.626 70.9925 134.632 71.1312C134.635 71.2699 134.641 71.4 134.649 71.5214C134.658 71.6427 134.661 71.7352 134.661 71.8017H134C133.991 71.611 133.988 71.4289 133.982 71.2526C133.98 71.0763 133.971 70.9636 133.956 70.9115H133.924C133.791 71.189 133.571 71.4289 133.263 71.6312C132.956 71.8335 132.593 71.9318 132.184 71.9318C131.787 71.9318 131.462 71.8682 131.21 71.7439C130.958 71.6196 130.757 71.4578 130.615 71.2555C130.473 71.0531 130.375 70.8219 130.322 70.5589C130.27 70.2959 130.244 70.0243 130.244 69.7468V66.7266H130.905V69.715C130.905 69.9202 130.923 70.1196 130.96 70.3133C130.998 70.5069 131.062 70.6803 131.155 70.8364C131.248 70.9896 131.375 71.1138 131.541 71.2034C131.706 71.2959 131.92 71.3422 132.184 71.3422C132.428 71.3422 132.657 71.2988 132.875 71.215C133.092 71.1312 133.278 71.004 133.437 70.8306C133.594 70.6601 133.719 70.4433 133.811 70.1832C133.904 69.9231 133.948 69.6167 133.948 69.267V66.7295H134.609V70.374H134.603Z" fill="black"/>
<path d="M139.129 67.3216H137.673V70.6279C137.673 70.8562 137.734 71.0297 137.862 71.1539C137.987 71.2782 138.161 71.3418 138.381 71.3418C138.506 71.3418 138.633 71.3245 138.761 71.2927C138.889 71.2609 139.013 71.2175 139.129 71.1655L139.184 71.758C139.06 71.8013 138.918 71.8418 138.755 71.8794C138.593 71.9169 138.451 71.9343 138.326 71.9343C138.091 71.9343 137.888 71.8996 137.72 71.8302C137.552 71.7609 137.415 71.6684 137.311 71.5499C137.207 71.4314 137.134 71.2956 137.085 71.1395C137.035 70.9834 137.012 70.8129 137.012 70.6279V67.3216H135.91V66.7291H137.012V65.2695H137.673V66.7291H139.129V67.3216Z" fill="black"/>
<path d="M140.486 64.7169C140.486 64.5781 140.536 64.4596 140.628 64.3643C140.721 64.2689 140.84 64.2227 140.982 64.2227C141.124 64.2227 141.24 64.2718 141.336 64.3643C141.432 64.4568 141.478 64.5753 141.478 64.7169C141.478 64.8585 141.429 64.9741 141.336 65.0695C141.243 65.1649 141.124 65.2111 140.982 65.2111C140.84 65.2111 140.724 65.162 140.628 65.0695C140.533 64.977 140.486 64.8556 140.486 64.7169ZM140.652 66.7284H141.313V71.8036H140.652V66.7284Z" fill="black"/>
<path d="M143.119 69.2643C143.119 68.877 143.186 68.5186 143.316 68.192C143.45 67.8654 143.632 67.5851 143.867 67.3452C144.102 67.1082 144.387 66.9232 144.717 66.7903C145.048 66.6573 145.407 66.5938 145.796 66.5938C146.185 66.5938 146.544 66.6602 146.872 66.7903C147.2 66.9232 147.481 67.1082 147.722 67.3452C147.962 67.5822 148.145 67.8654 148.279 68.192C148.412 68.5186 148.476 68.8741 148.476 69.2643C148.476 69.6516 148.409 70.0099 148.279 70.3365C148.145 70.6631 147.96 70.9435 147.722 71.1834C147.484 71.4203 147.2 71.6053 146.872 71.7383C146.544 71.8712 146.188 71.9348 145.796 71.9348C145.404 71.9348 145.048 71.8683 144.717 71.7383C144.387 71.6053 144.102 71.4203 143.867 71.1834C143.632 70.9464 143.45 70.6631 143.316 70.3365C143.186 70.0099 143.119 69.6544 143.119 69.2643ZM143.78 69.2643C143.78 69.5504 143.827 69.8192 143.92 70.0706C144.012 70.3221 144.146 70.5417 144.323 70.7296C144.5 70.9175 144.711 71.0649 144.961 71.1747C145.21 71.2845 145.489 71.3394 145.799 71.3394C146.106 71.3394 146.388 71.2845 146.637 71.1747C146.886 71.0649 147.101 70.9175 147.275 70.7296C147.452 70.5417 147.585 70.3221 147.678 70.0706C147.771 69.8192 147.815 69.5504 147.815 69.2643C147.815 68.9781 147.768 68.7094 147.678 68.4579C147.585 68.2065 147.452 67.9868 147.275 67.799C147.098 67.6111 146.886 67.4637 146.637 67.3539C146.388 67.244 146.109 67.1891 145.799 67.1891C145.491 67.1891 145.21 67.244 144.961 67.3539C144.711 67.4637 144.497 67.6111 144.323 67.799C144.146 67.9868 144.012 68.2065 143.92 68.4579C143.827 68.7123 143.78 68.981 143.78 69.2643Z" fill="black"/>
<path d="M150.173 68.1574C150.173 68.062 150.17 67.9464 150.162 67.8106C150.153 67.6748 150.15 67.5389 150.144 67.4002C150.141 67.2615 150.136 67.1314 150.127 67.01C150.118 66.8886 150.115 66.7961 150.115 66.7297H150.776C150.785 66.9204 150.788 67.1025 150.794 67.2788C150.797 67.4551 150.805 67.5678 150.82 67.6198H150.852C150.985 67.3424 151.206 67.1025 151.513 66.9002C151.821 66.6979 152.183 66.5996 152.592 66.5996C152.989 66.5996 153.311 66.6603 153.561 66.7875C153.81 66.9118 154.007 67.0765 154.149 67.2759C154.291 67.4782 154.393 67.7094 154.448 67.9724C154.503 68.2355 154.529 68.5071 154.529 68.7846V71.8048H153.868V68.8164C153.868 68.6112 153.851 68.4118 153.813 68.2181C153.775 68.0245 153.711 67.8511 153.619 67.6979C153.526 67.5447 153.398 67.4204 153.233 67.3308C153.068 67.2383 152.853 67.195 152.589 67.195C152.345 67.195 152.116 67.2383 151.899 67.3222C151.681 67.406 151.496 67.536 151.336 67.7066C151.18 67.88 151.052 68.0938 150.962 68.354C150.869 68.6141 150.826 68.9204 150.826 69.2701V71.8077H150.165V68.1574H150.173Z" fill="black"/>
<path d="M156.529 70.5071C156.668 70.7788 156.874 70.984 157.147 71.1285C157.42 71.273 157.704 71.3424 158.005 71.3424C158.145 71.3424 158.284 71.3193 158.423 71.2759C158.562 71.2326 158.687 71.169 158.797 71.0881C158.907 71.0071 158.997 70.9118 159.067 70.7962C159.136 70.6806 159.171 70.5534 159.171 70.406C159.171 70.1719 159.096 69.9956 158.945 69.88C158.794 69.7644 158.609 69.6719 158.388 69.6054C158.168 69.5389 157.924 69.484 157.66 69.4349C157.396 69.3886 157.153 69.3135 156.932 69.2152C156.712 69.117 156.526 68.9782 156.375 68.8048C156.225 68.6285 156.149 68.38 156.149 68.0592C156.149 67.8106 156.201 67.5938 156.303 67.4118C156.404 67.2297 156.541 67.0765 156.706 66.9551C156.871 66.8337 157.057 66.7441 157.263 66.6863C157.469 66.6285 157.678 66.5996 157.892 66.5996C158.31 66.5996 158.672 66.6776 158.977 66.8308C159.281 66.984 159.519 67.2268 159.687 67.5563L159.093 67.9089C158.968 67.6748 158.812 67.4985 158.623 67.3771C158.435 67.2557 158.191 67.195 157.889 67.195C157.77 67.195 157.649 67.2123 157.521 67.2499C157.393 67.2875 157.277 67.3366 157.173 67.4031C157.069 67.4696 156.985 67.5534 156.915 67.6545C156.845 67.7586 156.811 67.8742 156.811 68.0071C156.811 68.2355 156.886 68.4031 157.037 68.5129C157.188 68.6227 157.373 68.7094 157.594 68.7701C157.814 68.8337 158.058 68.8857 158.321 68.9291C158.585 68.9725 158.829 69.0447 159.049 69.143C159.27 69.2412 159.455 69.3858 159.606 69.5707C159.757 69.7586 159.832 70.0216 159.832 70.3684C159.832 70.6314 159.783 70.8597 159.685 71.0563C159.586 71.2499 159.45 71.4118 159.276 71.5447C159.102 71.6777 158.907 71.7759 158.687 71.8424C158.466 71.9089 158.234 71.9407 157.994 71.9407C157.553 71.9407 157.15 71.8569 156.787 71.6892C156.425 71.5216 156.143 71.2615 155.943 70.9089L156.529 70.5071Z" fill="black"/>
<path d="M2.60433 48.9822H6.71965V51.0226H2.60433V56.7452H0V43.9648H8.01891C8.04501 44.1036 8.05951 44.2221 8.06822 44.3174C8.07402 44.4128 8.07692 44.5313 8.07692 44.67C8.07692 45.0515 7.96381 45.3695 7.7434 45.6238C7.52009 45.8781 7.11407 46.0053 6.52824 46.0053H2.60433V48.9822Z" fill="black"/>
<path d="M13.3692 55.1276C13.6882 55.1276 13.9695 55.0929 14.2131 55.0236C14.4567 54.9542 14.6742 54.8675 14.8657 54.7664C15.0571 54.6652 15.2253 54.5525 15.3645 54.4311C15.5066 54.3097 15.6342 54.1999 15.7502 54.0958C15.9039 54.2866 16.0634 54.5323 16.2316 54.8299C16.3969 55.1276 16.481 55.3733 16.481 55.564C16.481 55.8444 16.3215 56.0987 16.0025 56.3271C15.7357 56.5323 15.3558 56.7057 14.8628 56.8531C14.3726 56.9976 13.7926 57.0727 13.1314 57.0727C12.531 57.0727 11.9423 56.9976 11.3623 56.8444C10.7822 56.6912 10.266 56.4253 9.81069 56.0438C9.35827 55.6623 8.98995 55.1508 8.71154 54.5091C8.43022 53.8675 8.29102 53.0554 8.29102 52.0756C8.29102 51.275 8.41572 50.5843 8.66513 50.0062C8.91455 49.4282 9.24516 48.9484 9.65989 48.5669C10.0746 48.1854 10.5444 47.9051 11.0665 47.7288C11.5885 47.5496 12.125 47.4629 12.6731 47.4629C13.3866 47.4629 13.9927 47.5756 14.4915 47.7982C14.9904 48.0207 15.3935 48.3184 15.7067 48.6941C16.0199 49.0698 16.2461 49.4976 16.3853 49.9831C16.5245 50.4658 16.597 50.9745 16.597 51.5091C16.597 51.5843 16.597 51.6739 16.597 51.775C16.597 51.8762 16.5941 51.986 16.5883 52.0987C16.5825 52.2143 16.5767 52.3242 16.568 52.4311C16.5622 52.5409 16.5506 52.6247 16.539 52.6883H10.8895C10.9418 53.3877 11.1593 53.9687 11.5421 54.434C11.9278 54.8935 12.5368 55.1276 13.3692 55.1276ZM14.2392 51.2548C14.2392 50.645 14.1203 50.1479 13.8825 49.7664C13.6447 49.3849 13.2184 49.1941 12.6035 49.1941C12.0786 49.1941 11.6581 49.3762 11.342 49.7375C11.0288 50.0987 10.8692 50.6045 10.8692 51.2548H14.2392Z" fill="black"/>
<path d="M21.1132 56.8614C21.0494 56.8874 20.9275 56.9047 20.7506 56.9192C20.5708 56.9307 20.3736 56.9394 20.1561 56.9394C19.9386 56.9394 19.7327 56.9163 19.5326 56.8729C19.3354 56.8267 19.1585 56.7458 19.0076 56.6244C18.8539 56.503 18.7321 56.3411 18.6451 56.1388C18.5552 55.9365 18.5117 55.6735 18.5117 55.3556V43.3007C18.5117 43.2891 18.6074 43.2718 18.7988 43.2516C18.9902 43.2313 19.1875 43.2227 19.3934 43.2227C19.5964 43.2227 19.8023 43.2429 20.0053 43.2805C20.2083 43.318 20.3939 43.3932 20.5592 43.5001C20.7245 43.607 20.8579 43.7602 20.9623 43.9568C21.0639 44.1533 21.1161 44.4105 21.1161 44.7284V56.8614H21.1132Z" fill="black"/>
<path d="M26.1659 56.8614C26.1021 56.8874 25.9803 56.9047 25.8034 56.9192C25.6236 56.9307 25.4263 56.9394 25.2088 56.9394C24.9913 56.9394 24.7854 56.9163 24.5853 56.8729C24.3881 56.8267 24.2112 56.7458 24.0604 56.6244C23.9067 56.503 23.7849 56.3411 23.6979 56.1388C23.608 55.9365 23.5645 55.6735 23.5645 55.3556V43.3007C23.5645 43.2891 23.6602 43.2718 23.8516 43.2516C24.043 43.2313 24.2402 43.2227 24.4461 43.2227C24.6491 43.2227 24.855 43.2429 25.058 43.2805C25.261 43.318 25.4466 43.3932 25.612 43.5001C25.7773 43.607 25.9107 43.7602 26.0151 43.9568C26.1166 44.1533 26.1688 44.4105 26.1688 44.7284V56.8614H26.1659Z" fill="black"/>
<path d="M36.8632 52.1883C36.8632 52.8242 36.782 53.434 36.6225 54.0207C36.463 54.6045 36.202 55.1219 35.8366 55.5669C35.474 56.012 35.0042 56.3675 34.43 56.6363C33.8558 56.9051 33.1597 57.038 32.3448 57.038C31.5269 57.038 30.8367 56.908 30.2683 56.6479C29.6998 56.3877 29.2387 56.038 28.8791 55.5987C28.5224 55.1594 28.2614 54.6508 28.0932 54.0727C27.9279 53.4947 27.8438 52.8877 27.8438 52.2519C27.8438 51.6045 27.9395 50.9889 28.1309 50.4109C28.3223 49.8328 28.6065 49.3242 28.9835 48.8849C29.3605 48.4455 29.8362 48.0987 30.4104 47.8444C30.9846 47.5901 31.6545 47.4629 32.4202 47.4629C33.2235 47.4629 33.9109 47.5901 34.4764 47.8444C35.0448 48.0987 35.503 48.4427 35.854 48.8733C36.2049 49.3068 36.4601 49.8068 36.6196 50.3791C36.7849 50.9484 36.8632 51.5525 36.8632 52.1883ZM34.2618 52.2086C34.2618 51.8646 34.2357 51.5265 34.1835 51.1883C34.1313 50.8502 34.0356 50.5554 33.8935 50.301C33.7514 50.0467 33.5599 49.8415 33.3163 49.6797C33.0727 49.5207 32.7653 49.4427 32.3941 49.4427C32.0229 49.4427 31.7096 49.5265 31.4602 49.6912C31.2108 49.856 31.0107 50.0698 30.8628 50.3299C30.7149 50.5901 30.6105 50.8877 30.5438 51.2172C30.48 51.5467 30.4481 51.8849 30.4481 52.2288C30.4481 52.5727 30.4771 52.9167 30.5351 53.2577C30.5931 53.6016 30.6917 53.9109 30.8338 54.1825C30.9759 54.4571 31.1702 54.6768 31.4196 54.8415C31.669 55.0062 31.9794 55.0901 32.3535 55.0901C32.7392 55.0901 33.0553 55.0062 33.3047 54.8415C33.5541 54.6768 33.7514 54.4571 33.8906 54.1825C34.0327 53.908 34.1284 53.6016 34.1806 53.2577C34.2357 52.9138 34.2618 52.564 34.2618 52.2086Z" fill="black"/>
<path d="M48.1777 56.84H46.1476L44.596 52.7013L42.8153 56.84H40.9766L37.627 47.895C37.8561 47.8198 38.0968 47.7591 38.3462 47.7129C38.5956 47.6695 38.8073 47.6464 38.9871 47.6464C39.3815 47.6464 39.718 47.7302 39.9906 47.895C40.2661 48.0597 40.472 48.34 40.6141 48.7331L42.3368 53.8834L43.6187 50.7736L42.6993 47.8545C42.94 47.7794 43.1691 47.7244 43.378 47.6927C43.5897 47.6609 43.7956 47.6435 44.0015 47.6435C44.3321 47.6435 44.6163 47.7273 44.8541 47.8921C45.089 48.0568 45.2659 48.3256 45.3791 48.6926L47.0263 53.6898L48.2705 49.3776C48.4242 48.8169 48.6214 48.3892 48.865 48.0886C49.1057 47.7909 49.4712 47.6406 49.9555 47.6406C50.2107 47.6406 50.4427 47.6637 50.6544 47.7071C50.8661 47.7533 51.072 47.8111 51.278 47.8892L48.1777 56.84Z" fill="black"/>
<path d="M59.6239 49.1739H64.4845V43.986C64.586 43.9744 64.6933 43.96 64.8064 43.9484C64.9079 43.9369 65.0123 43.9224 65.1197 43.9109C65.227 43.8993 65.3314 43.8906 65.4329 43.8906C65.5982 43.8906 65.778 43.9109 65.9752 43.9484C66.1724 43.986 66.3522 44.0611 66.5175 44.1681C66.6828 44.275 66.8191 44.4253 66.9264 44.6161C67.0338 44.8068 67.0889 45.0611 67.0889 45.3791V56.749H64.4845V51.2172H59.6239V56.749H57.0195V43.9889C57.1326 43.9773 57.2486 43.9629 57.3617 43.9513C57.4633 43.9398 57.5619 43.9253 57.6547 43.9137C57.7504 43.9022 57.8403 43.8935 57.9302 43.8935C58.1187 43.8935 58.313 43.9137 58.5102 43.9513C58.7074 43.9889 58.8872 44.064 59.0525 44.171C59.2178 44.2808 59.3542 44.4282 59.4615 44.6218C59.5688 44.8155 59.6239 45.0698 59.6239 45.3877V49.1739Z" fill="black"/>
<path d="M73.8516 55.1276C74.1706 55.1276 74.4519 55.0929 74.6955 55.0236C74.9392 54.9542 75.1567 54.8675 75.3481 54.7664C75.5395 54.6652 75.7077 54.5525 75.8469 54.4311C75.989 54.3097 76.1166 54.1999 76.2326 54.0958C76.3863 54.2866 76.5458 54.5323 76.714 54.8299C76.8794 55.1276 76.9635 55.3733 76.9635 55.564C76.9635 55.8444 76.804 56.0987 76.4849 56.3271C76.2181 56.5323 75.8382 56.7057 75.3452 56.8531C74.855 56.9976 74.275 57.0727 73.6138 57.0727C73.0135 57.0727 72.4247 56.9976 71.8447 56.8444C71.2647 56.6912 70.7484 56.4253 70.2931 56.0438C69.8407 55.6623 69.4724 55.1508 69.194 54.5091C68.9126 53.8675 68.7734 53.0554 68.7734 52.0756C68.7734 51.275 68.8981 50.5843 69.1476 50.0062C69.397 49.4282 69.7276 48.9484 70.1423 48.5669C70.557 48.1854 71.0269 47.9051 71.5489 47.7288C72.0709 47.5496 72.6074 47.4629 73.1556 47.4629C73.869 47.4629 74.4751 47.5756 74.974 47.7982C75.4728 48.0207 75.8759 48.3184 76.1891 48.6941C76.5023 49.0698 76.7285 49.4976 76.8678 49.9831C77.007 50.4658 77.0795 50.9745 77.0795 51.5091C77.0795 51.5843 77.0795 51.6739 77.0795 51.775C77.0795 51.8762 77.0766 51.986 77.0708 52.0987C77.065 52.2143 77.0592 52.3242 77.0505 52.4311C77.0447 52.5409 77.0331 52.6247 77.0215 52.6883H71.3749C71.4271 53.3877 71.6446 53.9687 72.0274 54.434C72.4131 54.8935 73.0193 55.1276 73.8516 55.1276ZM74.7245 51.2548C74.7245 50.645 74.6056 50.1479 74.3678 49.7664C74.13 49.3849 73.7037 49.1941 73.0889 49.1941C72.5639 49.1941 72.1434 49.3762 71.8273 49.7375C71.5141 50.0987 71.3546 50.6045 71.3546 51.2548H74.7245Z" fill="black"/>
<path d="M86.4396 54.5351C86.4396 55.5409 86.5875 56.2721 86.8804 56.7288C86.6513 56.8184 86.4367 56.882 86.2395 56.9195C86.0423 56.9571 85.8335 56.9773 85.616 56.9773C85.1577 56.9773 84.8097 56.8877 84.5719 56.7114C84.337 56.5323 84.1862 56.2779 84.1224 55.9484C83.8411 56.2403 83.4728 56.4889 83.0116 56.6912C82.5534 56.8935 81.9908 56.9976 81.3267 56.9976C80.9815 56.9976 80.6364 56.9484 80.2942 56.8559C79.9491 56.7606 79.6359 56.6045 79.3574 56.3906C79.0761 56.1739 78.847 55.8877 78.6672 55.5265C78.4874 55.1652 78.4004 54.7259 78.4004 54.2057C78.4004 53.5583 78.557 53.0323 78.8702 52.6276C79.1834 52.223 79.575 51.9022 80.0477 51.6681C80.5204 51.434 81.0308 51.2721 81.579 51.1825C82.1271 51.0929 82.6317 51.038 83.0899 51.012C83.2436 51.0005 83.3916 50.9918 83.5395 50.9918C83.6874 50.9918 83.8237 50.9918 83.9513 50.9918V50.645C83.9513 50.1565 83.8208 49.8097 83.5598 49.6045C83.2987 49.3993 82.8724 49.2953 82.2866 49.2953C81.7385 49.2953 81.2483 49.3849 80.822 49.5612C80.3957 49.7403 79.9752 49.9427 79.5692 50.171C79.3893 49.9542 79.2472 49.7172 79.1399 49.4542C79.0326 49.1941 78.9775 49.0005 78.9775 48.8733C78.9775 48.6941 79.0761 48.5236 79.2733 48.3588C79.4705 48.1941 79.7432 48.0438 80.0854 47.9109C80.4276 47.7779 80.8249 47.671 81.2715 47.5872C81.7182 47.5034 82.1909 47.4629 82.6868 47.4629C83.3771 47.4629 83.96 47.5323 84.4385 47.6739C84.917 47.8155 85.3057 48.0294 85.6073 48.3213C85.906 48.6132 86.1206 48.9802 86.2482 49.4166C86.3758 49.856 86.4396 50.3675 86.4396 50.9513V54.5351ZM83.989 52.3213C83.8991 52.3213 83.8092 52.3213 83.7222 52.3213C83.6323 52.3213 83.5424 52.3271 83.4554 52.3415C83.1363 52.3675 82.8202 52.4051 82.507 52.4571C82.1938 52.5091 81.9154 52.5958 81.6747 52.723C81.4311 52.8502 81.2338 53.0149 81.0801 53.2201C80.9264 53.4224 80.851 53.6854 80.851 54.0034C80.851 54.3588 80.9525 54.6623 81.1584 54.908C81.3614 55.1565 81.7066 55.2808 82.1909 55.2808C82.4345 55.2808 82.6636 55.249 82.8811 55.1854C83.0986 55.1218 83.2901 55.0409 83.4554 54.9369C83.6207 54.8357 83.7512 54.723 83.8469 54.6016C83.9426 54.4802 83.9919 54.3704 83.9919 54.2664V52.3213H83.989Z" fill="black"/>
<path d="M91.3026 56.8614C91.2388 56.8874 91.117 56.9047 90.9401 56.9192C90.7603 56.9307 90.5631 56.9394 90.3456 56.9394C90.1281 56.9394 89.9221 56.9163 89.722 56.8729C89.5248 56.8267 89.3479 56.7458 89.1971 56.6244C89.0434 56.503 88.9216 56.3411 88.8346 56.1388C88.7447 55.9365 88.7012 55.6735 88.7012 55.3556V43.3007C88.7012 43.2891 88.7969 43.2718 88.9883 43.2516C89.1797 43.2313 89.3769 43.2227 89.5828 43.2227C89.7858 43.2227 89.9917 43.2429 90.1948 43.2805C90.3978 43.318 90.5834 43.3932 90.7487 43.5001C90.914 43.607 91.0474 43.7602 91.1518 43.9568C91.2533 44.1533 91.3055 44.4105 91.3055 44.7284V56.8614H91.3026Z" fill="black"/>
<path d="M93.6932 55.3722C93.6033 55.1178 93.5453 54.8519 93.5221 54.5716C93.496 54.2913 93.4844 54.0109 93.4844 53.7334V44.8837C93.5743 44.8722 93.67 44.8577 93.7715 44.8462C93.8614 44.8346 93.9571 44.823 94.0586 44.8173C94.1601 44.8115 94.2616 44.8086 94.366 44.8086C94.569 44.8086 94.7749 44.8288 94.978 44.8664C95.181 44.904 95.3666 44.982 95.5319 45.0947C95.6972 45.2103 95.8306 45.3664 95.935 45.5629C96.0365 45.7595 96.0887 46.0167 96.0887 46.3346V47.6699H98.7684V49.615H96.0887V53.6814C96.0887 54.5687 96.4512 55.0109 97.1792 55.0109C97.359 55.0109 97.5272 54.982 97.6867 54.9242C97.8462 54.8664 97.9883 54.8028 98.1159 54.7334C98.2435 54.6641 98.3566 54.5889 98.4523 54.5138C98.548 54.4386 98.6147 54.3808 98.6524 54.3433C98.8439 54.6236 98.9918 54.8664 99.0933 55.0687C99.1948 55.2739 99.247 55.4647 99.247 55.6439C99.247 55.8115 99.1803 55.9762 99.0469 56.1352C98.9135 56.2941 98.7249 56.4444 98.4813 56.5774C98.2377 56.7103 97.9448 56.8202 97.5997 56.904C97.2546 56.9878 96.8776 57.0282 96.4715 57.0282C95.6798 57.0282 95.065 56.8751 94.6241 56.5716C94.1833 56.271 93.873 55.8693 93.6932 55.3722Z" fill="black"/>
<path d="M106.441 51.4827C106.441 51.2023 106.432 50.9422 106.412 50.6995C106.392 50.4596 106.343 50.2515 106.258 50.081C106.174 49.9104 106.041 49.7746 105.855 49.6792C105.67 49.5838 105.412 49.5347 105.081 49.5347C104.608 49.5347 104.202 49.633 103.866 49.8295C103.526 50.026 103.358 50.2717 103.358 50.5636V56.7428H100.754V43.2948C100.754 43.2833 100.85 43.2659 101.041 43.2457C101.232 43.2255 101.43 43.2168 101.636 43.2168C101.841 43.2168 102.044 43.237 102.247 43.2746C102.45 43.3122 102.636 43.3873 102.801 43.4943C102.967 43.6012 103.1 43.7544 103.205 43.9509C103.306 44.1474 103.358 44.4047 103.358 44.7226V48.5174C103.46 48.4018 103.587 48.2833 103.741 48.1561C103.895 48.0289 104.08 47.9104 104.295 47.8035C104.513 47.6966 104.765 47.6099 105.052 47.5463C105.339 47.4827 105.667 47.4509 106.038 47.4509C106.943 47.4509 107.613 47.6301 108.048 47.9856C108.483 48.3411 108.761 48.8122 108.889 49.396C108.953 49.6879 108.993 50.0058 109.014 50.3497C109.034 50.6937 109.043 51.0289 109.043 51.3613V56.7399H106.438V51.4827H106.441Z" fill="black"/>
<path d="M124.779 47.7253C124.779 48.5519 124.637 49.2513 124.355 49.8236C124.074 50.3959 123.694 50.8583 123.213 51.208C122.731 51.5577 122.174 51.8091 121.542 51.9623C120.91 52.1155 120.24 52.1907 119.535 52.1907H118.616V56.7485H115.994V44.0433C116.568 43.9797 117.154 43.9334 117.755 43.8987C118.355 43.8669 118.897 43.8496 119.382 43.8496C121.243 43.8496 122.609 44.1762 123.479 44.8323C124.344 45.4883 124.779 46.4537 124.779 47.7253ZM122.099 47.8583C122.099 47.0837 121.867 46.5288 121.406 46.1993C120.945 45.8698 120.353 45.7022 119.637 45.7022C119.225 45.7022 118.88 45.7224 118.598 45.76V50.3381H119.234C120.17 50.3381 120.884 50.156 121.371 49.7947C121.855 49.4305 122.099 48.786 122.099 47.8583Z" fill="black"/>
<path d="M133.736 54.5351C133.736 55.5409 133.883 56.2721 134.176 56.7288C133.947 56.8184 133.733 56.882 133.535 56.9195C133.338 56.9571 133.129 56.9773 132.915 56.9773C132.457 56.9773 132.109 56.8877 131.871 56.7114C131.636 56.5323 131.485 56.2779 131.421 55.9484C131.14 56.2403 130.772 56.4889 130.31 56.6912C129.852 56.8935 129.29 56.9976 128.625 56.9976C128.28 56.9976 127.935 56.9484 127.593 56.8559C127.248 56.7606 126.935 56.6045 126.656 56.3906C126.375 56.1739 126.146 55.8877 125.966 55.5265C125.786 55.1652 125.699 54.7259 125.699 54.2057C125.699 53.5583 125.856 53.0323 126.169 52.6276C126.482 52.223 126.874 51.9022 127.347 51.6681C127.819 51.434 128.33 51.2721 128.878 51.1825C129.426 51.0929 129.931 51.038 130.389 51.012C130.542 51.0005 130.69 50.9918 130.838 50.9918C130.983 50.9918 131.123 50.9918 131.25 50.9918V50.645C131.25 50.1565 131.12 49.8097 130.859 49.6045C130.598 49.3993 130.171 49.2953 129.585 49.2953C129.037 49.2953 128.547 49.3849 128.121 49.5612C127.695 49.7403 127.274 49.9427 126.868 50.171C126.688 49.9542 126.546 49.7172 126.436 49.4542C126.329 49.1941 126.273 49.0005 126.273 48.8733C126.273 48.6941 126.372 48.5236 126.569 48.3588C126.766 48.1941 127.039 48.0438 127.381 47.9109C127.724 47.7779 128.121 47.671 128.567 47.5872C129.014 47.5034 129.487 47.4629 129.983 47.4629C130.673 47.4629 131.256 47.5323 131.734 47.6739C132.213 47.8155 132.602 48.0294 132.903 48.3213C133.202 48.6132 133.417 48.9802 133.544 49.4166C133.672 49.856 133.736 50.3675 133.736 50.9513V54.5351ZM131.288 52.3213C131.198 52.3213 131.108 52.3213 131.021 52.3213C130.934 52.3213 130.841 52.3271 130.754 52.3415C130.435 52.3675 130.119 52.4051 129.806 52.4571C129.493 52.5091 129.214 52.5958 128.973 52.723C128.73 52.8502 128.533 53.0149 128.379 53.2201C128.225 53.4224 128.15 53.6854 128.15 54.0034C128.15 54.3588 128.251 54.6623 128.457 54.908C128.66 55.1565 129.005 55.2808 129.49 55.2808C129.733 55.2808 129.962 55.249 130.18 55.1854C130.397 55.1218 130.589 55.0409 130.754 54.9369C130.919 54.8357 131.05 54.723 131.146 54.6016C131.241 54.4802 131.291 54.3704 131.291 54.2664V52.3213H131.288Z" fill="black"/>
<path d="M138.482 48.6122C138.558 48.4994 138.662 48.3723 138.79 48.2335C138.917 48.0948 139.074 47.9677 139.26 47.8549C139.445 47.7422 139.648 47.6468 139.872 47.5717C140.095 47.4966 140.333 47.459 140.591 47.459C140.745 47.459 140.907 47.4705 141.078 47.4966C141.249 47.5226 141.409 47.5688 141.557 47.6382C141.705 47.7075 141.821 47.8029 141.91 47.9214C142 48.0399 142.044 48.1902 142.044 48.3665C142.044 48.644 141.974 48.9619 141.832 49.3231C141.693 49.6844 141.551 49.9908 141.412 50.2451C141.194 50.0659 140.977 49.9301 140.762 49.8347C140.544 49.7393 140.289 49.6902 139.996 49.6902C139.602 49.6902 139.268 49.8058 139.002 50.0341C138.735 50.2624 138.598 50.537 138.598 50.8578V56.748H135.994V47.7249C136.058 47.7133 136.133 47.6989 136.223 47.6873C136.299 47.6757 136.389 47.6642 136.49 47.6584C136.592 47.6526 136.713 47.6497 136.853 47.6497C137.262 47.6497 137.615 47.7278 137.914 47.8867C138.219 48.0428 138.407 48.2827 138.482 48.6122Z" fill="black"/>
<path d="M143.4 55.3722C143.31 55.1178 143.252 54.8519 143.229 54.5716C143.203 54.2913 143.191 54.0109 143.191 53.7334V44.8837C143.281 44.8722 143.377 44.8577 143.479 44.8462C143.568 44.8346 143.664 44.823 143.766 44.8173C143.867 44.8115 143.969 44.8086 144.073 44.8086C144.276 44.8086 144.482 44.8288 144.685 44.8664C144.888 44.904 145.074 44.982 145.239 45.0947C145.404 45.2103 145.538 45.3664 145.642 45.5629C145.744 45.7595 145.796 46.0167 145.796 46.3346V47.6699H148.475V49.615H145.796V53.6814C145.796 54.5687 146.158 55.0109 146.886 55.0109C147.066 55.0109 147.234 54.982 147.394 54.9242C147.553 54.8664 147.695 54.8028 147.826 54.7334C147.953 54.6641 148.064 54.5889 148.159 54.5138C148.255 54.4386 148.322 54.3808 148.359 54.3433C148.551 54.6236 148.699 54.8664 148.8 55.0687C148.902 55.2739 148.954 55.4647 148.954 55.6439C148.954 55.8115 148.887 55.9762 148.754 56.1352C148.62 56.2941 148.432 56.4444 148.188 56.5774C147.945 56.7132 147.652 56.8202 147.307 56.904C146.962 56.9878 146.585 57.0282 146.179 57.0282C145.387 57.0282 144.772 56.8751 144.331 56.5716C143.89 56.271 143.58 55.8693 143.4 55.3722Z" fill="black"/>
<path d="M153.067 56.746H150.463V47.7229C150.527 47.7114 150.602 47.6969 150.692 47.6854C150.767 47.6738 150.857 47.6622 150.959 47.6565C151.06 47.6507 151.179 47.6478 151.321 47.6478C151.727 47.6478 152.078 47.72 152.374 47.8674C152.67 48.0148 152.858 48.2721 152.934 48.6391C153.151 48.3472 153.488 48.0755 153.943 47.8299C154.398 47.5813 155.002 47.457 155.759 47.457C156.666 47.457 157.339 47.6362 157.774 47.9917C158.209 48.3472 158.491 48.8183 158.618 49.4021C158.682 49.694 158.723 50.0119 158.743 50.3559C158.763 50.6998 158.772 51.0351 158.772 51.3674V56.746H156.167V51.4801C156.167 51.1998 156.156 50.9397 156.138 50.6969C156.118 50.457 156.069 50.2489 155.985 50.0784C155.901 49.9079 155.767 49.7721 155.582 49.6767C155.396 49.5813 155.135 49.5322 154.802 49.5322C154.326 49.5322 153.92 49.6304 153.578 49.827C153.238 50.0235 153.067 50.2692 153.067 50.5611V56.746Z" fill="black"/>
<path d="M165.347 55.1276C165.666 55.1276 165.95 55.0929 166.194 55.0236C166.437 54.9542 166.655 54.8675 166.846 54.7664C167.038 54.6652 167.206 54.5525 167.345 54.4311C167.487 54.3097 167.615 54.1999 167.731 54.0958C167.884 54.2866 168.044 54.5323 168.212 54.8299C168.377 55.1276 168.462 55.3733 168.462 55.564C168.462 55.8444 168.302 56.0987 167.983 56.3271C167.716 56.5323 167.336 56.7057 166.843 56.8531C166.353 56.9976 165.773 57.0727 165.112 57.0727C164.512 57.0727 163.923 56.9976 163.343 56.8444C162.763 56.6912 162.246 56.4253 161.791 56.0438C161.339 55.6623 160.97 55.1508 160.692 54.5091C160.411 53.8675 160.271 53.0554 160.271 52.0756C160.271 51.275 160.396 50.5843 160.646 50.0062C160.895 49.4282 161.226 48.9484 161.64 48.5669C162.055 48.1854 162.525 47.9051 163.047 47.7288C163.569 47.5496 164.105 47.4629 164.654 47.4629C165.367 47.4629 165.973 47.5756 166.472 47.7982C166.971 48.0207 167.374 48.3184 167.687 48.6941C168 49.0698 168.227 49.4976 168.366 49.9831C168.505 50.4658 168.578 50.9745 168.578 51.5091C168.578 51.5843 168.578 51.6739 168.578 51.775C168.578 51.8762 168.575 51.986 168.569 52.0987C168.563 52.2143 168.557 52.3242 168.549 52.4311C168.543 52.5409 168.531 52.6247 168.52 52.6883H162.873C162.925 53.3877 163.143 53.9687 163.525 54.434C163.905 54.8935 164.514 55.1276 165.347 55.1276ZM166.217 51.2548C166.217 50.645 166.098 50.1479 165.86 49.7664C165.622 49.3849 165.196 49.1941 164.581 49.1941C164.053 49.1941 163.636 49.3762 163.32 49.7375C163.006 50.0987 162.847 50.6045 162.847 51.2548H166.217Z" fill="black"/>
<path d="M172.782 48.6122C172.858 48.4994 172.962 48.3723 173.087 48.2335C173.211 48.0948 173.371 47.9677 173.557 47.8549C173.742 47.7422 173.945 47.6468 174.169 47.5717C174.392 47.4966 174.63 47.459 174.888 47.459C175.041 47.459 175.204 47.4705 175.375 47.4966C175.546 47.5226 175.706 47.5688 175.853 47.6382C175.998 47.7075 176.117 47.8029 176.207 47.9214C176.297 48.0399 176.341 48.1902 176.341 48.3665C176.341 48.644 176.271 48.9619 176.129 49.3231C175.99 49.6844 175.848 49.9908 175.708 50.2451C175.491 50.0659 175.273 49.9301 175.059 49.8347C174.841 49.7393 174.586 49.6902 174.293 49.6902C173.899 49.6902 173.565 49.8058 173.298 50.0341C173.032 50.2624 172.895 50.537 172.895 50.8578V56.748H170.291V47.7249C170.355 47.7133 170.43 47.6989 170.52 47.6873C170.596 47.6757 170.685 47.6642 170.787 47.6584C170.888 47.6526 171.01 47.6497 171.149 47.6497C171.558 47.6497 171.912 47.7278 172.211 47.8867C172.518 48.0428 172.707 48.2827 172.782 48.6122Z" fill="black"/>
<path d="M183.867 48.7749C183.867 48.9656 183.806 49.1911 183.684 49.4512C183.563 49.7113 183.432 49.957 183.293 50.1853C183.165 50.0841 183.009 49.9801 182.823 49.8703C182.637 49.7633 182.432 49.6593 182.202 49.5639C181.973 49.4685 181.733 49.3905 181.483 49.324C181.234 49.2604 180.981 49.2286 180.726 49.2286C180.584 49.2286 180.439 49.2373 180.285 49.2575C180.132 49.2778 179.995 49.3153 179.874 49.3731C179.752 49.4309 179.65 49.5119 179.566 49.6217C179.482 49.7286 179.442 49.8731 179.442 50.0494C179.442 50.483 179.908 50.8009 180.839 51.0032C181.222 51.0783 181.602 51.1795 181.979 51.298C182.356 51.4194 182.693 51.587 182.994 51.8038C183.293 52.0205 183.537 52.2922 183.722 52.6246C183.908 52.9541 184.001 53.3674 184.001 53.8645C184.001 54.3731 183.902 54.824 183.705 55.22C183.508 55.613 183.235 55.9454 182.893 56.2113C182.548 56.4772 182.142 56.6824 181.678 56.8211C181.211 56.9599 180.703 57.0321 180.155 57.0321C179.592 57.0321 179.117 56.9916 178.728 56.9078C178.339 56.824 178.018 56.7257 177.762 56.613C177.583 56.5379 177.388 56.4252 177.179 56.2778C176.968 56.1333 176.863 55.9309 176.863 55.6766C176.863 55.4598 176.927 55.2344 177.055 55.0003C177.182 54.7662 177.33 54.5205 177.496 54.2662C177.612 54.3674 177.754 54.4743 177.928 54.5812C178.099 54.6911 178.299 54.7922 178.522 54.8876C178.745 54.983 178.983 55.0639 179.239 55.1275C179.494 55.1911 179.755 55.2229 180.024 55.2229C180.19 55.2229 180.364 55.2113 180.541 55.1853C180.72 55.1593 180.877 55.1101 181.01 55.0321C181.144 54.957 181.257 54.8529 181.344 54.7257C181.434 54.5986 181.477 54.4338 181.477 54.2286C181.477 53.8587 181.332 53.5957 181.045 53.4367C180.758 53.2778 180.326 53.1419 179.752 53.0263C179.381 52.9512 179.024 52.8471 178.679 52.72C178.334 52.5928 178.029 52.4252 177.759 52.2142C177.49 52.0032 177.278 51.7402 177.118 51.4223C176.959 51.1044 176.878 50.7171 176.878 50.2575C176.878 49.798 176.979 49.3992 177.185 49.0552C177.388 48.7113 177.661 48.4194 177.997 48.1766C178.337 47.9367 178.728 47.7546 179.175 47.6333C179.621 47.5119 180.088 47.4512 180.573 47.4512C181.083 47.4512 181.538 47.4887 181.941 47.5668C182.345 47.6419 182.69 47.746 182.985 47.8731C183.548 48.1072 183.841 48.4049 183.867 48.7749Z" fill="black"/>
</g>
<defs>
<linearGradient id="paint0_linear" x1="100.949" y1="32.3511" x2="125.358" y2="16.1538" gradientUnits="userSpaceOnUse">
<stop stop-color="#F9ED32"/>
<stop offset="1" stop-color="#FBB040"/>
</linearGradient>
<linearGradient id="paint1_linear" x1="105.634" y1="29.2513" x2="123.982" y2="17.0307" gradientUnits="userSpaceOnUse">
<stop stop-color="#F9ED32"/>
<stop offset="1" stop-color="#FBB040"/>
</linearGradient>
<linearGradient id="paint2_linear" x1="81.9709" y1="32.3109" x2="57.5626" y2="15.9167" gradientUnits="userSpaceOnUse">
<stop stop-color="#F9ED32"/>
<stop offset="1" stop-color="#FBB040"/>
</linearGradient>
<linearGradient id="paint3_linear" x1="77.1018" y1="29.062" x2="59.07" y2="16.942" gradientUnits="userSpaceOnUse">
<stop stop-color="#F9ED32"/>
<stop offset="1" stop-color="#FBB040"/>
</linearGradient>
<linearGradient id="paint4_linear" x1="91.6252" y1="26.1079" x2="91.6252" y2="-1.81803" gradientUnits="userSpaceOnUse">
<stop stop-color="#FBB040"/>
<stop offset="1" stop-color="#F7941D"/>
</linearGradient>
<linearGradient id="paint5_linear" x1="91.6259" y1="21.1058" x2="91.6259" y2="-0.252081" gradientUnits="userSpaceOnUse">
<stop stop-color="#F7961F"/>
<stop offset="1" stop-color="#F7941D"/>
</linearGradient>
<clipPath id="clip0">
<rect width="184" height="72" fill="white"/>
</clipPath>
</defs>
</svg>
