<?xml version="1.0" encoding="utf-8"?>
<!-- Generator: Adobe Illustrator 24.0.1, SVG Export Plug-In . SVG Version: 6.00 Build 0)  -->
<svg version="1.1" id="Layer_1" xmlns="http://www.w3.org/2000/svg" xmlns:xlink="http://www.w3.org/1999/xlink" x="0px" y="0px"
	 viewBox="0 0 1922.8 2993.1" style="enable-background:new 0 0 1922.8 2993.1;" xml:space="preserve">
<path style="fill:#964040;" d="M0,9.1c0,0,68.9-4,81.6-4.6s97.7-3.3,97.7-3.3s87.8-1.6,101-1.1c13.2,0.5,147.6,1.6,152.6,2.2
	s145.4,8.2,162.5,9.3s136.5,12.4,147.1,13.7c23.4,2.8,85.3,12,139.4,22.5c38.9,7.5,103.2,23.1,113.1,25.2c9.9,2.2,88.4,15.9,94.9,17
	c6.6,1.1,100.4,11.5,105.4,12.1c4.9,0.5,108.7,6.6,121.3,7.7c12.6,1.1,99.9,2.7,112,2.7s122.9-3.3,125.1-3.8c2.2-0.5,112-6,112-6
	s83.4-7.1,92.8-7.7c9.3-0.5,86.7-9.3,102.1-11c15.4-1.6,62.4-8.4,62.4-8.4l0,2917.5H0L0,9.1z"/>
</svg>
