<?xml version="1.0" encoding="utf-8"?>
<!-- Generator: Adobe Illustrator 25.4.1, SVG Export Plug-In . SVG Version: 6.00 Build 0)  -->
<svg version="1.1" id="Слой_1" xmlns="http://www.w3.org/2000/svg" xmlns:xlink="http://www.w3.org/1999/xlink" x="0px" y="0px"
	 viewBox="0 0 22 18" style="enable-background:new 0 0 22 18;" xml:space="preserve">
<style type="text/css">
	.st0{fill-rule:evenodd;clip-rule:evenodd;fill:#FF851F;}
</style>
<path class="st0" d="M19.5,1H2.4c-1.1,0-2,0.9-2,2c0,0.7,0.3,1.3,0.9,1.6l1.2,0.8l6.8,4.5c0.1,0.1,0.3,0.2,0.4,0.2
	c0.9,0.4,2.1,0.4,2.9-0.2l6.8-4.5l1.2-0.8c0.5-0.4,0.9-1,0.9-1.6C21.4,1.9,20.5,1,19.5,1z M0.9,8c0-0.2,0-0.4,0.1-0.6
	C1.1,6.9,1.7,6.7,2.2,7l6.2,4.1c1.5,1,3.5,1,5,0L19.6,7c0.5-0.3,1.1-0.2,1.2,0.4c0,0.2,0.1,0.4,0.1,0.6v7c0,1.1-0.9,2-2,2h-16
	c-1.1,0-2-0.9-2-2V8z"/>
</svg>
