<svg width="24" height="24" viewBox="0 0 24 24" fill="none" xmlns="http://www.w3.org/2000/svg">
<path fill-rule="evenodd" clip-rule="evenodd" d="M20.5458 4H3.45416C2.37491 4 1.5 4.87491 1.5 5.95416C1.5 6.60754 1.82654 7.2177 2.37019 7.58013L3.55525 8.37016L10.3359 12.8906C10.4619 12.9746 10.5926 13.0481 10.7269 13.111C11.667 13.5519 12.7824 13.4784 13.6641 12.8906L20.4448 8.37016L21.6298 7.58013C22.1735 7.2177 22.5 6.60754 22.5 5.95416C22.5 4.87491 21.6251 4 20.5458 4ZM2 11C2 10.7912 2.02133 10.5874 2.06192 10.3907C2.17644 9.83563 2.83417 9.69222 3.30571 10.0066L9.50385 14.1387C11.0154 15.1464 12.9846 15.1464 14.4962 14.1387L20.6943 10.0066C21.1658 9.69222 21.8236 9.83563 21.9381 10.3907C21.9787 10.5874 22 10.7912 22 11V18C22 19.1046 21.1046 20 20 20H4C2.89543 20 2 19.1046 2 18V11Z" fill="#FF851F"/>
</svg>
