<svg width="25" height="24" viewBox="0 0 25 24" fill="none" xmlns="http://www.w3.org/2000/svg">
<g id="Load">
<g id="cached">
<mask id="mask0_1821_7562" style="mask-type:alpha" maskUnits="userSpaceOnUse" x="0" y="0" width="25" height="24">
<rect id="Bounding box" x="0.5" width="24" height="24" fill="#D9D9D9"/>
</mask>
<g mask="url(#mask0_1821_7562)">
<path id="cached_2" d="M12.5508 20C10.3174 20 8.41745 19.225 6.85078 17.675C5.28411 16.125 4.50078 14.2333 4.50078 12V11.825L3.60078 12.725C3.41745 12.9083 3.18411 13 2.90078 13C2.61745 13 2.38411 12.9083 2.20078 12.725C2.01745 12.5417 1.92578 12.3083 1.92578 12.025C1.92578 11.7417 2.01745 11.5083 2.20078 11.325L4.80078 8.725C5.00078 8.525 5.23411 8.425 5.50078 8.425C5.76745 8.425 6.00078 8.525 6.20078 8.725L8.80078 11.325C8.98411 11.5083 9.07578 11.7417 9.07578 12.025C9.07578 12.3083 8.98411 12.5417 8.80078 12.725C8.61745 12.9083 8.38411 13 8.10078 13C7.81745 13 7.58411 12.9083 7.40078 12.725L6.50078 11.825V12C6.50078 13.6667 7.08828 15.0833 8.26328 16.25C9.43828 17.4167 10.8674 18 12.5508 18C12.8174 18 13.0799 17.9833 13.3383 17.95C13.5966 17.9167 13.8508 17.8583 14.1008 17.775C14.3841 17.6917 14.6508 17.7 14.9008 17.8C15.1508 17.9 15.3424 18.075 15.4758 18.325C15.6091 18.5917 15.6216 18.8542 15.5133 19.1125C15.4049 19.3708 15.2091 19.5417 14.9258 19.625C14.5424 19.7583 14.1508 19.8542 13.7508 19.9125C13.3508 19.9708 12.9508 20 12.5508 20ZM12.4508 6C12.1841 6 11.9216 6.01667 11.6633 6.05C11.4049 6.08333 11.1508 6.14167 10.9008 6.225C10.6174 6.30833 10.3466 6.3 10.0883 6.2C9.82995 6.1 9.63411 5.925 9.50078 5.675C9.36745 5.425 9.35495 5.17083 9.46328 4.9125C9.57161 4.65417 9.75911 4.48333 10.0258 4.4C10.4258 4.26667 10.8258 4.16667 11.2258 4.1C11.6258 4.03333 12.0341 4 12.4508 4C14.6841 4 16.5841 4.775 18.1508 6.325C19.7174 7.875 20.5008 9.76667 20.5008 12V12.175L21.4008 11.275C21.5841 11.0917 21.8174 11 22.1008 11C22.3841 11 22.6174 11.0917 22.8008 11.275C22.9841 11.4583 23.0758 11.6917 23.0758 11.975C23.0758 12.2583 22.9841 12.4917 22.8008 12.675L20.2008 15.275C20.0008 15.475 19.7674 15.575 19.5008 15.575C19.2341 15.575 19.0008 15.475 18.8008 15.275L16.2008 12.675C16.0174 12.4917 15.9258 12.2583 15.9258 11.975C15.9258 11.6917 16.0174 11.4583 16.2008 11.275C16.3841 11.0917 16.6174 11 16.9008 11C17.1841 11 17.4174 11.0917 17.6008 11.275L18.5008 12.175V12C18.5008 10.3333 17.9133 8.91667 16.7383 7.75C15.5633 6.58333 14.1341 6 12.4508 6Z" fill="#FF851F"/>
</g>
</g>
</g>
</svg>
