<svg width="36" height="36" viewBox="0 0 36 36" fill="none" xmlns="http://www.w3.org/2000/svg">
<path fill-rule="evenodd" clip-rule="evenodd" d="M2.25 9.42963V8C2.25 6.89543 3.14543 6 4.25 6H31.75C32.8546 6 33.75 6.89543 33.75 8V9.42963C33.75 10.0983 33.4158 10.7228 32.8594 11.0937L31.1546 12.2302L19.6641 19.8906C18.6564 20.5624 17.3436 20.5624 16.3359 19.8906L4.84537 12.2302L3.1406 11.0937C2.5842 10.7228 2.25 10.0983 2.25 9.42963ZM3 15C3 14.6623 3.05578 14.3377 3.15863 14.0348C3.32929 13.5323 3.94398 13.4321 4.38558 13.7265L15.5038 21.1387C17.0154 22.1464 18.9846 22.1464 20.4962 21.1387L31.6144 13.7265C32.056 13.4321 32.6707 13.5323 32.8414 14.0348C32.9442 14.3377 33 14.6623 33 15V28C33 29.1046 32.1046 30 31 30H5C3.89543 30 3 29.1046 3 28V15Z" fill="white"/>
</svg>
