<svg width="44" height="45" viewBox="0 0 44 45" fill="none" xmlns="http://www.w3.org/2000/svg">
<g>
<path d="M14.2576 10.5405L33.4128 21.715C33.55 21.7953 33.6639 21.9102 33.743 22.0482C33.8221 22.1862 33.8638 22.3425 33.8638 22.5016C33.8638 22.6606 33.8221 22.8169 33.743 22.9549C33.6639 23.0929 33.55 23.2078 33.4128 23.2881L14.2576 34.4626C14.1188 34.5436 13.9611 34.5865 13.8004 34.5869C13.6397 34.5872 13.4818 34.5451 13.3426 34.4648C13.2034 34.3845 13.0879 34.2688 13.0079 34.1295C12.9278 33.9902 12.886 33.8322 12.8867 33.6715V11.328C12.8867 11.1676 12.9289 11.0101 13.0093 10.8713C13.0896 10.7324 13.2051 10.6173 13.3442 10.5374C13.4832 10.4575 13.6409 10.4157 13.8013 10.4163C13.9617 10.4168 14.119 10.4597 14.2576 10.5405Z" fill="white"/>
</g>
</svg>
